M48
; DRILL file {KiCad (5.1.4)-1} date 4/10/2020 1:24:11 PM
; FORMAT={-:-/ absolute / inch / decimal}
; #@! TF.CreationDate,2020-04-10T13:24:11-05:00
; #@! TF.GenerationSoftware,Kicad,Pcbnew,(5.1.4)-1
; #@! TF.FileFunction,Plated,1,4,PTH
FMAT,2
INCH
T1C0.0100
T2C0.0350
T3C0.0354
T4C0.0394
T5C0.0433
T6C0.0630
%
G90
G05
T1
X3.8502Y-3.1525
X4.0502Y-2.2005
X4.124Y-2.1093
X4.124Y-2.1343
X4.1375Y-1.9383
X4.1375Y-2.2273
X4.1623Y-2.345
X4.2001Y-2.0367
X4.2017Y-2.2525
X4.2075Y-2.0008
X4.2092Y-2.1825
X4.2194Y-2.076
X4.2375Y-1.9513
X4.2775Y-2.2556
X4.2802Y-2.106
X4.2802Y-2.1387
X4.305Y-1.9358
X4.3271Y-2.106
X4.3271Y-2.1387
X4.3277Y-2.345
X4.33Y-2.0167
X4.3349Y-2.2912
X4.34Y-1.9358
X4.3575Y-2.0375
X4.4025Y-1.9298
X4.425Y-2.2258
X4.425Y-2.2692
X4.4683Y-2.785
X4.5Y-2.1625
X4.5117Y-2.785
X4.5325Y-2.1125
X4.5483Y-2.1625
X4.5598Y-2.71
X4.5598Y-2.785
X4.5598Y-2.855
X4.5598Y-2.93
X4.5917Y-2.1625
X4.5927Y-2.0625
X4.5927Y-2.1125
X4.6121Y-3.115
X4.6537Y-2.0125
X4.6725Y-2.6775
X4.7131Y-2.6344
X4.755Y-2.695
X4.7583Y-2.775
X4.7583Y-2.95
X4.7623Y-2.91
X4.7648Y-3.0567
X4.765Y-3.1058
X4.765Y-3.1492
X4.7925Y-2.6423
X4.8Y-3.1058
X4.8Y-3.1492
X4.8002Y-3.0567
X4.8017Y-2.775
X4.8017Y-2.95
X4.8523Y-3.21
X4.8663Y-2.0125
X4.8875Y-3.0235
X4.8937Y-3.0875
X4.895Y-2.9575
X4.9025Y-2.8175
X4.9025Y-2.8425
X4.9025Y-2.8675
X4.921Y-2.9575
X4.925Y-3.0227
X4.9273Y-2.0625
X4.9273Y-2.1125
X4.9275Y-2.8175
X4.9275Y-2.8425
X4.9275Y-2.8675
X4.9283Y-2.1625
X4.9428Y-2.7262
X4.9525Y-2.8175
X4.9525Y-2.8425
X4.9525Y-2.8675
X4.9527Y-3.2025
X4.9763Y-3.1525
X4.995Y-2.9873
X5.0433Y-3.165
X5.0558Y-2.8525
X5.0558Y-2.96
X5.0867Y-3.165
X5.0952Y-2.7425
X5.0992Y-2.8525
X5.0992Y-2.96
X5.0992Y-2.995
X5.1875Y-3.1775
X5.2675Y-2.795
X5.305Y-2.9673
X5.3598Y-2.23
X5.3598Y-2.41
X5.3842Y-2.0122
X5.3967Y-3.0075
X5.425Y-2.2375
X5.4525Y-2.3
X5.4683Y-2.1925
X5.4683Y-2.37
X5.47Y-2.0752
X5.4708Y-2.0051
X5.475Y-2.765
X5.475Y-2.8433
X5.475Y-2.8867
X5.51Y-2.5583
X5.51Y-2.6017
X5.5117Y-2.1925
X5.5117Y-2.37
X5.54Y-2.6525
X5.5452Y-2.7925
X5.5781Y-2.6632
X5.58Y-2.0602
X5.595Y-2.695
X5.6087Y-2.2025
X5.6125Y-2.615
X5.615Y-2.375
X5.6717Y-2.0075
X5.6913Y-2.2025
X5.745Y-1.965
X5.7525Y-2.665
X5.755Y-2.1877
X5.765Y-3.02
X5.7775Y-2.225
X5.7983Y-2.09
X5.8Y-2.7875
X5.8Y-3.0475
X5.84Y-2.7525
X5.8417Y-2.09
X5.8558Y-3.0475
X5.8992Y-3.0475
X5.9275Y-2.6975
X5.9675Y-2.7425
X5.9725Y-2.475
X5.9758Y-2.125
X5.98Y-2.7775
X5.9984Y-3.1575
X6.0Y-2.6675
X6.0192Y-2.125
X6.0333Y-3.0825
X6.0767Y-3.0825
X6.0875Y-2.0498
X6.1166Y-3.1575
X6.1425Y-2.0498
X6.46Y-2.5583
X6.46Y-2.6017
X6.6508Y-2.0275
X6.6883Y-2.2475
X6.6883Y-2.425
X6.6883Y-2.6025
X6.6883Y-2.78
X6.6883Y-2.9575
X6.6883Y-3.135
X6.6942Y-2.0275
X6.7317Y-2.2475
X6.7317Y-2.425
X6.7317Y-2.6025
X6.7317Y-2.78
X6.7317Y-2.9575
X6.7317Y-3.135
X6.8577Y-2.21
X6.8577Y-2.3875
X6.8577Y-2.565
X6.8577Y-2.7425
X6.8577Y-2.92
X6.8577Y-3.0975
X7.175Y-2.7375
X7.175Y-2.7625
X7.175Y-2.7875
X7.185Y-2.305
X7.185Y-2.33
X7.185Y-2.355
X7.185Y-2.38
X7.2Y-2.7375
X7.2Y-2.7625
X7.2Y-2.7875
X7.21Y-2.305
X7.21Y-2.33
X7.21Y-2.355
X7.21Y-2.38
X7.2175Y-2.1575
X7.225Y-2.7375
X7.225Y-2.7625
X7.225Y-2.7875
X7.23Y-2.58
X7.235Y-2.305
X7.235Y-2.33
X7.235Y-2.355
X7.235Y-2.38
X7.2425Y-2.0025
X7.25Y-2.7375
X7.25Y-2.7625
X7.25Y-2.7875
X7.2525Y-2.58
X7.275Y-2.58
X7.3175Y-2.58
X7.34Y-2.58
X7.3625Y-2.58
X7.38Y-2.4725
X7.38Y-2.495
X7.38Y-2.5175
X7.4Y-2.6075
X7.4275Y-2.63
X7.5048Y-2.6248
X7.5048Y-2.6602
X7.5402Y-2.6248
X7.5402Y-2.6602
X7.575Y-2.55
X7.5992Y-2.52
X7.635Y-2.7525
X7.665Y-2.8933
X7.665Y-2.9367
X7.6925Y-2.9825
X7.695Y-2.6675
X7.695Y-2.71
T2
X3.8Y-2.561
X3.8Y-2.959
X3.8598Y-2.661
X3.8598Y-3.059
T3
X4.2425Y-2.635
X4.2425Y-2.735
X4.2425Y-2.835
X4.2425Y-2.935
X4.3425Y-2.685
X4.3425Y-2.785
X4.3425Y-2.885
X4.3425Y-2.985
T4
X7.795Y-3.19
X6.3219Y-1.9375
X6.4219Y-1.9375
X6.5219Y-1.9375
X6.6219Y-1.9375
X6.7219Y-1.9375
X6.8219Y-1.9375
T5
X5.085Y-1.9216
X5.085Y-2.1775
X5.2622Y-1.9216
X5.2622Y-2.1775
X7.0316Y-1.9378
X7.0316Y-2.115
X7.2875Y-1.9378
X7.2875Y-2.115
T6
X4.113Y-2.5039
X4.113Y-3.1161
T4
G00X7.5975Y-2.1644
M15
G01X7.5975Y-2.0856
M16
G05
G00X7.755Y-1.94
M15
G01X7.6762Y-1.94
M16
G05
G00X7.8337Y-2.1644
M15
G01X7.8337Y-2.0856
M16
G05
T0
M30
