G04 #@! TF.GenerationSoftware,KiCad,Pcbnew,(5.1.4)-1*
G04 #@! TF.CreationDate,2020-04-10T13:24:09-05:00*
G04 #@! TF.ProjectId,PIC32MZ_ETH_Demo,50494333-324d-45a5-9f45-54485f44656d,rev?*
G04 #@! TF.SameCoordinates,Original*
G04 #@! TF.FileFunction,Copper,L4,Bot*
G04 #@! TF.FilePolarity,Positive*
%FSLAX46Y46*%
G04 Gerber Fmt 4.6, Leading zero omitted, Abs format (unit mm)*
G04 Created by KiCad (PCBNEW (5.1.4)-1) date 2020-04-10 13:24:09*
%MOMM*%
%LPD*%
G04 APERTURE LIST*
%ADD10R,1.000000X5.000000*%
%ADD11R,0.600000X0.500000*%
%ADD12R,0.500000X0.600000*%
%ADD13R,1.250000X1.000000*%
%ADD14R,3.500000X3.500000*%
%ADD15O,1.700000X1.700000*%
%ADD16R,1.700000X1.700000*%
%ADD17R,1.900000X1.900000*%
%ADD18C,1.900000*%
%ADD19C,1.890000*%
%ADD20C,2.600000*%
%ADD21R,0.400000X0.600000*%
%ADD22R,0.450000X0.700000*%
%ADD23R,0.600000X0.400000*%
%ADD24C,2.000000*%
%ADD25R,0.250000X0.700000*%
%ADD26R,1.190000X0.830000*%
%ADD27C,0.508000*%
%ADD28C,0.254000*%
%ADD29C,0.635000*%
G04 APERTURE END LIST*
D10*
X123704000Y-53022500D03*
X118104000Y-53022500D03*
D11*
X182139500Y-54102000D03*
X183239500Y-54102000D03*
X125899000Y-80200500D03*
X124799000Y-80200500D03*
X125899000Y-79311500D03*
X124799000Y-79311500D03*
X124799000Y-78422500D03*
X125899000Y-78422500D03*
X129518500Y-75184000D03*
X128418500Y-75184000D03*
X139996000Y-60198000D03*
X138896000Y-60198000D03*
X137308500Y-50990500D03*
X138408500Y-50990500D03*
X138896000Y-55689500D03*
X139996000Y-55689500D03*
X126280000Y-54927500D03*
X125180000Y-54927500D03*
X116628000Y-54927500D03*
X115528000Y-54927500D03*
D12*
X107442000Y-49170500D03*
X107442000Y-50270500D03*
X110236000Y-50270500D03*
X110236000Y-49170500D03*
X110109000Y-56981000D03*
X110109000Y-58081000D03*
D13*
X108648500Y-57293000D03*
X108648500Y-59293000D03*
D12*
X109347000Y-49170500D03*
X109347000Y-50270500D03*
D11*
X106912500Y-55435500D03*
X105812500Y-55435500D03*
X106912500Y-52387500D03*
X105812500Y-52387500D03*
D12*
X194691000Y-73491000D03*
X194691000Y-74591000D03*
X112395000Y-56536500D03*
X112395000Y-57636500D03*
D11*
X169884000Y-57086500D03*
X170984000Y-57086500D03*
X169884000Y-61595000D03*
X170984000Y-61595000D03*
X169884000Y-66103500D03*
X170984000Y-66103500D03*
X169884000Y-70612000D03*
X170984000Y-70612000D03*
X169884000Y-75120500D03*
X170984000Y-75120500D03*
X169884000Y-79629000D03*
X170984000Y-79629000D03*
D14*
X192976500Y-53975000D03*
X198976500Y-53975000D03*
X195976500Y-49275000D03*
D15*
X160575001Y-49212500D03*
X163115001Y-49212500D03*
X165655001Y-49212500D03*
X168195001Y-49212500D03*
X170735001Y-49212500D03*
D16*
X173275001Y-49212500D03*
D17*
X107759500Y-66929000D03*
D18*
X110299500Y-68199000D03*
X107759500Y-69469000D03*
X110299500Y-70739000D03*
X107759500Y-72009000D03*
X110299500Y-73279000D03*
X107759500Y-74549000D03*
X110299500Y-75819000D03*
D19*
X98039500Y-77699000D03*
X96519500Y-75159000D03*
X98039500Y-67589000D03*
X96519500Y-65049000D03*
D20*
X104469500Y-63599000D03*
X104469500Y-79149000D03*
D21*
X125799000Y-81343500D03*
X124899000Y-81343500D03*
D22*
X181849000Y-50816000D03*
X183149000Y-50816000D03*
X182499000Y-52816000D03*
D21*
X190251500Y-64643000D03*
X189351500Y-64643000D03*
X187637000Y-64643000D03*
X188537000Y-64643000D03*
X182049000Y-48387000D03*
X182949000Y-48387000D03*
X182049000Y-49466500D03*
X182949000Y-49466500D03*
D23*
X180530500Y-52128000D03*
X180530500Y-53028000D03*
D21*
X180207500Y-54102000D03*
X181107500Y-54102000D03*
X181107500Y-55181500D03*
X180207500Y-55181500D03*
X143060000Y-55943500D03*
X143960000Y-55943500D03*
D23*
X146177000Y-55568000D03*
X146177000Y-54668000D03*
D21*
X140848500Y-70929500D03*
X139948500Y-70929500D03*
D23*
X119697500Y-68014000D03*
X119697500Y-67114000D03*
X120713500Y-67114000D03*
X120713500Y-68014000D03*
X121729500Y-67114000D03*
X121729500Y-68014000D03*
X126873000Y-75877000D03*
X126873000Y-76777000D03*
D21*
X129418500Y-69659500D03*
X128518500Y-69659500D03*
D23*
X125095000Y-76777000D03*
X125095000Y-75877000D03*
X124142500Y-76777000D03*
X124142500Y-75877000D03*
D21*
X96832000Y-62611000D03*
X97732000Y-62611000D03*
X97795500Y-80073500D03*
X96895500Y-80073500D03*
D23*
X138938000Y-51810500D03*
X138938000Y-52710500D03*
D21*
X125153000Y-53657500D03*
X126053000Y-53657500D03*
X126053000Y-52387500D03*
X125153000Y-52387500D03*
X116655000Y-52387500D03*
X115755000Y-52387500D03*
X115755000Y-53657500D03*
X116655000Y-53657500D03*
D23*
X108394500Y-49270500D03*
X108394500Y-50170500D03*
D21*
X105912500Y-54419500D03*
X106812500Y-54419500D03*
X105912500Y-53403500D03*
X106812500Y-53403500D03*
D24*
X185102500Y-49221000D03*
X185102500Y-53721000D03*
X178602500Y-49221000D03*
X178602500Y-53721000D03*
X129159000Y-48808500D03*
X133659000Y-48808500D03*
X129159000Y-55308500D03*
X133659000Y-55308500D03*
D16*
X197993000Y-81026000D03*
D25*
X108187500Y-52508500D03*
X108637500Y-52508500D03*
X109087500Y-52508500D03*
X109537500Y-52508500D03*
X109987500Y-52508500D03*
X110437500Y-52508500D03*
X110437500Y-55308500D03*
X109987500Y-55308500D03*
X109537500Y-55308500D03*
X109087500Y-55308500D03*
X108637500Y-55308500D03*
X108187500Y-55308500D03*
D26*
X109907500Y-54323500D03*
X108717500Y-54323500D03*
X109907500Y-53493500D03*
X108717500Y-53493500D03*
D27*
X182499000Y-58547000D03*
X187452000Y-63944500D03*
X187452000Y-62801500D03*
X187452000Y-63373000D03*
X187007500Y-65532000D03*
X185864500Y-65532000D03*
X186436000Y-65532000D03*
X184785000Y-65532000D03*
X184213500Y-65532000D03*
X183642000Y-65532000D03*
X192405000Y-64770000D03*
X124523500Y-71564500D03*
X169884000Y-79629000D03*
X169884000Y-75120500D03*
X169884000Y-70612000D03*
X169884000Y-66103500D03*
X169884000Y-61595000D03*
X169884000Y-57086500D03*
X139065000Y-73321000D03*
X139954000Y-66082000D03*
X148378000Y-53086000D03*
X152886500Y-53975000D03*
X154622500Y-52064500D03*
X164084000Y-66082000D03*
X153247000Y-78295500D03*
X149838500Y-77406500D03*
X137075000Y-76390500D03*
X139996000Y-55689500D03*
X139996000Y-60198000D03*
X144060000Y-50990500D03*
X194691000Y-73491000D03*
X126399000Y-80073000D03*
X123248000Y-81534000D03*
X144560000Y-55943000D03*
X136758500Y-51109500D03*
X136138500Y-56642000D03*
X136138500Y-61214000D03*
X174186000Y-56134000D03*
X174186000Y-65151000D03*
X174186000Y-69659500D03*
X174186000Y-74168000D03*
X174186000Y-78676500D03*
X120862000Y-70485000D03*
X120862000Y-74930000D03*
X120962000Y-73914000D03*
X129518500Y-76073000D03*
X129518500Y-75184000D03*
X129201000Y-80391000D03*
X123604000Y-51117500D03*
X97795500Y-80073500D03*
X129518500Y-72453500D03*
X125158500Y-71564500D03*
X125793500Y-71564500D03*
X124523500Y-72199500D03*
X125158500Y-72199500D03*
X125793500Y-72199500D03*
X124523500Y-72834500D03*
X125158500Y-72834500D03*
X125793500Y-72834500D03*
X114596000Y-70739000D03*
X124142500Y-76796900D03*
X121031000Y-79988500D03*
X121920000Y-79988500D03*
X117147000Y-79121000D03*
X142621000Y-60325000D03*
X193018500Y-64008000D03*
X190621500Y-66669500D03*
X191521500Y-66669500D03*
X191521500Y-67569500D03*
X190621500Y-67569500D03*
X168931500Y-51498500D03*
X183134000Y-58547000D03*
X183769000Y-58547000D03*
X182499000Y-59182000D03*
X183134000Y-59182000D03*
X183769000Y-59182000D03*
X182499000Y-59817000D03*
X183134000Y-59817000D03*
X183769000Y-59817000D03*
X182499000Y-60452000D03*
X183134000Y-60452000D03*
X183769000Y-60452000D03*
X183959500Y-50863500D03*
X183324500Y-54800500D03*
X152360500Y-80200500D03*
X182245000Y-70802500D03*
X183515000Y-70167500D03*
X183515000Y-69532500D03*
X184150000Y-70802500D03*
X184150000Y-70167500D03*
X184150000Y-69532500D03*
X183515000Y-70802500D03*
X182880000Y-70167500D03*
X182880000Y-69532500D03*
X182245000Y-70167500D03*
X182245000Y-69532500D03*
X182880000Y-70802500D03*
X170984000Y-79629000D03*
X170984000Y-75120500D03*
X170984000Y-70612000D03*
X170984000Y-66103500D03*
X170984000Y-61595000D03*
X170984000Y-57086500D03*
X188658500Y-66802000D03*
X139065000Y-72221000D03*
X139954000Y-64982000D03*
X147278000Y-53086000D03*
X151786500Y-53975000D03*
X156019500Y-52064500D03*
X164084000Y-64982000D03*
X154347000Y-78295500D03*
X148738500Y-77406500D03*
X134747000Y-75369000D03*
X138896000Y-55689500D03*
X138896000Y-60198000D03*
X141732000Y-52329500D03*
X194691000Y-74591000D03*
X125799000Y-81343500D03*
X138958500Y-50929500D03*
X174186000Y-60642500D03*
X120777000Y-68453000D03*
X128101000Y-80391000D03*
X125180000Y-54927500D03*
X128418500Y-72453500D03*
X121031000Y-78888500D03*
X121025500Y-77640999D03*
X170031500Y-51498500D03*
X195453000Y-68834000D03*
X195453000Y-67754500D03*
X155360500Y-80200500D03*
X124299000Y-78423000D03*
X128418500Y-75184000D03*
X121962000Y-70485000D03*
X121962000Y-74930000D03*
X115818500Y-72517000D03*
X115818500Y-74422000D03*
X115818500Y-70739000D03*
X115818500Y-68834000D03*
X113496000Y-70739000D03*
X125095000Y-76777000D03*
X121925500Y-77640999D03*
X121920000Y-78888500D03*
X106723000Y-57213500D03*
X107172459Y-52729902D03*
X106912500Y-55435500D03*
X108717500Y-53493500D03*
X109907500Y-53493500D03*
X109907500Y-54323500D03*
X108717500Y-54323500D03*
X112395000Y-57636500D03*
X109347000Y-49170500D03*
X110236000Y-49170500D03*
X107632500Y-49564098D03*
X110107434Y-58195364D03*
X109924000Y-59563000D03*
X102876000Y-55892500D03*
X105092500Y-56573000D03*
X115528000Y-54927500D03*
X105092500Y-49234000D03*
X118204000Y-51117500D03*
X112395000Y-56536500D03*
X106682500Y-51731098D03*
X109982000Y-51223000D03*
X106871235Y-50820044D03*
X111823500Y-49016500D03*
X108648500Y-57293000D03*
X105722000Y-59563000D03*
X116628000Y-54927500D03*
X104749902Y-54210000D03*
X104749902Y-53575000D03*
X110680500Y-51752500D03*
X124333000Y-75120500D03*
X124993403Y-75120500D03*
X125546319Y-69245812D03*
X121729500Y-67114000D03*
X119713500Y-66914000D03*
X195389500Y-75755500D03*
X193929000Y-69913500D03*
X131762500Y-80708500D03*
X187960000Y-66230500D03*
X142460000Y-55943000D03*
X146177000Y-55568000D03*
X140848500Y-70929500D03*
X118681500Y-68008500D03*
X126873000Y-75877000D03*
X129418500Y-69659500D03*
X151574500Y-69659500D03*
X140716000Y-67373500D03*
X152400000Y-67754500D03*
X142557500Y-66421000D03*
X146113500Y-67691000D03*
X141682598Y-67646054D03*
X146431000Y-76708000D03*
X148336000Y-69913500D03*
X147320000Y-77406500D03*
X147320000Y-70802500D03*
X133794500Y-70993000D03*
X151701500Y-62865000D03*
X139065000Y-70231000D03*
X151892000Y-70548500D03*
X142113000Y-68453000D03*
X150558500Y-68516500D03*
X138493500Y-58420000D03*
X137795000Y-56832500D03*
X138938000Y-52710500D03*
X125153000Y-53657500D03*
X125153000Y-52387500D03*
X146748500Y-56515000D03*
X145923000Y-49911000D03*
X116655000Y-52387500D03*
X114300000Y-54927500D03*
X116655000Y-53657500D03*
X115125500Y-53657500D03*
D28*
X190251500Y-64643000D02*
X192278000Y-64643000D01*
X192278000Y-64643000D02*
X192405000Y-64770000D01*
X139948500Y-70929500D02*
X139948500Y-72437500D01*
X139948500Y-72437500D02*
X139065000Y-73321000D01*
X125899000Y-80200500D02*
X125899000Y-78422500D01*
X125899000Y-80200500D02*
X126271500Y-80200500D01*
X126271500Y-80200500D02*
X126399000Y-80073000D01*
X144559500Y-55943500D02*
X144560000Y-55943000D01*
X143960000Y-55943500D02*
X144559500Y-55943500D01*
X144560000Y-55139000D02*
X144560000Y-55943000D01*
X145031000Y-54668000D02*
X144560000Y-55139000D01*
X146177000Y-54668000D02*
X145031000Y-54668000D01*
X136877500Y-50990500D02*
X136758500Y-51109500D01*
X137308500Y-50990500D02*
X136877500Y-50990500D01*
X126873000Y-77448500D02*
X125899000Y-78422500D01*
X126873000Y-76777000D02*
X126873000Y-77448500D01*
X124142500Y-76777000D02*
X124142500Y-76796900D01*
X128778000Y-54927500D02*
X129159000Y-55308500D01*
X126280000Y-54927500D02*
X128778000Y-54927500D01*
X187637000Y-64129500D02*
X187452000Y-63944500D01*
X187637000Y-64643000D02*
X187637000Y-64129500D01*
X182949000Y-50616000D02*
X183149000Y-50816000D01*
X182949000Y-49466500D02*
X182949000Y-50616000D01*
X183149000Y-50816000D02*
X183912000Y-50816000D01*
X183912000Y-50816000D02*
X183959500Y-50863500D01*
X183239500Y-54102000D02*
X183239500Y-54715500D01*
X183239500Y-54715500D02*
X183324500Y-54800500D01*
X178983500Y-54102000D02*
X178602500Y-53721000D01*
X180207500Y-54102000D02*
X178983500Y-54102000D01*
X138897500Y-50990500D02*
X138958500Y-50929500D01*
X138408500Y-50990500D02*
X138897500Y-50990500D01*
X138938000Y-50950000D02*
X138958500Y-50929500D01*
X138938000Y-51810500D02*
X138938000Y-50950000D01*
X120713500Y-68014000D02*
X121729500Y-68014000D01*
X120713500Y-68014000D02*
X120713500Y-68389500D01*
X120713500Y-68389500D02*
X120777000Y-68453000D01*
X126053000Y-53657500D02*
X126053000Y-52387500D01*
X126053000Y-54054500D02*
X125180000Y-54927500D01*
X126053000Y-53657500D02*
X126053000Y-54054500D01*
X128518500Y-72353500D02*
X128418500Y-72453500D01*
X128518500Y-69659500D02*
X128518500Y-72353500D01*
X181107500Y-53605000D02*
X180530500Y-53028000D01*
X181107500Y-54102000D02*
X181107500Y-53605000D01*
X182139500Y-54102000D02*
X181107500Y-54102000D01*
X181107500Y-54102000D02*
X181107500Y-55181500D01*
X124799000Y-78422500D02*
X124799000Y-80200500D01*
X124799000Y-78422500D02*
X124299500Y-78422500D01*
X124299500Y-78422500D02*
X124299000Y-78423000D01*
X124799000Y-81243500D02*
X124899000Y-81343500D01*
X124799000Y-80200500D02*
X124799000Y-81243500D01*
D29*
X109029500Y-72009000D02*
X110299500Y-70739000D01*
X107759500Y-72009000D02*
X109029500Y-72009000D01*
D28*
X106912500Y-52387500D02*
X106912500Y-52469943D01*
X106912500Y-52469943D02*
X107172459Y-52729902D01*
X109987500Y-53413500D02*
X109907500Y-53493500D01*
X109987500Y-52508500D02*
X109987500Y-53413500D01*
X107442000Y-49170500D02*
X107442000Y-49373598D01*
X107442000Y-49373598D02*
X107632500Y-49564098D01*
X108648500Y-59293000D02*
X109654000Y-59293000D01*
X109654000Y-59293000D02*
X109924000Y-59563000D01*
X109537500Y-51667500D02*
X109982000Y-51223000D01*
X109537500Y-52508500D02*
X109537500Y-51667500D01*
X110236000Y-50969000D02*
X109982000Y-51223000D01*
X110236000Y-50270500D02*
X110236000Y-50969000D01*
X108394500Y-48816500D02*
X108633500Y-48577500D01*
X108394500Y-49270500D02*
X108394500Y-48816500D01*
X108633500Y-48577500D02*
X111379000Y-48577500D01*
X111379000Y-48577500D02*
X111818000Y-49016500D01*
X111818000Y-49016500D02*
X111823500Y-49016500D01*
X109537500Y-56404000D02*
X108648500Y-57293000D01*
X109537500Y-55308500D02*
X109537500Y-56404000D01*
X109537500Y-56409500D02*
X110109000Y-56981000D01*
X109537500Y-55308500D02*
X109537500Y-56409500D01*
X115755000Y-53657500D02*
X115755000Y-52387500D01*
X115755000Y-54054500D02*
X116628000Y-54927500D01*
X115755000Y-53657500D02*
X115755000Y-54054500D01*
X108294500Y-50270500D02*
X108394500Y-50170500D01*
X107442000Y-50270500D02*
X108294500Y-50270500D01*
X108637500Y-52508500D02*
X108637500Y-51233500D01*
X108394500Y-50990500D02*
X108394500Y-50170500D01*
X108637500Y-51233500D02*
X108394500Y-50990500D01*
X109087500Y-50530000D02*
X109347000Y-50270500D01*
X109087500Y-52508500D02*
X109087500Y-50530000D01*
X105703000Y-54210000D02*
X105912500Y-54419500D01*
X104749902Y-54210000D02*
X105703000Y-54210000D01*
X105812500Y-54519500D02*
X105912500Y-54419500D01*
X105812500Y-55435500D02*
X105812500Y-54519500D01*
X105741000Y-53575000D02*
X105912500Y-53403500D01*
X104749902Y-53575000D02*
X105741000Y-53575000D01*
X105812500Y-53303500D02*
X105912500Y-53403500D01*
X105812500Y-52387500D02*
X105812500Y-53303500D01*
X110437500Y-51995500D02*
X110680500Y-51752500D01*
X110437500Y-52508500D02*
X110437500Y-51995500D01*
X180207500Y-55181500D02*
X174180500Y-55181500D01*
X173275001Y-54276001D02*
X173275001Y-49212500D01*
X174180500Y-55181500D02*
X173275001Y-54276001D01*
X124142500Y-75877000D02*
X124142500Y-75311000D01*
X124142500Y-75311000D02*
X124333000Y-75120500D01*
X96519500Y-79697500D02*
X96895500Y-80073500D01*
X96519500Y-75159000D02*
X96519500Y-79697500D01*
X125095000Y-75877000D02*
X125095000Y-75222097D01*
X125095000Y-75222097D02*
X124993403Y-75120500D01*
X96832000Y-64736500D02*
X96519500Y-65049000D01*
X96832000Y-62611000D02*
X96832000Y-64736500D01*
X182049000Y-50616000D02*
X181849000Y-50816000D01*
X182049000Y-49466500D02*
X182049000Y-50616000D01*
X182049000Y-48387000D02*
X182049000Y-49466500D01*
X181811000Y-52128000D02*
X182499000Y-52816000D01*
X180530500Y-52128000D02*
X181811000Y-52128000D01*
X125546319Y-69245812D02*
X123220812Y-69245812D01*
X123220812Y-69245812D02*
X122745500Y-68770500D01*
X122745500Y-68770500D02*
X122745500Y-67564000D01*
X122295500Y-67114000D02*
X121729500Y-67114000D01*
X122745500Y-67564000D02*
X122295500Y-67114000D01*
X120713500Y-67114000D02*
X119697500Y-67114000D01*
X119697500Y-67114000D02*
X119697500Y-66930000D01*
X119697500Y-66930000D02*
X119713500Y-66914000D01*
X195389500Y-75755500D02*
X193802000Y-75755500D01*
X193802000Y-75755500D02*
X193421000Y-75374500D01*
X193421000Y-75374500D02*
X193421000Y-70294500D01*
X193421000Y-70294500D02*
X193802000Y-69913500D01*
X193802000Y-69913500D02*
X193929000Y-69913500D01*
X131762500Y-80708500D02*
X132524500Y-80708500D01*
X132524500Y-80708500D02*
X135382000Y-77851000D01*
X135382000Y-77851000D02*
X143891000Y-77851000D01*
X143891000Y-77851000D02*
X145161000Y-79121000D01*
X145161000Y-79121000D02*
X157797500Y-79121000D01*
X157797500Y-79121000D02*
X159321500Y-77597000D01*
X191198500Y-77597000D02*
X193421000Y-75374500D01*
X159321500Y-77597000D02*
X191198500Y-77597000D01*
X188537000Y-64643000D02*
X189351500Y-64643000D01*
X188537000Y-64643000D02*
X188537000Y-65653500D01*
X188537000Y-65653500D02*
X187960000Y-66230500D01*
X184268500Y-48387000D02*
X185102500Y-49221000D01*
X182949000Y-48387000D02*
X184268500Y-48387000D01*
X143060000Y-55943500D02*
X142460500Y-55943500D01*
X142460500Y-55943500D02*
X142460000Y-55943000D01*
X119692000Y-68008500D02*
X119697500Y-68014000D01*
X118681500Y-68008500D02*
X119692000Y-68008500D01*
X141033499Y-67056001D02*
X140969999Y-67119501D01*
X151574500Y-69659500D02*
X151574500Y-67691000D01*
X151574500Y-67691000D02*
X150939501Y-67056001D01*
X150939501Y-67056001D02*
X141033499Y-67056001D01*
X140969999Y-67119501D02*
X140716000Y-67373500D01*
X152400000Y-67395290D02*
X151298710Y-66294000D01*
X152400000Y-67754500D02*
X152400000Y-67395290D01*
X151298710Y-66294000D02*
X142684500Y-66294000D01*
X142684500Y-66294000D02*
X142557500Y-66421000D01*
X146113500Y-67691000D02*
X141727544Y-67691000D01*
X141727544Y-67691000D02*
X141682598Y-67646054D01*
X146939000Y-69913500D02*
X147976790Y-69913500D01*
X147976790Y-69913500D02*
X148336000Y-69913500D01*
X146431000Y-70421500D02*
X146939000Y-69913500D01*
X146431000Y-76708000D02*
X146431000Y-70421500D01*
X147320000Y-77406500D02*
X147320000Y-70802500D01*
X133794500Y-70993000D02*
X133794500Y-68897500D01*
X133794500Y-68897500D02*
X133794500Y-66167000D01*
X133794500Y-66167000D02*
X136652000Y-63309500D01*
X136652000Y-63309500D02*
X151257000Y-63309500D01*
X151257000Y-63309500D02*
X151701500Y-62865000D01*
X139424210Y-70231000D02*
X140503710Y-69151500D01*
X139065000Y-70231000D02*
X139424210Y-70231000D01*
X140503710Y-69151500D02*
X149669500Y-69151500D01*
X149669500Y-69151500D02*
X151066500Y-70548500D01*
X151066500Y-70548500D02*
X151892000Y-70548500D01*
X142113000Y-68453000D02*
X150495000Y-68453000D01*
X150495000Y-68453000D02*
X150558500Y-68516500D01*
X138493500Y-58420000D02*
X138493500Y-57531000D01*
X138493500Y-57531000D02*
X137795000Y-56832500D01*
X145923000Y-53213000D02*
X147193000Y-54483000D01*
X147193000Y-54483000D02*
X147193000Y-55554922D01*
X147193000Y-55554922D02*
X146748500Y-55999422D01*
X145923000Y-49911000D02*
X145923000Y-53213000D01*
X146748500Y-55999422D02*
X146748500Y-56515000D01*
X109087500Y-55912500D02*
X108739000Y-56261000D01*
X109087500Y-55308500D02*
X109087500Y-55912500D01*
X108739000Y-56261000D02*
X107950000Y-56261000D01*
X107950000Y-56261000D02*
X107759500Y-56261000D01*
X107759500Y-56261000D02*
X107442000Y-56578500D01*
X107442000Y-56578500D02*
X107442000Y-58039000D01*
X107442000Y-58039000D02*
X107696000Y-58293000D01*
X109268078Y-58293000D02*
X109839578Y-58864500D01*
X107696000Y-58293000D02*
X109268078Y-58293000D01*
X109839578Y-58864500D02*
X113792000Y-58864500D01*
X113792000Y-58864500D02*
X114300000Y-58356500D01*
X114300000Y-58356500D02*
X114300000Y-54927500D01*
X110437500Y-55308500D02*
X113115290Y-55308500D01*
X113115290Y-55308500D02*
X114766290Y-53657500D01*
X114766290Y-53657500D02*
X115125500Y-53657500D01*
X107298500Y-54419500D02*
X108187500Y-55308500D01*
X106812500Y-54419500D02*
X107298500Y-54419500D01*
X107292500Y-53403500D02*
X108187500Y-52508500D01*
X106812500Y-53403500D02*
X107292500Y-53403500D01*
G36*
X119237080Y-61977987D02*
G01*
X119442932Y-62286067D01*
X119704933Y-62548068D01*
X120013013Y-62753920D01*
X120355333Y-62895714D01*
X120718738Y-62968000D01*
X121089262Y-62968000D01*
X121452667Y-62895714D01*
X121794987Y-62753920D01*
X122103067Y-62548068D01*
X122365068Y-62286067D01*
X122570920Y-61977987D01*
X122676954Y-61722000D01*
X125971490Y-61722000D01*
X126031649Y-61733967D01*
X126072043Y-61760957D01*
X126099033Y-61801351D01*
X126111000Y-61861510D01*
X126111000Y-68949739D01*
X126109048Y-68945027D01*
X126039555Y-68841023D01*
X125951108Y-68752576D01*
X125847104Y-68683083D01*
X125731542Y-68635215D01*
X125608861Y-68610812D01*
X125483777Y-68610812D01*
X125361096Y-68635215D01*
X125245534Y-68683083D01*
X125163626Y-68737812D01*
X123431232Y-68737812D01*
X123253500Y-68560080D01*
X123253500Y-67588943D01*
X123255957Y-67563999D01*
X123253500Y-67539053D01*
X123246149Y-67464415D01*
X123217101Y-67368657D01*
X123184064Y-67306850D01*
X123169929Y-67280404D01*
X123122350Y-67222429D01*
X123106448Y-67203052D01*
X123087070Y-67187149D01*
X122672355Y-66772434D01*
X122656448Y-66753052D01*
X122579095Y-66689571D01*
X122490843Y-66642399D01*
X122395085Y-66613351D01*
X122320447Y-66606000D01*
X122320444Y-66606000D01*
X122295500Y-66603543D01*
X122270556Y-66606000D01*
X122254774Y-66606000D01*
X122242196Y-66595678D01*
X122176008Y-66560299D01*
X122104189Y-66538513D01*
X122029500Y-66531157D01*
X121981726Y-66531157D01*
X121914723Y-66503403D01*
X121792042Y-66479000D01*
X121666958Y-66479000D01*
X121544277Y-66503403D01*
X121477274Y-66531157D01*
X121429500Y-66531157D01*
X121354811Y-66538513D01*
X121282992Y-66560299D01*
X121221500Y-66593168D01*
X121160008Y-66560299D01*
X121088189Y-66538513D01*
X121013500Y-66531157D01*
X120413500Y-66531157D01*
X120338811Y-66538513D01*
X120266992Y-66560299D01*
X120247746Y-66570587D01*
X120206736Y-66509211D01*
X120118289Y-66420764D01*
X120014285Y-66351271D01*
X119898723Y-66303403D01*
X119776042Y-66279000D01*
X119650958Y-66279000D01*
X119528277Y-66303403D01*
X119412715Y-66351271D01*
X119308711Y-66420764D01*
X119220264Y-66509211D01*
X119150771Y-66613215D01*
X119144249Y-66628960D01*
X119126789Y-66643289D01*
X119079178Y-66701304D01*
X119043799Y-66767492D01*
X119022013Y-66839311D01*
X119014657Y-66914000D01*
X119014657Y-67314000D01*
X119022013Y-67388689D01*
X119043799Y-67460508D01*
X119065176Y-67500500D01*
X119064193Y-67500500D01*
X118982285Y-67445771D01*
X118866723Y-67397903D01*
X118744042Y-67373500D01*
X118618958Y-67373500D01*
X118496277Y-67397903D01*
X118380715Y-67445771D01*
X118276711Y-67515264D01*
X118188264Y-67603711D01*
X118118771Y-67707715D01*
X118070903Y-67823277D01*
X118046500Y-67945958D01*
X118046500Y-68071042D01*
X118070903Y-68193723D01*
X118118771Y-68309285D01*
X118188264Y-68413289D01*
X118276711Y-68501736D01*
X118380715Y-68571229D01*
X118496277Y-68619097D01*
X118618958Y-68643500D01*
X118744042Y-68643500D01*
X118866723Y-68619097D01*
X118982285Y-68571229D01*
X119064193Y-68516500D01*
X119165525Y-68516500D01*
X119184804Y-68532322D01*
X119250992Y-68567701D01*
X119322811Y-68589487D01*
X119397500Y-68596843D01*
X119997500Y-68596843D01*
X120072189Y-68589487D01*
X120144008Y-68567701D01*
X120151571Y-68563658D01*
X120166403Y-68638223D01*
X120214271Y-68753785D01*
X120283764Y-68857789D01*
X120372211Y-68946236D01*
X120476215Y-69015729D01*
X120591777Y-69063597D01*
X120714458Y-69088000D01*
X120839542Y-69088000D01*
X120962223Y-69063597D01*
X121077785Y-69015729D01*
X121181789Y-68946236D01*
X121270236Y-68857789D01*
X121339729Y-68753785D01*
X121387597Y-68638223D01*
X121396475Y-68593590D01*
X121429500Y-68596843D01*
X122029500Y-68596843D01*
X122104189Y-68589487D01*
X122176008Y-68567701D01*
X122237500Y-68534832D01*
X122237500Y-68745555D01*
X122235043Y-68770500D01*
X122237500Y-68795444D01*
X122237500Y-68795446D01*
X122244851Y-68870084D01*
X122273899Y-68965842D01*
X122321071Y-69054095D01*
X122384552Y-69131448D01*
X122403935Y-69147355D01*
X122843957Y-69587377D01*
X122859864Y-69606760D01*
X122937217Y-69670241D01*
X123025469Y-69717413D01*
X123121227Y-69746461D01*
X123195865Y-69753812D01*
X123195868Y-69753812D01*
X123220812Y-69756269D01*
X123245756Y-69753812D01*
X125163626Y-69753812D01*
X125245534Y-69808541D01*
X125361096Y-69856409D01*
X125483777Y-69880812D01*
X125608861Y-69880812D01*
X125731542Y-69856409D01*
X125847104Y-69808541D01*
X125951108Y-69739048D01*
X126039555Y-69650601D01*
X126109048Y-69546597D01*
X126111000Y-69541885D01*
X126111000Y-71012940D01*
X126094285Y-71001771D01*
X125978723Y-70953903D01*
X125856042Y-70929500D01*
X125730958Y-70929500D01*
X125608277Y-70953903D01*
X125492715Y-71001771D01*
X125476000Y-71012940D01*
X125459285Y-71001771D01*
X125343723Y-70953903D01*
X125221042Y-70929500D01*
X125095958Y-70929500D01*
X124973277Y-70953903D01*
X124857715Y-71001771D01*
X124841000Y-71012940D01*
X124824285Y-71001771D01*
X124708723Y-70953903D01*
X124586042Y-70929500D01*
X124460958Y-70929500D01*
X124338277Y-70953903D01*
X124222715Y-71001771D01*
X124118711Y-71071264D01*
X124030264Y-71159711D01*
X123960771Y-71263715D01*
X123912903Y-71379277D01*
X123888500Y-71501958D01*
X123888500Y-71627042D01*
X123912903Y-71749723D01*
X123960771Y-71865285D01*
X123971940Y-71882000D01*
X123960771Y-71898715D01*
X123912903Y-72014277D01*
X123888500Y-72136958D01*
X123888500Y-72262042D01*
X123912903Y-72384723D01*
X123960771Y-72500285D01*
X123971940Y-72517000D01*
X123960771Y-72533715D01*
X123912903Y-72649277D01*
X123888500Y-72771958D01*
X123888500Y-72897042D01*
X123912903Y-73019723D01*
X123960771Y-73135285D01*
X124030264Y-73239289D01*
X124118711Y-73327736D01*
X124222715Y-73397229D01*
X124338277Y-73445097D01*
X124460958Y-73469500D01*
X124586042Y-73469500D01*
X124708723Y-73445097D01*
X124824285Y-73397229D01*
X124841000Y-73386060D01*
X124857715Y-73397229D01*
X124973277Y-73445097D01*
X125095958Y-73469500D01*
X125221042Y-73469500D01*
X125343723Y-73445097D01*
X125459285Y-73397229D01*
X125476000Y-73386060D01*
X125492715Y-73397229D01*
X125608277Y-73445097D01*
X125730958Y-73469500D01*
X125856042Y-73469500D01*
X125978723Y-73445097D01*
X126094285Y-73397229D01*
X126111000Y-73386060D01*
X126111000Y-77492079D01*
X125813423Y-77789657D01*
X125599000Y-77789657D01*
X125524311Y-77797013D01*
X125452492Y-77818799D01*
X125386304Y-77854178D01*
X125349000Y-77884792D01*
X125311696Y-77854178D01*
X125245508Y-77818799D01*
X125173689Y-77797013D01*
X125099000Y-77789657D01*
X124499000Y-77789657D01*
X124424311Y-77797013D01*
X124417397Y-77799110D01*
X124361542Y-77788000D01*
X124236458Y-77788000D01*
X124113777Y-77812403D01*
X123998215Y-77860271D01*
X123894211Y-77929764D01*
X123805764Y-78018211D01*
X123736271Y-78122215D01*
X123688403Y-78237777D01*
X123664000Y-78360458D01*
X123664000Y-78485542D01*
X123688403Y-78608223D01*
X123736271Y-78723785D01*
X123805764Y-78827789D01*
X123894211Y-78916236D01*
X123998215Y-78985729D01*
X124113777Y-79033597D01*
X124118807Y-79034597D01*
X124116157Y-79061500D01*
X124116157Y-79561500D01*
X124123513Y-79636189D01*
X124145299Y-79708008D01*
X124170952Y-79756000D01*
X124145299Y-79803992D01*
X124123513Y-79875811D01*
X124116157Y-79950500D01*
X124116157Y-80450500D01*
X124123513Y-80525189D01*
X124145299Y-80597008D01*
X124180678Y-80663196D01*
X124228289Y-80721211D01*
X124286304Y-80768822D01*
X124291001Y-80771332D01*
X124291001Y-81218546D01*
X124288543Y-81243500D01*
X124298352Y-81343084D01*
X124316157Y-81401780D01*
X124316157Y-81643500D01*
X124323513Y-81718189D01*
X124345299Y-81790008D01*
X124380678Y-81856196D01*
X124428289Y-81914211D01*
X124486304Y-81961822D01*
X124552492Y-81997201D01*
X124624311Y-82018987D01*
X124699000Y-82026343D01*
X125099000Y-82026343D01*
X125173689Y-82018987D01*
X125245508Y-81997201D01*
X125311696Y-81961822D01*
X125349000Y-81931208D01*
X125386304Y-81961822D01*
X125452492Y-81997201D01*
X125524311Y-82018987D01*
X125599000Y-82026343D01*
X125999000Y-82026343D01*
X126073689Y-82018987D01*
X126111000Y-82007669D01*
X126111000Y-83668000D01*
X95148000Y-83668000D01*
X95148000Y-81471458D01*
X122613000Y-81471458D01*
X122613000Y-81596542D01*
X122637403Y-81719223D01*
X122685271Y-81834785D01*
X122754764Y-81938789D01*
X122843211Y-82027236D01*
X122947215Y-82096729D01*
X123062777Y-82144597D01*
X123185458Y-82169000D01*
X123310542Y-82169000D01*
X123433223Y-82144597D01*
X123548785Y-82096729D01*
X123652789Y-82027236D01*
X123741236Y-81938789D01*
X123810729Y-81834785D01*
X123858597Y-81719223D01*
X123883000Y-81596542D01*
X123883000Y-81471458D01*
X123858597Y-81348777D01*
X123810729Y-81233215D01*
X123741236Y-81129211D01*
X123652789Y-81040764D01*
X123548785Y-80971271D01*
X123433223Y-80923403D01*
X123310542Y-80899000D01*
X123185458Y-80899000D01*
X123062777Y-80923403D01*
X122947215Y-80971271D01*
X122843211Y-81040764D01*
X122754764Y-81129211D01*
X122685271Y-81233215D01*
X122637403Y-81348777D01*
X122613000Y-81471458D01*
X95148000Y-81471458D01*
X95148000Y-75028400D01*
X95193500Y-75028400D01*
X95193500Y-75289600D01*
X95244457Y-75545780D01*
X95344414Y-75787097D01*
X95489529Y-76004276D01*
X95674224Y-76188971D01*
X95891403Y-76334086D01*
X96011500Y-76383832D01*
X96011501Y-79672546D01*
X96009043Y-79697500D01*
X96016452Y-79772715D01*
X96018852Y-79797085D01*
X96031734Y-79839552D01*
X96047900Y-79892843D01*
X96095071Y-79981095D01*
X96142650Y-80039070D01*
X96158553Y-80058448D01*
X96177930Y-80074350D01*
X96312657Y-80209077D01*
X96312657Y-80373500D01*
X96320013Y-80448189D01*
X96341799Y-80520008D01*
X96377178Y-80586196D01*
X96424789Y-80644211D01*
X96482804Y-80691822D01*
X96548992Y-80727201D01*
X96620811Y-80748987D01*
X96695500Y-80756343D01*
X97095500Y-80756343D01*
X97170189Y-80748987D01*
X97242008Y-80727201D01*
X97308196Y-80691822D01*
X97345500Y-80661208D01*
X97382804Y-80691822D01*
X97448992Y-80727201D01*
X97520811Y-80748987D01*
X97595500Y-80756343D01*
X97995500Y-80756343D01*
X98070189Y-80748987D01*
X98142008Y-80727201D01*
X98208196Y-80691822D01*
X98266211Y-80644211D01*
X98313822Y-80586196D01*
X98349201Y-80520008D01*
X98370987Y-80448189D01*
X98378343Y-80373500D01*
X98378343Y-80325726D01*
X98406097Y-80258723D01*
X98430500Y-80136042D01*
X98430500Y-80010958D01*
X98406097Y-79888277D01*
X98378343Y-79821274D01*
X98378343Y-79773500D01*
X98370987Y-79698811D01*
X98349201Y-79626992D01*
X98313822Y-79560804D01*
X98266211Y-79502789D01*
X98208196Y-79455178D01*
X98142008Y-79419799D01*
X98070189Y-79398013D01*
X97995500Y-79390657D01*
X97595500Y-79390657D01*
X97520811Y-79398013D01*
X97448992Y-79419799D01*
X97382804Y-79455178D01*
X97345500Y-79485792D01*
X97308196Y-79455178D01*
X97242008Y-79419799D01*
X97170189Y-79398013D01*
X97095500Y-79390657D01*
X97027500Y-79390657D01*
X97027500Y-78562247D01*
X97194224Y-78728971D01*
X97411403Y-78874086D01*
X97652720Y-78974043D01*
X97908900Y-79025000D01*
X98170100Y-79025000D01*
X98426280Y-78974043D01*
X98667597Y-78874086D01*
X98884776Y-78728971D01*
X99069471Y-78544276D01*
X99214586Y-78327097D01*
X99314543Y-78085780D01*
X99365500Y-77829600D01*
X99365500Y-77568400D01*
X99314543Y-77312220D01*
X99214586Y-77070903D01*
X99094663Y-76891426D01*
X99413500Y-76891426D01*
X99413500Y-77286574D01*
X99490590Y-77674129D01*
X99641806Y-78039197D01*
X99861338Y-78367750D01*
X100140750Y-78647162D01*
X100469303Y-78866694D01*
X100834371Y-79017910D01*
X101221926Y-79095000D01*
X101617074Y-79095000D01*
X102004629Y-79017910D01*
X102369697Y-78866694D01*
X102698250Y-78647162D01*
X102970733Y-78374679D01*
X102853100Y-78658670D01*
X102788500Y-78983436D01*
X102788500Y-79314564D01*
X102853100Y-79639330D01*
X102979817Y-79945252D01*
X103163782Y-80220575D01*
X103397925Y-80454718D01*
X103673248Y-80638683D01*
X103979170Y-80765400D01*
X104303936Y-80830000D01*
X104635064Y-80830000D01*
X104959830Y-80765400D01*
X105265752Y-80638683D01*
X105541075Y-80454718D01*
X105775218Y-80220575D01*
X105959183Y-79945252D01*
X106085900Y-79639330D01*
X106150500Y-79314564D01*
X106150500Y-79058458D01*
X116512000Y-79058458D01*
X116512000Y-79183542D01*
X116536403Y-79306223D01*
X116584271Y-79421785D01*
X116653764Y-79525789D01*
X116742211Y-79614236D01*
X116846215Y-79683729D01*
X116961777Y-79731597D01*
X117084458Y-79756000D01*
X117209542Y-79756000D01*
X117332223Y-79731597D01*
X117447785Y-79683729D01*
X117551789Y-79614236D01*
X117640236Y-79525789D01*
X117709729Y-79421785D01*
X117757597Y-79306223D01*
X117782000Y-79183542D01*
X117782000Y-79058458D01*
X117757597Y-78935777D01*
X117709729Y-78820215D01*
X117640236Y-78716211D01*
X117551789Y-78627764D01*
X117447785Y-78558271D01*
X117332223Y-78510403D01*
X117209542Y-78486000D01*
X117084458Y-78486000D01*
X116961777Y-78510403D01*
X116846215Y-78558271D01*
X116742211Y-78627764D01*
X116653764Y-78716211D01*
X116584271Y-78820215D01*
X116536403Y-78935777D01*
X116512000Y-79058458D01*
X106150500Y-79058458D01*
X106150500Y-78983436D01*
X106085900Y-78658670D01*
X105959183Y-78352748D01*
X105775218Y-78077425D01*
X105541075Y-77843282D01*
X105265752Y-77659317D01*
X105070539Y-77578457D01*
X120390500Y-77578457D01*
X120390500Y-77703541D01*
X120414903Y-77826222D01*
X120462771Y-77941784D01*
X120532264Y-78045788D01*
X120620711Y-78134235D01*
X120724715Y-78203728D01*
X120840277Y-78251596D01*
X120909153Y-78265297D01*
X120845777Y-78277903D01*
X120730215Y-78325771D01*
X120626211Y-78395264D01*
X120537764Y-78483711D01*
X120468271Y-78587715D01*
X120420403Y-78703277D01*
X120396000Y-78825958D01*
X120396000Y-78951042D01*
X120420403Y-79073723D01*
X120468271Y-79189285D01*
X120537764Y-79293289D01*
X120626211Y-79381736D01*
X120711165Y-79438500D01*
X120626211Y-79495264D01*
X120537764Y-79583711D01*
X120468271Y-79687715D01*
X120420403Y-79803277D01*
X120396000Y-79925958D01*
X120396000Y-80051042D01*
X120420403Y-80173723D01*
X120468271Y-80289285D01*
X120537764Y-80393289D01*
X120626211Y-80481736D01*
X120730215Y-80551229D01*
X120845777Y-80599097D01*
X120968458Y-80623500D01*
X121093542Y-80623500D01*
X121216223Y-80599097D01*
X121331785Y-80551229D01*
X121435789Y-80481736D01*
X121475500Y-80442025D01*
X121515211Y-80481736D01*
X121619215Y-80551229D01*
X121734777Y-80599097D01*
X121857458Y-80623500D01*
X121982542Y-80623500D01*
X122105223Y-80599097D01*
X122220785Y-80551229D01*
X122324789Y-80481736D01*
X122413236Y-80393289D01*
X122482729Y-80289285D01*
X122530597Y-80173723D01*
X122555000Y-80051042D01*
X122555000Y-79925958D01*
X122530597Y-79803277D01*
X122482729Y-79687715D01*
X122413236Y-79583711D01*
X122324789Y-79495264D01*
X122220785Y-79425771D01*
X122105223Y-79377903D01*
X121982542Y-79353500D01*
X121857458Y-79353500D01*
X121734777Y-79377903D01*
X121619215Y-79425771D01*
X121515211Y-79495264D01*
X121475500Y-79534975D01*
X121435789Y-79495264D01*
X121350835Y-79438500D01*
X121435789Y-79381736D01*
X121524236Y-79293289D01*
X121593729Y-79189285D01*
X121641597Y-79073723D01*
X121666000Y-78951042D01*
X121666000Y-78825958D01*
X121641597Y-78703277D01*
X121593729Y-78587715D01*
X121524236Y-78483711D01*
X121435789Y-78395264D01*
X121331785Y-78325771D01*
X121216223Y-78277903D01*
X121147347Y-78264202D01*
X121210723Y-78251596D01*
X121326285Y-78203728D01*
X121430289Y-78134235D01*
X121518736Y-78045788D01*
X121588229Y-77941784D01*
X121636097Y-77826222D01*
X121660500Y-77703541D01*
X121660500Y-77578457D01*
X121636097Y-77455776D01*
X121588229Y-77340214D01*
X121518736Y-77236210D01*
X121430289Y-77147763D01*
X121326285Y-77078270D01*
X121210723Y-77030402D01*
X121088042Y-77005999D01*
X120962958Y-77005999D01*
X120840277Y-77030402D01*
X120724715Y-77078270D01*
X120620711Y-77147763D01*
X120532264Y-77236210D01*
X120462771Y-77340214D01*
X120414903Y-77455776D01*
X120390500Y-77578457D01*
X105070539Y-77578457D01*
X104959830Y-77532600D01*
X104635064Y-77468000D01*
X104303936Y-77468000D01*
X103979170Y-77532600D01*
X103673248Y-77659317D01*
X103397925Y-77843282D01*
X103187496Y-78053711D01*
X103197194Y-78039197D01*
X103348410Y-77674129D01*
X103425500Y-77286574D01*
X103425500Y-76891426D01*
X103348410Y-76503871D01*
X103197194Y-76138803D01*
X102977662Y-75810250D01*
X102698250Y-75530838D01*
X102369697Y-75311306D01*
X102004629Y-75160090D01*
X101617074Y-75083000D01*
X101221926Y-75083000D01*
X100834371Y-75160090D01*
X100469303Y-75311306D01*
X100140750Y-75530838D01*
X99861338Y-75810250D01*
X99641806Y-76138803D01*
X99490590Y-76503871D01*
X99413500Y-76891426D01*
X99094663Y-76891426D01*
X99069471Y-76853724D01*
X98884776Y-76669029D01*
X98667597Y-76523914D01*
X98426280Y-76423957D01*
X98170100Y-76373000D01*
X97908900Y-76373000D01*
X97652720Y-76423957D01*
X97411403Y-76523914D01*
X97194224Y-76669029D01*
X97027500Y-76835753D01*
X97027500Y-76383832D01*
X97147597Y-76334086D01*
X97364776Y-76188971D01*
X97549471Y-76004276D01*
X97694586Y-75787097D01*
X97794543Y-75545780D01*
X97845500Y-75289600D01*
X97845500Y-75028400D01*
X97794543Y-74772220D01*
X97694586Y-74530903D01*
X97619085Y-74417908D01*
X106428500Y-74417908D01*
X106428500Y-74680092D01*
X106479650Y-74937238D01*
X106579983Y-75179465D01*
X106725645Y-75397463D01*
X106911037Y-75582855D01*
X107129035Y-75728517D01*
X107371262Y-75828850D01*
X107628408Y-75880000D01*
X107890592Y-75880000D01*
X108147738Y-75828850D01*
X108389965Y-75728517D01*
X108607963Y-75582855D01*
X108793355Y-75397463D01*
X108939017Y-75179465D01*
X109039350Y-74937238D01*
X109090500Y-74680092D01*
X109090500Y-74417908D01*
X109039350Y-74160762D01*
X108939017Y-73918535D01*
X108793355Y-73700537D01*
X108607963Y-73515145D01*
X108389965Y-73369483D01*
X108147738Y-73269150D01*
X107890592Y-73218000D01*
X107628408Y-73218000D01*
X107371262Y-73269150D01*
X107129035Y-73369483D01*
X106911037Y-73515145D01*
X106725645Y-73700537D01*
X106579983Y-73918535D01*
X106479650Y-74160762D01*
X106428500Y-74417908D01*
X97619085Y-74417908D01*
X97549471Y-74313724D01*
X97364776Y-74129029D01*
X97147597Y-73983914D01*
X96906280Y-73883957D01*
X96650100Y-73833000D01*
X96388900Y-73833000D01*
X96132720Y-73883957D01*
X95891403Y-73983914D01*
X95674224Y-74129029D01*
X95489529Y-74313724D01*
X95344414Y-74530903D01*
X95244457Y-74772220D01*
X95193500Y-75028400D01*
X95148000Y-75028400D01*
X95148000Y-73147908D01*
X108968500Y-73147908D01*
X108968500Y-73410092D01*
X109019650Y-73667238D01*
X109119983Y-73909465D01*
X109265645Y-74127463D01*
X109451037Y-74312855D01*
X109669035Y-74458517D01*
X109887482Y-74549000D01*
X109669035Y-74639483D01*
X109451037Y-74785145D01*
X109265645Y-74970537D01*
X109119983Y-75188535D01*
X109019650Y-75430762D01*
X108968500Y-75687908D01*
X108968500Y-75950092D01*
X109019650Y-76207238D01*
X109119983Y-76449465D01*
X109265645Y-76667463D01*
X109451037Y-76852855D01*
X109669035Y-76998517D01*
X109911262Y-77098850D01*
X110168408Y-77150000D01*
X110430592Y-77150000D01*
X110687738Y-77098850D01*
X110929965Y-76998517D01*
X111147963Y-76852855D01*
X111333355Y-76667463D01*
X111479017Y-76449465D01*
X111579350Y-76207238D01*
X111630500Y-75950092D01*
X111630500Y-75687908D01*
X111628331Y-75677000D01*
X123459657Y-75677000D01*
X123459657Y-76077000D01*
X123467013Y-76151689D01*
X123488799Y-76223508D01*
X123524178Y-76289696D01*
X123554792Y-76327000D01*
X123524178Y-76364304D01*
X123488799Y-76430492D01*
X123467013Y-76502311D01*
X123459657Y-76577000D01*
X123459657Y-76977000D01*
X123467013Y-77051689D01*
X123488799Y-77123508D01*
X123524178Y-77189696D01*
X123571789Y-77247711D01*
X123629804Y-77295322D01*
X123695992Y-77330701D01*
X123767811Y-77352487D01*
X123842148Y-77359808D01*
X123957277Y-77407497D01*
X124079958Y-77431900D01*
X124205042Y-77431900D01*
X124327723Y-77407497D01*
X124442852Y-77359808D01*
X124517189Y-77352487D01*
X124589008Y-77330701D01*
X124655196Y-77295322D01*
X124713211Y-77247711D01*
X124760822Y-77189696D01*
X124796201Y-77123508D01*
X124817987Y-77051689D01*
X124825343Y-76977000D01*
X124825343Y-76577000D01*
X124817987Y-76502311D01*
X124805105Y-76459843D01*
X125395000Y-76459843D01*
X125469689Y-76452487D01*
X125541508Y-76430701D01*
X125607696Y-76395322D01*
X125665711Y-76347711D01*
X125713322Y-76289696D01*
X125748701Y-76223508D01*
X125770487Y-76151689D01*
X125777843Y-76077000D01*
X125777843Y-75677000D01*
X125770487Y-75602311D01*
X125748701Y-75530492D01*
X125713322Y-75464304D01*
X125665711Y-75406289D01*
X125607696Y-75358678D01*
X125603000Y-75356168D01*
X125603000Y-75308137D01*
X125604000Y-75305723D01*
X125628403Y-75183042D01*
X125628403Y-75057958D01*
X125604000Y-74935277D01*
X125556132Y-74819715D01*
X125486639Y-74715711D01*
X125398192Y-74627264D01*
X125294188Y-74557771D01*
X125178626Y-74509903D01*
X125055945Y-74485500D01*
X124930861Y-74485500D01*
X124808180Y-74509903D01*
X124692618Y-74557771D01*
X124663201Y-74577426D01*
X124633785Y-74557771D01*
X124518223Y-74509903D01*
X124395542Y-74485500D01*
X124270458Y-74485500D01*
X124147777Y-74509903D01*
X124032215Y-74557771D01*
X123928211Y-74627264D01*
X123839764Y-74715711D01*
X123770271Y-74819715D01*
X123722403Y-74935277D01*
X123698000Y-75057958D01*
X123698000Y-75064956D01*
X123671132Y-75115223D01*
X123670900Y-75115657D01*
X123646180Y-75197150D01*
X123641852Y-75211416D01*
X123632043Y-75311000D01*
X123634501Y-75335954D01*
X123634501Y-75356167D01*
X123629804Y-75358678D01*
X123571789Y-75406289D01*
X123524178Y-75464304D01*
X123488799Y-75530492D01*
X123467013Y-75602311D01*
X123459657Y-75677000D01*
X111628331Y-75677000D01*
X111579350Y-75430762D01*
X111479017Y-75188535D01*
X111333355Y-74970537D01*
X111230276Y-74867458D01*
X120227000Y-74867458D01*
X120227000Y-74992542D01*
X120251403Y-75115223D01*
X120299271Y-75230785D01*
X120368764Y-75334789D01*
X120457211Y-75423236D01*
X120561215Y-75492729D01*
X120676777Y-75540597D01*
X120799458Y-75565000D01*
X120924542Y-75565000D01*
X121047223Y-75540597D01*
X121162785Y-75492729D01*
X121266789Y-75423236D01*
X121355236Y-75334789D01*
X121424729Y-75230785D01*
X121472597Y-75115223D01*
X121497000Y-74992542D01*
X121497000Y-74867458D01*
X121472597Y-74744777D01*
X121424729Y-74629215D01*
X121355236Y-74525211D01*
X121289143Y-74459118D01*
X121366789Y-74407236D01*
X121455236Y-74318789D01*
X121524729Y-74214785D01*
X121572597Y-74099223D01*
X121597000Y-73976542D01*
X121597000Y-73851458D01*
X121572597Y-73728777D01*
X121524729Y-73613215D01*
X121455236Y-73509211D01*
X121366789Y-73420764D01*
X121262785Y-73351271D01*
X121147223Y-73303403D01*
X121024542Y-73279000D01*
X120899458Y-73279000D01*
X120776777Y-73303403D01*
X120661215Y-73351271D01*
X120557211Y-73420764D01*
X120468764Y-73509211D01*
X120399271Y-73613215D01*
X120351403Y-73728777D01*
X120327000Y-73851458D01*
X120327000Y-73976542D01*
X120351403Y-74099223D01*
X120399271Y-74214785D01*
X120468764Y-74318789D01*
X120534857Y-74384882D01*
X120457211Y-74436764D01*
X120368764Y-74525211D01*
X120299271Y-74629215D01*
X120251403Y-74744777D01*
X120227000Y-74867458D01*
X111230276Y-74867458D01*
X111147963Y-74785145D01*
X110929965Y-74639483D01*
X110711518Y-74549000D01*
X110929965Y-74458517D01*
X111147963Y-74312855D01*
X111333355Y-74127463D01*
X111479017Y-73909465D01*
X111579350Y-73667238D01*
X111630500Y-73410092D01*
X111630500Y-73147908D01*
X111579350Y-72890762D01*
X111479017Y-72648535D01*
X111333355Y-72430537D01*
X111147963Y-72245145D01*
X110929965Y-72099483D01*
X110687738Y-71999150D01*
X110430592Y-71948000D01*
X110168408Y-71948000D01*
X109911262Y-71999150D01*
X109669035Y-72099483D01*
X109451037Y-72245145D01*
X109265645Y-72430537D01*
X109119983Y-72648535D01*
X109019650Y-72890762D01*
X108968500Y-73147908D01*
X95148000Y-73147908D01*
X95148000Y-67458400D01*
X96713500Y-67458400D01*
X96713500Y-67719600D01*
X96764457Y-67975780D01*
X96864414Y-68217097D01*
X97009529Y-68434276D01*
X97194224Y-68618971D01*
X97411403Y-68764086D01*
X97652720Y-68864043D01*
X97908900Y-68915000D01*
X98170100Y-68915000D01*
X98426280Y-68864043D01*
X98667597Y-68764086D01*
X98884776Y-68618971D01*
X99069471Y-68434276D01*
X99214586Y-68217097D01*
X99314543Y-67975780D01*
X99365500Y-67719600D01*
X99365500Y-67458400D01*
X99314543Y-67202220D01*
X99214586Y-66960903D01*
X99069471Y-66743724D01*
X98884776Y-66559029D01*
X98667597Y-66413914D01*
X98426280Y-66313957D01*
X98170100Y-66263000D01*
X97908900Y-66263000D01*
X97652720Y-66313957D01*
X97411403Y-66413914D01*
X97194224Y-66559029D01*
X97009529Y-66743724D01*
X96864414Y-66960903D01*
X96764457Y-67202220D01*
X96713500Y-67458400D01*
X95148000Y-67458400D01*
X95148000Y-64918400D01*
X95193500Y-64918400D01*
X95193500Y-65179600D01*
X95244457Y-65435780D01*
X95344414Y-65677097D01*
X95489529Y-65894276D01*
X95674224Y-66078971D01*
X95891403Y-66224086D01*
X96132720Y-66324043D01*
X96388900Y-66375000D01*
X96650100Y-66375000D01*
X96906280Y-66324043D01*
X97147597Y-66224086D01*
X97364776Y-66078971D01*
X97549471Y-65894276D01*
X97694586Y-65677097D01*
X97783920Y-65461426D01*
X99413500Y-65461426D01*
X99413500Y-65856574D01*
X99490590Y-66244129D01*
X99641806Y-66609197D01*
X99861338Y-66937750D01*
X100140750Y-67217162D01*
X100469303Y-67436694D01*
X100834371Y-67587910D01*
X101221926Y-67665000D01*
X101617074Y-67665000D01*
X102004629Y-67587910D01*
X102369697Y-67436694D01*
X102698250Y-67217162D01*
X102977662Y-66937750D01*
X103197194Y-66609197D01*
X103348410Y-66244129D01*
X103401147Y-65979000D01*
X106426657Y-65979000D01*
X106426657Y-67879000D01*
X106434013Y-67953689D01*
X106455799Y-68025508D01*
X106491178Y-68091696D01*
X106538789Y-68149711D01*
X106596804Y-68197322D01*
X106662992Y-68232701D01*
X106734811Y-68254487D01*
X106809500Y-68261843D01*
X107195764Y-68261843D01*
X107129035Y-68289483D01*
X106911037Y-68435145D01*
X106725645Y-68620537D01*
X106579983Y-68838535D01*
X106479650Y-69080762D01*
X106428500Y-69337908D01*
X106428500Y-69600092D01*
X106479650Y-69857238D01*
X106579983Y-70099465D01*
X106725645Y-70317463D01*
X106911037Y-70502855D01*
X107129035Y-70648517D01*
X107371262Y-70748850D01*
X107628408Y-70800000D01*
X107890592Y-70800000D01*
X108147738Y-70748850D01*
X108322508Y-70676458D01*
X113961000Y-70676458D01*
X113961000Y-70801542D01*
X113985403Y-70924223D01*
X114033271Y-71039785D01*
X114102764Y-71143789D01*
X114191211Y-71232236D01*
X114295215Y-71301729D01*
X114410777Y-71349597D01*
X114533458Y-71374000D01*
X114658542Y-71374000D01*
X114781223Y-71349597D01*
X114896785Y-71301729D01*
X115000789Y-71232236D01*
X115089236Y-71143789D01*
X115158729Y-71039785D01*
X115206597Y-70924223D01*
X115231000Y-70801542D01*
X115231000Y-70676458D01*
X115206597Y-70553777D01*
X115158729Y-70438215D01*
X115148201Y-70422458D01*
X120227000Y-70422458D01*
X120227000Y-70547542D01*
X120251403Y-70670223D01*
X120299271Y-70785785D01*
X120368764Y-70889789D01*
X120457211Y-70978236D01*
X120561215Y-71047729D01*
X120676777Y-71095597D01*
X120799458Y-71120000D01*
X120924542Y-71120000D01*
X121047223Y-71095597D01*
X121162785Y-71047729D01*
X121266789Y-70978236D01*
X121355236Y-70889789D01*
X121424729Y-70785785D01*
X121472597Y-70670223D01*
X121497000Y-70547542D01*
X121497000Y-70422458D01*
X121472597Y-70299777D01*
X121424729Y-70184215D01*
X121355236Y-70080211D01*
X121266789Y-69991764D01*
X121162785Y-69922271D01*
X121047223Y-69874403D01*
X120924542Y-69850000D01*
X120799458Y-69850000D01*
X120676777Y-69874403D01*
X120561215Y-69922271D01*
X120457211Y-69991764D01*
X120368764Y-70080211D01*
X120299271Y-70184215D01*
X120251403Y-70299777D01*
X120227000Y-70422458D01*
X115148201Y-70422458D01*
X115089236Y-70334211D01*
X115000789Y-70245764D01*
X114896785Y-70176271D01*
X114781223Y-70128403D01*
X114658542Y-70104000D01*
X114533458Y-70104000D01*
X114410777Y-70128403D01*
X114295215Y-70176271D01*
X114191211Y-70245764D01*
X114102764Y-70334211D01*
X114033271Y-70438215D01*
X113985403Y-70553777D01*
X113961000Y-70676458D01*
X108322508Y-70676458D01*
X108389965Y-70648517D01*
X108607963Y-70502855D01*
X108793355Y-70317463D01*
X108939017Y-70099465D01*
X109039350Y-69857238D01*
X109090500Y-69600092D01*
X109090500Y-69337908D01*
X109039350Y-69080762D01*
X108939017Y-68838535D01*
X108793355Y-68620537D01*
X108607963Y-68435145D01*
X108389965Y-68289483D01*
X108323236Y-68261843D01*
X108709500Y-68261843D01*
X108784189Y-68254487D01*
X108856008Y-68232701D01*
X108922196Y-68197322D01*
X108968500Y-68159322D01*
X108968500Y-68330092D01*
X109019650Y-68587238D01*
X109119983Y-68829465D01*
X109265645Y-69047463D01*
X109451037Y-69232855D01*
X109669035Y-69378517D01*
X109911262Y-69478850D01*
X110168408Y-69530000D01*
X110430592Y-69530000D01*
X110687738Y-69478850D01*
X110929965Y-69378517D01*
X111147963Y-69232855D01*
X111333355Y-69047463D01*
X111479017Y-68829465D01*
X111579350Y-68587238D01*
X111630500Y-68330092D01*
X111630500Y-68067908D01*
X111579350Y-67810762D01*
X111479017Y-67568535D01*
X111333355Y-67350537D01*
X111147963Y-67165145D01*
X110929965Y-67019483D01*
X110687738Y-66919150D01*
X110430592Y-66868000D01*
X110168408Y-66868000D01*
X109911262Y-66919150D01*
X109669035Y-67019483D01*
X109451037Y-67165145D01*
X109265645Y-67350537D01*
X109119983Y-67568535D01*
X109092343Y-67635264D01*
X109092343Y-65979000D01*
X109084987Y-65904311D01*
X109063201Y-65832492D01*
X109027822Y-65766304D01*
X108980211Y-65708289D01*
X108922196Y-65660678D01*
X108856008Y-65625299D01*
X108784189Y-65603513D01*
X108709500Y-65596157D01*
X106809500Y-65596157D01*
X106734811Y-65603513D01*
X106662992Y-65625299D01*
X106596804Y-65660678D01*
X106538789Y-65708289D01*
X106491178Y-65766304D01*
X106455799Y-65832492D01*
X106434013Y-65904311D01*
X106426657Y-65979000D01*
X103401147Y-65979000D01*
X103425500Y-65856574D01*
X103425500Y-65461426D01*
X103348410Y-65073871D01*
X103197194Y-64708803D01*
X103187496Y-64694289D01*
X103397925Y-64904718D01*
X103673248Y-65088683D01*
X103979170Y-65215400D01*
X104303936Y-65280000D01*
X104635064Y-65280000D01*
X104959830Y-65215400D01*
X105265752Y-65088683D01*
X105541075Y-64904718D01*
X105775218Y-64670575D01*
X105959183Y-64395252D01*
X106085900Y-64089330D01*
X106150500Y-63764564D01*
X106150500Y-63433436D01*
X106085900Y-63108670D01*
X105959183Y-62802748D01*
X105775218Y-62527425D01*
X105541075Y-62293282D01*
X105265752Y-62109317D01*
X104959830Y-61982600D01*
X104635064Y-61918000D01*
X104303936Y-61918000D01*
X103979170Y-61982600D01*
X103673248Y-62109317D01*
X103397925Y-62293282D01*
X103163782Y-62527425D01*
X102979817Y-62802748D01*
X102853100Y-63108670D01*
X102788500Y-63433436D01*
X102788500Y-63764564D01*
X102853100Y-64089330D01*
X102970733Y-64373321D01*
X102698250Y-64100838D01*
X102369697Y-63881306D01*
X102004629Y-63730090D01*
X101617074Y-63653000D01*
X101221926Y-63653000D01*
X100834371Y-63730090D01*
X100469303Y-63881306D01*
X100140750Y-64100838D01*
X99861338Y-64380250D01*
X99641806Y-64708803D01*
X99490590Y-65073871D01*
X99413500Y-65461426D01*
X97783920Y-65461426D01*
X97794543Y-65435780D01*
X97845500Y-65179600D01*
X97845500Y-64918400D01*
X97794543Y-64662220D01*
X97694586Y-64420903D01*
X97549471Y-64203724D01*
X97364776Y-64019029D01*
X97340000Y-64002474D01*
X97340000Y-63136274D01*
X97350322Y-63123696D01*
X97385701Y-63057508D01*
X97407487Y-62985689D01*
X97414843Y-62911000D01*
X97414843Y-62311000D01*
X97407487Y-62236311D01*
X97385701Y-62164492D01*
X97350322Y-62098304D01*
X97302711Y-62040289D01*
X97244696Y-61992678D01*
X97178508Y-61957299D01*
X97106689Y-61935513D01*
X97032000Y-61928157D01*
X96632000Y-61928157D01*
X96557311Y-61935513D01*
X96485492Y-61957299D01*
X96419304Y-61992678D01*
X96361289Y-62040289D01*
X96313678Y-62098304D01*
X96278299Y-62164492D01*
X96256513Y-62236311D01*
X96249157Y-62311000D01*
X96249157Y-62911000D01*
X96256513Y-62985689D01*
X96278299Y-63057508D01*
X96313678Y-63123696D01*
X96324000Y-63136274D01*
X96324001Y-63735909D01*
X96132720Y-63773957D01*
X95891403Y-63873914D01*
X95674224Y-64019029D01*
X95489529Y-64203724D01*
X95344414Y-64420903D01*
X95244457Y-64662220D01*
X95193500Y-64918400D01*
X95148000Y-64918400D01*
X95148000Y-61722000D01*
X119131046Y-61722000D01*
X119237080Y-61977987D01*
X119237080Y-61977987D01*
G37*
X119237080Y-61977987D02*
X119442932Y-62286067D01*
X119704933Y-62548068D01*
X120013013Y-62753920D01*
X120355333Y-62895714D01*
X120718738Y-62968000D01*
X121089262Y-62968000D01*
X121452667Y-62895714D01*
X121794987Y-62753920D01*
X122103067Y-62548068D01*
X122365068Y-62286067D01*
X122570920Y-61977987D01*
X122676954Y-61722000D01*
X125971490Y-61722000D01*
X126031649Y-61733967D01*
X126072043Y-61760957D01*
X126099033Y-61801351D01*
X126111000Y-61861510D01*
X126111000Y-68949739D01*
X126109048Y-68945027D01*
X126039555Y-68841023D01*
X125951108Y-68752576D01*
X125847104Y-68683083D01*
X125731542Y-68635215D01*
X125608861Y-68610812D01*
X125483777Y-68610812D01*
X125361096Y-68635215D01*
X125245534Y-68683083D01*
X125163626Y-68737812D01*
X123431232Y-68737812D01*
X123253500Y-68560080D01*
X123253500Y-67588943D01*
X123255957Y-67563999D01*
X123253500Y-67539053D01*
X123246149Y-67464415D01*
X123217101Y-67368657D01*
X123184064Y-67306850D01*
X123169929Y-67280404D01*
X123122350Y-67222429D01*
X123106448Y-67203052D01*
X123087070Y-67187149D01*
X122672355Y-66772434D01*
X122656448Y-66753052D01*
X122579095Y-66689571D01*
X122490843Y-66642399D01*
X122395085Y-66613351D01*
X122320447Y-66606000D01*
X122320444Y-66606000D01*
X122295500Y-66603543D01*
X122270556Y-66606000D01*
X122254774Y-66606000D01*
X122242196Y-66595678D01*
X122176008Y-66560299D01*
X122104189Y-66538513D01*
X122029500Y-66531157D01*
X121981726Y-66531157D01*
X121914723Y-66503403D01*
X121792042Y-66479000D01*
X121666958Y-66479000D01*
X121544277Y-66503403D01*
X121477274Y-66531157D01*
X121429500Y-66531157D01*
X121354811Y-66538513D01*
X121282992Y-66560299D01*
X121221500Y-66593168D01*
X121160008Y-66560299D01*
X121088189Y-66538513D01*
X121013500Y-66531157D01*
X120413500Y-66531157D01*
X120338811Y-66538513D01*
X120266992Y-66560299D01*
X120247746Y-66570587D01*
X120206736Y-66509211D01*
X120118289Y-66420764D01*
X120014285Y-66351271D01*
X119898723Y-66303403D01*
X119776042Y-66279000D01*
X119650958Y-66279000D01*
X119528277Y-66303403D01*
X119412715Y-66351271D01*
X119308711Y-66420764D01*
X119220264Y-66509211D01*
X119150771Y-66613215D01*
X119144249Y-66628960D01*
X119126789Y-66643289D01*
X119079178Y-66701304D01*
X119043799Y-66767492D01*
X119022013Y-66839311D01*
X119014657Y-66914000D01*
X119014657Y-67314000D01*
X119022013Y-67388689D01*
X119043799Y-67460508D01*
X119065176Y-67500500D01*
X119064193Y-67500500D01*
X118982285Y-67445771D01*
X118866723Y-67397903D01*
X118744042Y-67373500D01*
X118618958Y-67373500D01*
X118496277Y-67397903D01*
X118380715Y-67445771D01*
X118276711Y-67515264D01*
X118188264Y-67603711D01*
X118118771Y-67707715D01*
X118070903Y-67823277D01*
X118046500Y-67945958D01*
X118046500Y-68071042D01*
X118070903Y-68193723D01*
X118118771Y-68309285D01*
X118188264Y-68413289D01*
X118276711Y-68501736D01*
X118380715Y-68571229D01*
X118496277Y-68619097D01*
X118618958Y-68643500D01*
X118744042Y-68643500D01*
X118866723Y-68619097D01*
X118982285Y-68571229D01*
X119064193Y-68516500D01*
X119165525Y-68516500D01*
X119184804Y-68532322D01*
X119250992Y-68567701D01*
X119322811Y-68589487D01*
X119397500Y-68596843D01*
X119997500Y-68596843D01*
X120072189Y-68589487D01*
X120144008Y-68567701D01*
X120151571Y-68563658D01*
X120166403Y-68638223D01*
X120214271Y-68753785D01*
X120283764Y-68857789D01*
X120372211Y-68946236D01*
X120476215Y-69015729D01*
X120591777Y-69063597D01*
X120714458Y-69088000D01*
X120839542Y-69088000D01*
X120962223Y-69063597D01*
X121077785Y-69015729D01*
X121181789Y-68946236D01*
X121270236Y-68857789D01*
X121339729Y-68753785D01*
X121387597Y-68638223D01*
X121396475Y-68593590D01*
X121429500Y-68596843D01*
X122029500Y-68596843D01*
X122104189Y-68589487D01*
X122176008Y-68567701D01*
X122237500Y-68534832D01*
X122237500Y-68745555D01*
X122235043Y-68770500D01*
X122237500Y-68795444D01*
X122237500Y-68795446D01*
X122244851Y-68870084D01*
X122273899Y-68965842D01*
X122321071Y-69054095D01*
X122384552Y-69131448D01*
X122403935Y-69147355D01*
X122843957Y-69587377D01*
X122859864Y-69606760D01*
X122937217Y-69670241D01*
X123025469Y-69717413D01*
X123121227Y-69746461D01*
X123195865Y-69753812D01*
X123195868Y-69753812D01*
X123220812Y-69756269D01*
X123245756Y-69753812D01*
X125163626Y-69753812D01*
X125245534Y-69808541D01*
X125361096Y-69856409D01*
X125483777Y-69880812D01*
X125608861Y-69880812D01*
X125731542Y-69856409D01*
X125847104Y-69808541D01*
X125951108Y-69739048D01*
X126039555Y-69650601D01*
X126109048Y-69546597D01*
X126111000Y-69541885D01*
X126111000Y-71012940D01*
X126094285Y-71001771D01*
X125978723Y-70953903D01*
X125856042Y-70929500D01*
X125730958Y-70929500D01*
X125608277Y-70953903D01*
X125492715Y-71001771D01*
X125476000Y-71012940D01*
X125459285Y-71001771D01*
X125343723Y-70953903D01*
X125221042Y-70929500D01*
X125095958Y-70929500D01*
X124973277Y-70953903D01*
X124857715Y-71001771D01*
X124841000Y-71012940D01*
X124824285Y-71001771D01*
X124708723Y-70953903D01*
X124586042Y-70929500D01*
X124460958Y-70929500D01*
X124338277Y-70953903D01*
X124222715Y-71001771D01*
X124118711Y-71071264D01*
X124030264Y-71159711D01*
X123960771Y-71263715D01*
X123912903Y-71379277D01*
X123888500Y-71501958D01*
X123888500Y-71627042D01*
X123912903Y-71749723D01*
X123960771Y-71865285D01*
X123971940Y-71882000D01*
X123960771Y-71898715D01*
X123912903Y-72014277D01*
X123888500Y-72136958D01*
X123888500Y-72262042D01*
X123912903Y-72384723D01*
X123960771Y-72500285D01*
X123971940Y-72517000D01*
X123960771Y-72533715D01*
X123912903Y-72649277D01*
X123888500Y-72771958D01*
X123888500Y-72897042D01*
X123912903Y-73019723D01*
X123960771Y-73135285D01*
X124030264Y-73239289D01*
X124118711Y-73327736D01*
X124222715Y-73397229D01*
X124338277Y-73445097D01*
X124460958Y-73469500D01*
X124586042Y-73469500D01*
X124708723Y-73445097D01*
X124824285Y-73397229D01*
X124841000Y-73386060D01*
X124857715Y-73397229D01*
X124973277Y-73445097D01*
X125095958Y-73469500D01*
X125221042Y-73469500D01*
X125343723Y-73445097D01*
X125459285Y-73397229D01*
X125476000Y-73386060D01*
X125492715Y-73397229D01*
X125608277Y-73445097D01*
X125730958Y-73469500D01*
X125856042Y-73469500D01*
X125978723Y-73445097D01*
X126094285Y-73397229D01*
X126111000Y-73386060D01*
X126111000Y-77492079D01*
X125813423Y-77789657D01*
X125599000Y-77789657D01*
X125524311Y-77797013D01*
X125452492Y-77818799D01*
X125386304Y-77854178D01*
X125349000Y-77884792D01*
X125311696Y-77854178D01*
X125245508Y-77818799D01*
X125173689Y-77797013D01*
X125099000Y-77789657D01*
X124499000Y-77789657D01*
X124424311Y-77797013D01*
X124417397Y-77799110D01*
X124361542Y-77788000D01*
X124236458Y-77788000D01*
X124113777Y-77812403D01*
X123998215Y-77860271D01*
X123894211Y-77929764D01*
X123805764Y-78018211D01*
X123736271Y-78122215D01*
X123688403Y-78237777D01*
X123664000Y-78360458D01*
X123664000Y-78485542D01*
X123688403Y-78608223D01*
X123736271Y-78723785D01*
X123805764Y-78827789D01*
X123894211Y-78916236D01*
X123998215Y-78985729D01*
X124113777Y-79033597D01*
X124118807Y-79034597D01*
X124116157Y-79061500D01*
X124116157Y-79561500D01*
X124123513Y-79636189D01*
X124145299Y-79708008D01*
X124170952Y-79756000D01*
X124145299Y-79803992D01*
X124123513Y-79875811D01*
X124116157Y-79950500D01*
X124116157Y-80450500D01*
X124123513Y-80525189D01*
X124145299Y-80597008D01*
X124180678Y-80663196D01*
X124228289Y-80721211D01*
X124286304Y-80768822D01*
X124291001Y-80771332D01*
X124291001Y-81218546D01*
X124288543Y-81243500D01*
X124298352Y-81343084D01*
X124316157Y-81401780D01*
X124316157Y-81643500D01*
X124323513Y-81718189D01*
X124345299Y-81790008D01*
X124380678Y-81856196D01*
X124428289Y-81914211D01*
X124486304Y-81961822D01*
X124552492Y-81997201D01*
X124624311Y-82018987D01*
X124699000Y-82026343D01*
X125099000Y-82026343D01*
X125173689Y-82018987D01*
X125245508Y-81997201D01*
X125311696Y-81961822D01*
X125349000Y-81931208D01*
X125386304Y-81961822D01*
X125452492Y-81997201D01*
X125524311Y-82018987D01*
X125599000Y-82026343D01*
X125999000Y-82026343D01*
X126073689Y-82018987D01*
X126111000Y-82007669D01*
X126111000Y-83668000D01*
X95148000Y-83668000D01*
X95148000Y-81471458D01*
X122613000Y-81471458D01*
X122613000Y-81596542D01*
X122637403Y-81719223D01*
X122685271Y-81834785D01*
X122754764Y-81938789D01*
X122843211Y-82027236D01*
X122947215Y-82096729D01*
X123062777Y-82144597D01*
X123185458Y-82169000D01*
X123310542Y-82169000D01*
X123433223Y-82144597D01*
X123548785Y-82096729D01*
X123652789Y-82027236D01*
X123741236Y-81938789D01*
X123810729Y-81834785D01*
X123858597Y-81719223D01*
X123883000Y-81596542D01*
X123883000Y-81471458D01*
X123858597Y-81348777D01*
X123810729Y-81233215D01*
X123741236Y-81129211D01*
X123652789Y-81040764D01*
X123548785Y-80971271D01*
X123433223Y-80923403D01*
X123310542Y-80899000D01*
X123185458Y-80899000D01*
X123062777Y-80923403D01*
X122947215Y-80971271D01*
X122843211Y-81040764D01*
X122754764Y-81129211D01*
X122685271Y-81233215D01*
X122637403Y-81348777D01*
X122613000Y-81471458D01*
X95148000Y-81471458D01*
X95148000Y-75028400D01*
X95193500Y-75028400D01*
X95193500Y-75289600D01*
X95244457Y-75545780D01*
X95344414Y-75787097D01*
X95489529Y-76004276D01*
X95674224Y-76188971D01*
X95891403Y-76334086D01*
X96011500Y-76383832D01*
X96011501Y-79672546D01*
X96009043Y-79697500D01*
X96016452Y-79772715D01*
X96018852Y-79797085D01*
X96031734Y-79839552D01*
X96047900Y-79892843D01*
X96095071Y-79981095D01*
X96142650Y-80039070D01*
X96158553Y-80058448D01*
X96177930Y-80074350D01*
X96312657Y-80209077D01*
X96312657Y-80373500D01*
X96320013Y-80448189D01*
X96341799Y-80520008D01*
X96377178Y-80586196D01*
X96424789Y-80644211D01*
X96482804Y-80691822D01*
X96548992Y-80727201D01*
X96620811Y-80748987D01*
X96695500Y-80756343D01*
X97095500Y-80756343D01*
X97170189Y-80748987D01*
X97242008Y-80727201D01*
X97308196Y-80691822D01*
X97345500Y-80661208D01*
X97382804Y-80691822D01*
X97448992Y-80727201D01*
X97520811Y-80748987D01*
X97595500Y-80756343D01*
X97995500Y-80756343D01*
X98070189Y-80748987D01*
X98142008Y-80727201D01*
X98208196Y-80691822D01*
X98266211Y-80644211D01*
X98313822Y-80586196D01*
X98349201Y-80520008D01*
X98370987Y-80448189D01*
X98378343Y-80373500D01*
X98378343Y-80325726D01*
X98406097Y-80258723D01*
X98430500Y-80136042D01*
X98430500Y-80010958D01*
X98406097Y-79888277D01*
X98378343Y-79821274D01*
X98378343Y-79773500D01*
X98370987Y-79698811D01*
X98349201Y-79626992D01*
X98313822Y-79560804D01*
X98266211Y-79502789D01*
X98208196Y-79455178D01*
X98142008Y-79419799D01*
X98070189Y-79398013D01*
X97995500Y-79390657D01*
X97595500Y-79390657D01*
X97520811Y-79398013D01*
X97448992Y-79419799D01*
X97382804Y-79455178D01*
X97345500Y-79485792D01*
X97308196Y-79455178D01*
X97242008Y-79419799D01*
X97170189Y-79398013D01*
X97095500Y-79390657D01*
X97027500Y-79390657D01*
X97027500Y-78562247D01*
X97194224Y-78728971D01*
X97411403Y-78874086D01*
X97652720Y-78974043D01*
X97908900Y-79025000D01*
X98170100Y-79025000D01*
X98426280Y-78974043D01*
X98667597Y-78874086D01*
X98884776Y-78728971D01*
X99069471Y-78544276D01*
X99214586Y-78327097D01*
X99314543Y-78085780D01*
X99365500Y-77829600D01*
X99365500Y-77568400D01*
X99314543Y-77312220D01*
X99214586Y-77070903D01*
X99094663Y-76891426D01*
X99413500Y-76891426D01*
X99413500Y-77286574D01*
X99490590Y-77674129D01*
X99641806Y-78039197D01*
X99861338Y-78367750D01*
X100140750Y-78647162D01*
X100469303Y-78866694D01*
X100834371Y-79017910D01*
X101221926Y-79095000D01*
X101617074Y-79095000D01*
X102004629Y-79017910D01*
X102369697Y-78866694D01*
X102698250Y-78647162D01*
X102970733Y-78374679D01*
X102853100Y-78658670D01*
X102788500Y-78983436D01*
X102788500Y-79314564D01*
X102853100Y-79639330D01*
X102979817Y-79945252D01*
X103163782Y-80220575D01*
X103397925Y-80454718D01*
X103673248Y-80638683D01*
X103979170Y-80765400D01*
X104303936Y-80830000D01*
X104635064Y-80830000D01*
X104959830Y-80765400D01*
X105265752Y-80638683D01*
X105541075Y-80454718D01*
X105775218Y-80220575D01*
X105959183Y-79945252D01*
X106085900Y-79639330D01*
X106150500Y-79314564D01*
X106150500Y-79058458D01*
X116512000Y-79058458D01*
X116512000Y-79183542D01*
X116536403Y-79306223D01*
X116584271Y-79421785D01*
X116653764Y-79525789D01*
X116742211Y-79614236D01*
X116846215Y-79683729D01*
X116961777Y-79731597D01*
X117084458Y-79756000D01*
X117209542Y-79756000D01*
X117332223Y-79731597D01*
X117447785Y-79683729D01*
X117551789Y-79614236D01*
X117640236Y-79525789D01*
X117709729Y-79421785D01*
X117757597Y-79306223D01*
X117782000Y-79183542D01*
X117782000Y-79058458D01*
X117757597Y-78935777D01*
X117709729Y-78820215D01*
X117640236Y-78716211D01*
X117551789Y-78627764D01*
X117447785Y-78558271D01*
X117332223Y-78510403D01*
X117209542Y-78486000D01*
X117084458Y-78486000D01*
X116961777Y-78510403D01*
X116846215Y-78558271D01*
X116742211Y-78627764D01*
X116653764Y-78716211D01*
X116584271Y-78820215D01*
X116536403Y-78935777D01*
X116512000Y-79058458D01*
X106150500Y-79058458D01*
X106150500Y-78983436D01*
X106085900Y-78658670D01*
X105959183Y-78352748D01*
X105775218Y-78077425D01*
X105541075Y-77843282D01*
X105265752Y-77659317D01*
X105070539Y-77578457D01*
X120390500Y-77578457D01*
X120390500Y-77703541D01*
X120414903Y-77826222D01*
X120462771Y-77941784D01*
X120532264Y-78045788D01*
X120620711Y-78134235D01*
X120724715Y-78203728D01*
X120840277Y-78251596D01*
X120909153Y-78265297D01*
X120845777Y-78277903D01*
X120730215Y-78325771D01*
X120626211Y-78395264D01*
X120537764Y-78483711D01*
X120468271Y-78587715D01*
X120420403Y-78703277D01*
X120396000Y-78825958D01*
X120396000Y-78951042D01*
X120420403Y-79073723D01*
X120468271Y-79189285D01*
X120537764Y-79293289D01*
X120626211Y-79381736D01*
X120711165Y-79438500D01*
X120626211Y-79495264D01*
X120537764Y-79583711D01*
X120468271Y-79687715D01*
X120420403Y-79803277D01*
X120396000Y-79925958D01*
X120396000Y-80051042D01*
X120420403Y-80173723D01*
X120468271Y-80289285D01*
X120537764Y-80393289D01*
X120626211Y-80481736D01*
X120730215Y-80551229D01*
X120845777Y-80599097D01*
X120968458Y-80623500D01*
X121093542Y-80623500D01*
X121216223Y-80599097D01*
X121331785Y-80551229D01*
X121435789Y-80481736D01*
X121475500Y-80442025D01*
X121515211Y-80481736D01*
X121619215Y-80551229D01*
X121734777Y-80599097D01*
X121857458Y-80623500D01*
X121982542Y-80623500D01*
X122105223Y-80599097D01*
X122220785Y-80551229D01*
X122324789Y-80481736D01*
X122413236Y-80393289D01*
X122482729Y-80289285D01*
X122530597Y-80173723D01*
X122555000Y-80051042D01*
X122555000Y-79925958D01*
X122530597Y-79803277D01*
X122482729Y-79687715D01*
X122413236Y-79583711D01*
X122324789Y-79495264D01*
X122220785Y-79425771D01*
X122105223Y-79377903D01*
X121982542Y-79353500D01*
X121857458Y-79353500D01*
X121734777Y-79377903D01*
X121619215Y-79425771D01*
X121515211Y-79495264D01*
X121475500Y-79534975D01*
X121435789Y-79495264D01*
X121350835Y-79438500D01*
X121435789Y-79381736D01*
X121524236Y-79293289D01*
X121593729Y-79189285D01*
X121641597Y-79073723D01*
X121666000Y-78951042D01*
X121666000Y-78825958D01*
X121641597Y-78703277D01*
X121593729Y-78587715D01*
X121524236Y-78483711D01*
X121435789Y-78395264D01*
X121331785Y-78325771D01*
X121216223Y-78277903D01*
X121147347Y-78264202D01*
X121210723Y-78251596D01*
X121326285Y-78203728D01*
X121430289Y-78134235D01*
X121518736Y-78045788D01*
X121588229Y-77941784D01*
X121636097Y-77826222D01*
X121660500Y-77703541D01*
X121660500Y-77578457D01*
X121636097Y-77455776D01*
X121588229Y-77340214D01*
X121518736Y-77236210D01*
X121430289Y-77147763D01*
X121326285Y-77078270D01*
X121210723Y-77030402D01*
X121088042Y-77005999D01*
X120962958Y-77005999D01*
X120840277Y-77030402D01*
X120724715Y-77078270D01*
X120620711Y-77147763D01*
X120532264Y-77236210D01*
X120462771Y-77340214D01*
X120414903Y-77455776D01*
X120390500Y-77578457D01*
X105070539Y-77578457D01*
X104959830Y-77532600D01*
X104635064Y-77468000D01*
X104303936Y-77468000D01*
X103979170Y-77532600D01*
X103673248Y-77659317D01*
X103397925Y-77843282D01*
X103187496Y-78053711D01*
X103197194Y-78039197D01*
X103348410Y-77674129D01*
X103425500Y-77286574D01*
X103425500Y-76891426D01*
X103348410Y-76503871D01*
X103197194Y-76138803D01*
X102977662Y-75810250D01*
X102698250Y-75530838D01*
X102369697Y-75311306D01*
X102004629Y-75160090D01*
X101617074Y-75083000D01*
X101221926Y-75083000D01*
X100834371Y-75160090D01*
X100469303Y-75311306D01*
X100140750Y-75530838D01*
X99861338Y-75810250D01*
X99641806Y-76138803D01*
X99490590Y-76503871D01*
X99413500Y-76891426D01*
X99094663Y-76891426D01*
X99069471Y-76853724D01*
X98884776Y-76669029D01*
X98667597Y-76523914D01*
X98426280Y-76423957D01*
X98170100Y-76373000D01*
X97908900Y-76373000D01*
X97652720Y-76423957D01*
X97411403Y-76523914D01*
X97194224Y-76669029D01*
X97027500Y-76835753D01*
X97027500Y-76383832D01*
X97147597Y-76334086D01*
X97364776Y-76188971D01*
X97549471Y-76004276D01*
X97694586Y-75787097D01*
X97794543Y-75545780D01*
X97845500Y-75289600D01*
X97845500Y-75028400D01*
X97794543Y-74772220D01*
X97694586Y-74530903D01*
X97619085Y-74417908D01*
X106428500Y-74417908D01*
X106428500Y-74680092D01*
X106479650Y-74937238D01*
X106579983Y-75179465D01*
X106725645Y-75397463D01*
X106911037Y-75582855D01*
X107129035Y-75728517D01*
X107371262Y-75828850D01*
X107628408Y-75880000D01*
X107890592Y-75880000D01*
X108147738Y-75828850D01*
X108389965Y-75728517D01*
X108607963Y-75582855D01*
X108793355Y-75397463D01*
X108939017Y-75179465D01*
X109039350Y-74937238D01*
X109090500Y-74680092D01*
X109090500Y-74417908D01*
X109039350Y-74160762D01*
X108939017Y-73918535D01*
X108793355Y-73700537D01*
X108607963Y-73515145D01*
X108389965Y-73369483D01*
X108147738Y-73269150D01*
X107890592Y-73218000D01*
X107628408Y-73218000D01*
X107371262Y-73269150D01*
X107129035Y-73369483D01*
X106911037Y-73515145D01*
X106725645Y-73700537D01*
X106579983Y-73918535D01*
X106479650Y-74160762D01*
X106428500Y-74417908D01*
X97619085Y-74417908D01*
X97549471Y-74313724D01*
X97364776Y-74129029D01*
X97147597Y-73983914D01*
X96906280Y-73883957D01*
X96650100Y-73833000D01*
X96388900Y-73833000D01*
X96132720Y-73883957D01*
X95891403Y-73983914D01*
X95674224Y-74129029D01*
X95489529Y-74313724D01*
X95344414Y-74530903D01*
X95244457Y-74772220D01*
X95193500Y-75028400D01*
X95148000Y-75028400D01*
X95148000Y-73147908D01*
X108968500Y-73147908D01*
X108968500Y-73410092D01*
X109019650Y-73667238D01*
X109119983Y-73909465D01*
X109265645Y-74127463D01*
X109451037Y-74312855D01*
X109669035Y-74458517D01*
X109887482Y-74549000D01*
X109669035Y-74639483D01*
X109451037Y-74785145D01*
X109265645Y-74970537D01*
X109119983Y-75188535D01*
X109019650Y-75430762D01*
X108968500Y-75687908D01*
X108968500Y-75950092D01*
X109019650Y-76207238D01*
X109119983Y-76449465D01*
X109265645Y-76667463D01*
X109451037Y-76852855D01*
X109669035Y-76998517D01*
X109911262Y-77098850D01*
X110168408Y-77150000D01*
X110430592Y-77150000D01*
X110687738Y-77098850D01*
X110929965Y-76998517D01*
X111147963Y-76852855D01*
X111333355Y-76667463D01*
X111479017Y-76449465D01*
X111579350Y-76207238D01*
X111630500Y-75950092D01*
X111630500Y-75687908D01*
X111628331Y-75677000D01*
X123459657Y-75677000D01*
X123459657Y-76077000D01*
X123467013Y-76151689D01*
X123488799Y-76223508D01*
X123524178Y-76289696D01*
X123554792Y-76327000D01*
X123524178Y-76364304D01*
X123488799Y-76430492D01*
X123467013Y-76502311D01*
X123459657Y-76577000D01*
X123459657Y-76977000D01*
X123467013Y-77051689D01*
X123488799Y-77123508D01*
X123524178Y-77189696D01*
X123571789Y-77247711D01*
X123629804Y-77295322D01*
X123695992Y-77330701D01*
X123767811Y-77352487D01*
X123842148Y-77359808D01*
X123957277Y-77407497D01*
X124079958Y-77431900D01*
X124205042Y-77431900D01*
X124327723Y-77407497D01*
X124442852Y-77359808D01*
X124517189Y-77352487D01*
X124589008Y-77330701D01*
X124655196Y-77295322D01*
X124713211Y-77247711D01*
X124760822Y-77189696D01*
X124796201Y-77123508D01*
X124817987Y-77051689D01*
X124825343Y-76977000D01*
X124825343Y-76577000D01*
X124817987Y-76502311D01*
X124805105Y-76459843D01*
X125395000Y-76459843D01*
X125469689Y-76452487D01*
X125541508Y-76430701D01*
X125607696Y-76395322D01*
X125665711Y-76347711D01*
X125713322Y-76289696D01*
X125748701Y-76223508D01*
X125770487Y-76151689D01*
X125777843Y-76077000D01*
X125777843Y-75677000D01*
X125770487Y-75602311D01*
X125748701Y-75530492D01*
X125713322Y-75464304D01*
X125665711Y-75406289D01*
X125607696Y-75358678D01*
X125603000Y-75356168D01*
X125603000Y-75308137D01*
X125604000Y-75305723D01*
X125628403Y-75183042D01*
X125628403Y-75057958D01*
X125604000Y-74935277D01*
X125556132Y-74819715D01*
X125486639Y-74715711D01*
X125398192Y-74627264D01*
X125294188Y-74557771D01*
X125178626Y-74509903D01*
X125055945Y-74485500D01*
X124930861Y-74485500D01*
X124808180Y-74509903D01*
X124692618Y-74557771D01*
X124663201Y-74577426D01*
X124633785Y-74557771D01*
X124518223Y-74509903D01*
X124395542Y-74485500D01*
X124270458Y-74485500D01*
X124147777Y-74509903D01*
X124032215Y-74557771D01*
X123928211Y-74627264D01*
X123839764Y-74715711D01*
X123770271Y-74819715D01*
X123722403Y-74935277D01*
X123698000Y-75057958D01*
X123698000Y-75064956D01*
X123671132Y-75115223D01*
X123670900Y-75115657D01*
X123646180Y-75197150D01*
X123641852Y-75211416D01*
X123632043Y-75311000D01*
X123634501Y-75335954D01*
X123634501Y-75356167D01*
X123629804Y-75358678D01*
X123571789Y-75406289D01*
X123524178Y-75464304D01*
X123488799Y-75530492D01*
X123467013Y-75602311D01*
X123459657Y-75677000D01*
X111628331Y-75677000D01*
X111579350Y-75430762D01*
X111479017Y-75188535D01*
X111333355Y-74970537D01*
X111230276Y-74867458D01*
X120227000Y-74867458D01*
X120227000Y-74992542D01*
X120251403Y-75115223D01*
X120299271Y-75230785D01*
X120368764Y-75334789D01*
X120457211Y-75423236D01*
X120561215Y-75492729D01*
X120676777Y-75540597D01*
X120799458Y-75565000D01*
X120924542Y-75565000D01*
X121047223Y-75540597D01*
X121162785Y-75492729D01*
X121266789Y-75423236D01*
X121355236Y-75334789D01*
X121424729Y-75230785D01*
X121472597Y-75115223D01*
X121497000Y-74992542D01*
X121497000Y-74867458D01*
X121472597Y-74744777D01*
X121424729Y-74629215D01*
X121355236Y-74525211D01*
X121289143Y-74459118D01*
X121366789Y-74407236D01*
X121455236Y-74318789D01*
X121524729Y-74214785D01*
X121572597Y-74099223D01*
X121597000Y-73976542D01*
X121597000Y-73851458D01*
X121572597Y-73728777D01*
X121524729Y-73613215D01*
X121455236Y-73509211D01*
X121366789Y-73420764D01*
X121262785Y-73351271D01*
X121147223Y-73303403D01*
X121024542Y-73279000D01*
X120899458Y-73279000D01*
X120776777Y-73303403D01*
X120661215Y-73351271D01*
X120557211Y-73420764D01*
X120468764Y-73509211D01*
X120399271Y-73613215D01*
X120351403Y-73728777D01*
X120327000Y-73851458D01*
X120327000Y-73976542D01*
X120351403Y-74099223D01*
X120399271Y-74214785D01*
X120468764Y-74318789D01*
X120534857Y-74384882D01*
X120457211Y-74436764D01*
X120368764Y-74525211D01*
X120299271Y-74629215D01*
X120251403Y-74744777D01*
X120227000Y-74867458D01*
X111230276Y-74867458D01*
X111147963Y-74785145D01*
X110929965Y-74639483D01*
X110711518Y-74549000D01*
X110929965Y-74458517D01*
X111147963Y-74312855D01*
X111333355Y-74127463D01*
X111479017Y-73909465D01*
X111579350Y-73667238D01*
X111630500Y-73410092D01*
X111630500Y-73147908D01*
X111579350Y-72890762D01*
X111479017Y-72648535D01*
X111333355Y-72430537D01*
X111147963Y-72245145D01*
X110929965Y-72099483D01*
X110687738Y-71999150D01*
X110430592Y-71948000D01*
X110168408Y-71948000D01*
X109911262Y-71999150D01*
X109669035Y-72099483D01*
X109451037Y-72245145D01*
X109265645Y-72430537D01*
X109119983Y-72648535D01*
X109019650Y-72890762D01*
X108968500Y-73147908D01*
X95148000Y-73147908D01*
X95148000Y-67458400D01*
X96713500Y-67458400D01*
X96713500Y-67719600D01*
X96764457Y-67975780D01*
X96864414Y-68217097D01*
X97009529Y-68434276D01*
X97194224Y-68618971D01*
X97411403Y-68764086D01*
X97652720Y-68864043D01*
X97908900Y-68915000D01*
X98170100Y-68915000D01*
X98426280Y-68864043D01*
X98667597Y-68764086D01*
X98884776Y-68618971D01*
X99069471Y-68434276D01*
X99214586Y-68217097D01*
X99314543Y-67975780D01*
X99365500Y-67719600D01*
X99365500Y-67458400D01*
X99314543Y-67202220D01*
X99214586Y-66960903D01*
X99069471Y-66743724D01*
X98884776Y-66559029D01*
X98667597Y-66413914D01*
X98426280Y-66313957D01*
X98170100Y-66263000D01*
X97908900Y-66263000D01*
X97652720Y-66313957D01*
X97411403Y-66413914D01*
X97194224Y-66559029D01*
X97009529Y-66743724D01*
X96864414Y-66960903D01*
X96764457Y-67202220D01*
X96713500Y-67458400D01*
X95148000Y-67458400D01*
X95148000Y-64918400D01*
X95193500Y-64918400D01*
X95193500Y-65179600D01*
X95244457Y-65435780D01*
X95344414Y-65677097D01*
X95489529Y-65894276D01*
X95674224Y-66078971D01*
X95891403Y-66224086D01*
X96132720Y-66324043D01*
X96388900Y-66375000D01*
X96650100Y-66375000D01*
X96906280Y-66324043D01*
X97147597Y-66224086D01*
X97364776Y-66078971D01*
X97549471Y-65894276D01*
X97694586Y-65677097D01*
X97783920Y-65461426D01*
X99413500Y-65461426D01*
X99413500Y-65856574D01*
X99490590Y-66244129D01*
X99641806Y-66609197D01*
X99861338Y-66937750D01*
X100140750Y-67217162D01*
X100469303Y-67436694D01*
X100834371Y-67587910D01*
X101221926Y-67665000D01*
X101617074Y-67665000D01*
X102004629Y-67587910D01*
X102369697Y-67436694D01*
X102698250Y-67217162D01*
X102977662Y-66937750D01*
X103197194Y-66609197D01*
X103348410Y-66244129D01*
X103401147Y-65979000D01*
X106426657Y-65979000D01*
X106426657Y-67879000D01*
X106434013Y-67953689D01*
X106455799Y-68025508D01*
X106491178Y-68091696D01*
X106538789Y-68149711D01*
X106596804Y-68197322D01*
X106662992Y-68232701D01*
X106734811Y-68254487D01*
X106809500Y-68261843D01*
X107195764Y-68261843D01*
X107129035Y-68289483D01*
X106911037Y-68435145D01*
X106725645Y-68620537D01*
X106579983Y-68838535D01*
X106479650Y-69080762D01*
X106428500Y-69337908D01*
X106428500Y-69600092D01*
X106479650Y-69857238D01*
X106579983Y-70099465D01*
X106725645Y-70317463D01*
X106911037Y-70502855D01*
X107129035Y-70648517D01*
X107371262Y-70748850D01*
X107628408Y-70800000D01*
X107890592Y-70800000D01*
X108147738Y-70748850D01*
X108322508Y-70676458D01*
X113961000Y-70676458D01*
X113961000Y-70801542D01*
X113985403Y-70924223D01*
X114033271Y-71039785D01*
X114102764Y-71143789D01*
X114191211Y-71232236D01*
X114295215Y-71301729D01*
X114410777Y-71349597D01*
X114533458Y-71374000D01*
X114658542Y-71374000D01*
X114781223Y-71349597D01*
X114896785Y-71301729D01*
X115000789Y-71232236D01*
X115089236Y-71143789D01*
X115158729Y-71039785D01*
X115206597Y-70924223D01*
X115231000Y-70801542D01*
X115231000Y-70676458D01*
X115206597Y-70553777D01*
X115158729Y-70438215D01*
X115148201Y-70422458D01*
X120227000Y-70422458D01*
X120227000Y-70547542D01*
X120251403Y-70670223D01*
X120299271Y-70785785D01*
X120368764Y-70889789D01*
X120457211Y-70978236D01*
X120561215Y-71047729D01*
X120676777Y-71095597D01*
X120799458Y-71120000D01*
X120924542Y-71120000D01*
X121047223Y-71095597D01*
X121162785Y-71047729D01*
X121266789Y-70978236D01*
X121355236Y-70889789D01*
X121424729Y-70785785D01*
X121472597Y-70670223D01*
X121497000Y-70547542D01*
X121497000Y-70422458D01*
X121472597Y-70299777D01*
X121424729Y-70184215D01*
X121355236Y-70080211D01*
X121266789Y-69991764D01*
X121162785Y-69922271D01*
X121047223Y-69874403D01*
X120924542Y-69850000D01*
X120799458Y-69850000D01*
X120676777Y-69874403D01*
X120561215Y-69922271D01*
X120457211Y-69991764D01*
X120368764Y-70080211D01*
X120299271Y-70184215D01*
X120251403Y-70299777D01*
X120227000Y-70422458D01*
X115148201Y-70422458D01*
X115089236Y-70334211D01*
X115000789Y-70245764D01*
X114896785Y-70176271D01*
X114781223Y-70128403D01*
X114658542Y-70104000D01*
X114533458Y-70104000D01*
X114410777Y-70128403D01*
X114295215Y-70176271D01*
X114191211Y-70245764D01*
X114102764Y-70334211D01*
X114033271Y-70438215D01*
X113985403Y-70553777D01*
X113961000Y-70676458D01*
X108322508Y-70676458D01*
X108389965Y-70648517D01*
X108607963Y-70502855D01*
X108793355Y-70317463D01*
X108939017Y-70099465D01*
X109039350Y-69857238D01*
X109090500Y-69600092D01*
X109090500Y-69337908D01*
X109039350Y-69080762D01*
X108939017Y-68838535D01*
X108793355Y-68620537D01*
X108607963Y-68435145D01*
X108389965Y-68289483D01*
X108323236Y-68261843D01*
X108709500Y-68261843D01*
X108784189Y-68254487D01*
X108856008Y-68232701D01*
X108922196Y-68197322D01*
X108968500Y-68159322D01*
X108968500Y-68330092D01*
X109019650Y-68587238D01*
X109119983Y-68829465D01*
X109265645Y-69047463D01*
X109451037Y-69232855D01*
X109669035Y-69378517D01*
X109911262Y-69478850D01*
X110168408Y-69530000D01*
X110430592Y-69530000D01*
X110687738Y-69478850D01*
X110929965Y-69378517D01*
X111147963Y-69232855D01*
X111333355Y-69047463D01*
X111479017Y-68829465D01*
X111579350Y-68587238D01*
X111630500Y-68330092D01*
X111630500Y-68067908D01*
X111579350Y-67810762D01*
X111479017Y-67568535D01*
X111333355Y-67350537D01*
X111147963Y-67165145D01*
X110929965Y-67019483D01*
X110687738Y-66919150D01*
X110430592Y-66868000D01*
X110168408Y-66868000D01*
X109911262Y-66919150D01*
X109669035Y-67019483D01*
X109451037Y-67165145D01*
X109265645Y-67350537D01*
X109119983Y-67568535D01*
X109092343Y-67635264D01*
X109092343Y-65979000D01*
X109084987Y-65904311D01*
X109063201Y-65832492D01*
X109027822Y-65766304D01*
X108980211Y-65708289D01*
X108922196Y-65660678D01*
X108856008Y-65625299D01*
X108784189Y-65603513D01*
X108709500Y-65596157D01*
X106809500Y-65596157D01*
X106734811Y-65603513D01*
X106662992Y-65625299D01*
X106596804Y-65660678D01*
X106538789Y-65708289D01*
X106491178Y-65766304D01*
X106455799Y-65832492D01*
X106434013Y-65904311D01*
X106426657Y-65979000D01*
X103401147Y-65979000D01*
X103425500Y-65856574D01*
X103425500Y-65461426D01*
X103348410Y-65073871D01*
X103197194Y-64708803D01*
X103187496Y-64694289D01*
X103397925Y-64904718D01*
X103673248Y-65088683D01*
X103979170Y-65215400D01*
X104303936Y-65280000D01*
X104635064Y-65280000D01*
X104959830Y-65215400D01*
X105265752Y-65088683D01*
X105541075Y-64904718D01*
X105775218Y-64670575D01*
X105959183Y-64395252D01*
X106085900Y-64089330D01*
X106150500Y-63764564D01*
X106150500Y-63433436D01*
X106085900Y-63108670D01*
X105959183Y-62802748D01*
X105775218Y-62527425D01*
X105541075Y-62293282D01*
X105265752Y-62109317D01*
X104959830Y-61982600D01*
X104635064Y-61918000D01*
X104303936Y-61918000D01*
X103979170Y-61982600D01*
X103673248Y-62109317D01*
X103397925Y-62293282D01*
X103163782Y-62527425D01*
X102979817Y-62802748D01*
X102853100Y-63108670D01*
X102788500Y-63433436D01*
X102788500Y-63764564D01*
X102853100Y-64089330D01*
X102970733Y-64373321D01*
X102698250Y-64100838D01*
X102369697Y-63881306D01*
X102004629Y-63730090D01*
X101617074Y-63653000D01*
X101221926Y-63653000D01*
X100834371Y-63730090D01*
X100469303Y-63881306D01*
X100140750Y-64100838D01*
X99861338Y-64380250D01*
X99641806Y-64708803D01*
X99490590Y-65073871D01*
X99413500Y-65461426D01*
X97783920Y-65461426D01*
X97794543Y-65435780D01*
X97845500Y-65179600D01*
X97845500Y-64918400D01*
X97794543Y-64662220D01*
X97694586Y-64420903D01*
X97549471Y-64203724D01*
X97364776Y-64019029D01*
X97340000Y-64002474D01*
X97340000Y-63136274D01*
X97350322Y-63123696D01*
X97385701Y-63057508D01*
X97407487Y-62985689D01*
X97414843Y-62911000D01*
X97414843Y-62311000D01*
X97407487Y-62236311D01*
X97385701Y-62164492D01*
X97350322Y-62098304D01*
X97302711Y-62040289D01*
X97244696Y-61992678D01*
X97178508Y-61957299D01*
X97106689Y-61935513D01*
X97032000Y-61928157D01*
X96632000Y-61928157D01*
X96557311Y-61935513D01*
X96485492Y-61957299D01*
X96419304Y-61992678D01*
X96361289Y-62040289D01*
X96313678Y-62098304D01*
X96278299Y-62164492D01*
X96256513Y-62236311D01*
X96249157Y-62311000D01*
X96249157Y-62911000D01*
X96256513Y-62985689D01*
X96278299Y-63057508D01*
X96313678Y-63123696D01*
X96324000Y-63136274D01*
X96324001Y-63735909D01*
X96132720Y-63773957D01*
X95891403Y-63873914D01*
X95674224Y-64019029D01*
X95489529Y-64203724D01*
X95344414Y-64420903D01*
X95244457Y-64662220D01*
X95193500Y-64918400D01*
X95148000Y-64918400D01*
X95148000Y-61722000D01*
X119131046Y-61722000D01*
X119237080Y-61977987D01*
M02*
