G04 #@! TF.GenerationSoftware,KiCad,Pcbnew,(5.1.4)-1*
G04 #@! TF.CreationDate,2020-04-10T13:24:09-05:00*
G04 #@! TF.ProjectId,PIC32MZ_ETH_Demo,50494333-324d-45a5-9f45-54485f44656d,rev?*
G04 #@! TF.SameCoordinates,Original*
G04 #@! TF.FileFunction,Copper,L1,Top*
G04 #@! TF.FilePolarity,Positive*
%FSLAX46Y46*%
G04 Gerber Fmt 4.6, Leading zero omitted, Abs format (unit mm)*
G04 Created by KiCad (PCBNEW (5.1.4)-1) date 2020-04-10 13:24:09*
%MOMM*%
%LPD*%
G04 APERTURE LIST*
%ADD10R,2.550000X2.700000*%
%ADD11R,1.000000X1.600000*%
%ADD12R,0.600000X0.500000*%
%ADD13R,1.600000X1.000000*%
%ADD14R,0.500000X0.600000*%
%ADD15R,0.600000X0.700000*%
%ADD16R,0.700000X0.600000*%
%ADD17R,3.500000X3.500000*%
%ADD18O,1.700000X1.700000*%
%ADD19R,1.700000X1.700000*%
%ADD20R,1.900000X1.900000*%
%ADD21C,1.900000*%
%ADD22C,1.890000*%
%ADD23C,2.600000*%
%ADD24R,2.300000X0.500000*%
%ADD25R,2.500000X2.000000*%
%ADD26R,1.903000X2.790000*%
%ADD27R,0.600000X0.400000*%
%ADD28R,0.400000X0.600000*%
%ADD29R,0.700000X0.450000*%
%ADD30R,0.900000X2.500000*%
%ADD31C,2.000000*%
%ADD32C,1.500000*%
%ADD33O,0.300000X0.750000*%
%ADD34O,0.750000X0.300000*%
%ADD35R,0.900000X0.900000*%
%ADD36R,1.500000X0.300000*%
%ADD37R,0.300000X1.500000*%
%ADD38R,0.400000X0.650000*%
%ADD39C,0.100000*%
%ADD40C,0.250000*%
%ADD41R,0.650000X0.400000*%
%ADD42R,1.400000X1.200000*%
%ADD43R,1.400000X1.000000*%
%ADD44R,1.550000X0.600000*%
%ADD45R,1.060000X0.650000*%
%ADD46R,0.650000X1.060000*%
%ADD47R,1.300000X1.100000*%
%ADD48C,0.508000*%
%ADD49C,0.254000*%
%ADD50C,0.635000*%
%ADD51C,0.762000*%
G04 APERTURE END LIST*
D10*
X189547500Y-59499500D03*
X183197500Y-59499500D03*
D11*
X187476000Y-63373000D03*
X190476000Y-63373000D03*
D12*
X193823500Y-65659000D03*
X194923500Y-65659000D03*
X193018500Y-64008000D03*
X191918500Y-64008000D03*
D13*
X184213500Y-68556000D03*
X184213500Y-65556000D03*
X186436000Y-65556000D03*
X186436000Y-68556000D03*
D12*
X168931500Y-51498500D03*
X170031500Y-51498500D03*
D11*
X155360500Y-80200500D03*
X152360500Y-80200500D03*
D12*
X153247000Y-77406500D03*
X154347000Y-77406500D03*
X149838500Y-77406500D03*
X148738500Y-77406500D03*
X148378000Y-53086000D03*
X147278000Y-53086000D03*
X153247000Y-76517500D03*
X154347000Y-76517500D03*
X148738500Y-76517500D03*
X149838500Y-76517500D03*
X154347000Y-75628500D03*
X153247000Y-75628500D03*
X148738500Y-75628500D03*
X149838500Y-75628500D03*
D14*
X139954000Y-72221000D03*
X139954000Y-73321000D03*
X139954000Y-66082000D03*
X139954000Y-64982000D03*
X139065000Y-72221000D03*
X139065000Y-73321000D03*
X140843000Y-72221000D03*
X140843000Y-73321000D03*
X140843000Y-64982000D03*
X140843000Y-66082000D03*
X141732000Y-72221000D03*
X141732000Y-73321000D03*
X141732000Y-64982000D03*
X141732000Y-66082000D03*
D12*
X148378000Y-53975000D03*
X147278000Y-53975000D03*
X151786500Y-53975000D03*
X152886500Y-53975000D03*
D14*
X164084000Y-66082000D03*
X164084000Y-64982000D03*
D12*
X147278000Y-54864000D03*
X148378000Y-54864000D03*
X151786500Y-54864000D03*
X152886500Y-54864000D03*
X147278000Y-55753000D03*
X148378000Y-55753000D03*
X151786500Y-55753000D03*
X152886500Y-55753000D03*
D14*
X163195000Y-66082000D03*
X163195000Y-64982000D03*
D12*
X154771000Y-53975000D03*
X155871000Y-53975000D03*
X154347000Y-78295500D03*
X153247000Y-78295500D03*
D14*
X162306000Y-66082000D03*
X162306000Y-64982000D03*
D12*
X155871000Y-54864000D03*
X154771000Y-54864000D03*
D14*
X161417000Y-64982000D03*
X161417000Y-66082000D03*
D12*
X155871000Y-55753000D03*
X154771000Y-55753000D03*
X142960000Y-50990500D03*
X144060000Y-50990500D03*
X137075000Y-76390500D03*
X135975000Y-76390500D03*
X142960000Y-51879500D03*
X144060000Y-51879500D03*
X137075000Y-75501500D03*
X135975000Y-75501500D03*
X144060000Y-52768500D03*
X142960000Y-52768500D03*
X135975000Y-74612500D03*
X137075000Y-74612500D03*
X128101000Y-80391000D03*
X129201000Y-80391000D03*
X129518500Y-76073000D03*
X128418500Y-76073000D03*
D14*
X121031000Y-79988500D03*
X121031000Y-78888500D03*
X121920000Y-78888500D03*
X121920000Y-79988500D03*
D12*
X128418500Y-72453500D03*
X129518500Y-72453500D03*
X121962000Y-70485000D03*
X120862000Y-70485000D03*
X120862000Y-74930000D03*
X121962000Y-74930000D03*
X128418500Y-75184000D03*
X129518500Y-75184000D03*
X113496000Y-70739000D03*
X114596000Y-70739000D03*
D14*
X110363000Y-57489000D03*
X110363000Y-58589000D03*
X109982000Y-50123000D03*
X109982000Y-51223000D03*
X105092500Y-50334000D03*
X105092500Y-49234000D03*
D15*
X136038500Y-59118500D03*
X137138500Y-59118500D03*
X136038500Y-54673500D03*
X137138500Y-54673500D03*
D16*
X111823500Y-51904999D03*
X111823500Y-50804999D03*
X193738500Y-77385000D03*
X193738500Y-76285000D03*
X112987001Y-53806000D03*
X112987001Y-54906000D03*
D15*
X173186000Y-58102500D03*
X174286000Y-58102500D03*
X173186000Y-62611000D03*
X174286000Y-62611000D03*
X174286000Y-67119500D03*
X173186000Y-67119500D03*
X174286000Y-71628000D03*
X173186000Y-71628000D03*
X173186000Y-76136500D03*
X174286000Y-76136500D03*
X173186000Y-80645000D03*
X174286000Y-80645000D03*
D17*
X192976500Y-53975000D03*
X198976500Y-53975000D03*
X195976500Y-49275000D03*
D18*
X160575001Y-49212500D03*
X163115001Y-49212500D03*
X165655001Y-49212500D03*
X168195001Y-49212500D03*
X170735001Y-49212500D03*
D19*
X173275001Y-49212500D03*
D20*
X107759500Y-66929000D03*
D21*
X110299500Y-68199000D03*
X107759500Y-69469000D03*
X110299500Y-70739000D03*
X107759500Y-72009000D03*
X110299500Y-73279000D03*
X107759500Y-74549000D03*
X110299500Y-75819000D03*
D22*
X98039500Y-77699000D03*
X96519500Y-75159000D03*
X98039500Y-67589000D03*
X96519500Y-65049000D03*
D23*
X104469500Y-63599000D03*
X104469500Y-79149000D03*
D24*
X102876000Y-52692500D03*
X102876000Y-53492500D03*
X102876000Y-54292500D03*
X102876000Y-55092500D03*
X102876000Y-55892500D03*
D25*
X102776000Y-49842500D03*
X97276000Y-49842500D03*
X102776000Y-58742500D03*
X97276000Y-58742500D03*
D26*
X190513500Y-72263000D03*
X185660500Y-72263000D03*
D27*
X156019500Y-52964500D03*
X156019500Y-52064500D03*
X154622500Y-52064500D03*
X154622500Y-52964500D03*
X141732000Y-51429500D03*
X141732000Y-52329500D03*
X134747000Y-75369000D03*
X134747000Y-76269000D03*
D28*
X121025500Y-77640999D03*
X121925500Y-77640999D03*
D27*
X105092500Y-52266000D03*
X105092500Y-51366000D03*
X105092500Y-56573000D03*
X105092500Y-57473000D03*
D29*
X121713500Y-67564000D03*
X119713500Y-68214000D03*
X119713500Y-66914000D03*
D28*
X194823500Y-68834000D03*
X193923500Y-68834000D03*
X131069500Y-80391000D03*
X130169500Y-80391000D03*
X194823500Y-67754500D03*
X193923500Y-67754500D03*
X194823500Y-66675000D03*
X193923500Y-66675000D03*
D27*
X146177000Y-55568000D03*
X146177000Y-54668000D03*
D28*
X140848500Y-70929500D03*
X139948500Y-70929500D03*
X124148000Y-81534000D03*
X123248000Y-81534000D03*
D27*
X126873000Y-75877000D03*
X126873000Y-76777000D03*
X124206000Y-68649000D03*
X124206000Y-67749000D03*
X123253500Y-67749000D03*
X123253500Y-68649000D03*
X125158500Y-68649000D03*
X125158500Y-67749000D03*
D28*
X129418500Y-73342500D03*
X128518500Y-73342500D03*
X128518500Y-74295000D03*
X129418500Y-74295000D03*
X129418500Y-71564500D03*
X128518500Y-71564500D03*
X128518500Y-70612000D03*
X129418500Y-70612000D03*
X129418500Y-69659500D03*
X128518500Y-69659500D03*
D27*
X127063500Y-67749000D03*
X127063500Y-68649000D03*
X126111000Y-67749000D03*
X126111000Y-68649000D03*
D28*
X120962000Y-73914000D03*
X121862000Y-73914000D03*
X115818500Y-72517000D03*
X116718500Y-72517000D03*
X116718500Y-74422000D03*
X115818500Y-74422000D03*
X116718500Y-68834000D03*
X115818500Y-68834000D03*
X116718500Y-70739000D03*
X115818500Y-70739000D03*
D30*
X117147000Y-79121000D03*
X114247000Y-79121000D03*
D28*
X137038500Y-61214000D03*
X136138500Y-61214000D03*
X136138500Y-60198000D03*
X137038500Y-60198000D03*
X136138500Y-56642000D03*
X137038500Y-56642000D03*
X137038500Y-55689500D03*
X136138500Y-55689500D03*
X105722000Y-59563000D03*
X106622000Y-59563000D03*
X107373000Y-59563000D03*
X108273000Y-59563000D03*
X109024000Y-59563000D03*
X109924000Y-59563000D03*
D27*
X110363000Y-55684000D03*
X110363000Y-56584000D03*
X111823500Y-49916500D03*
X111823500Y-49016500D03*
X194754500Y-77285000D03*
X194754500Y-76385000D03*
X111887000Y-54806000D03*
X111887000Y-53906000D03*
D28*
X174186000Y-56134000D03*
X173286000Y-56134000D03*
X173286000Y-57086500D03*
X174186000Y-57086500D03*
X174186000Y-60642500D03*
X173286000Y-60642500D03*
X174186000Y-65151000D03*
X173286000Y-65151000D03*
X174186000Y-61595000D03*
X173286000Y-61595000D03*
X173286000Y-66103500D03*
X174186000Y-66103500D03*
X174186000Y-69659500D03*
X173286000Y-69659500D03*
X173286000Y-74168000D03*
X174186000Y-74168000D03*
X174186000Y-70612000D03*
X173286000Y-70612000D03*
X173286000Y-75120500D03*
X174186000Y-75120500D03*
X174186000Y-78676500D03*
X173286000Y-78676500D03*
X173286000Y-79629000D03*
X174186000Y-79629000D03*
D31*
X185102500Y-49221000D03*
X185102500Y-53721000D03*
X178602500Y-49221000D03*
X178602500Y-53721000D03*
X129159000Y-48808500D03*
X133659000Y-48808500D03*
X129159000Y-55308500D03*
X133659000Y-55308500D03*
D19*
X197993000Y-81026000D03*
D32*
X193230500Y-61214000D03*
X183134000Y-72263000D03*
X133286500Y-79756000D03*
X114744500Y-65341500D03*
D33*
X190321500Y-68594500D03*
X190821500Y-68594500D03*
X191321500Y-68594500D03*
X191821500Y-68594500D03*
D34*
X192546500Y-67869500D03*
X192546500Y-67369500D03*
X192546500Y-66869500D03*
X192546500Y-66369500D03*
D33*
X191821500Y-65644500D03*
X191321500Y-65644500D03*
X190821500Y-65644500D03*
X190321500Y-65644500D03*
D34*
X189596500Y-66369500D03*
X189596500Y-66869500D03*
X189596500Y-67369500D03*
X189596500Y-67869500D03*
D35*
X191521500Y-66669500D03*
X190621500Y-66669500D03*
X191521500Y-67569500D03*
X190621500Y-67569500D03*
D36*
X159274500Y-71786000D03*
X159274500Y-71286000D03*
X159274500Y-70786000D03*
X159274500Y-70286000D03*
X159274500Y-69786000D03*
X159274500Y-69286000D03*
X159274500Y-68786000D03*
X159274500Y-68286000D03*
X159274500Y-67786000D03*
X159274500Y-67286000D03*
X159274500Y-66786000D03*
X159274500Y-66286000D03*
X159274500Y-65786000D03*
X159274500Y-65286000D03*
X159274500Y-64786000D03*
X159274500Y-64286000D03*
X159274500Y-63786000D03*
X159274500Y-63286000D03*
X159274500Y-62786000D03*
X159274500Y-62286000D03*
X159274500Y-61786000D03*
X159274500Y-61286000D03*
X159274500Y-60786000D03*
X159274500Y-60286000D03*
X159274500Y-59786000D03*
D37*
X157574500Y-58086000D03*
X157074500Y-58086000D03*
X156574500Y-58086000D03*
X156074500Y-58086000D03*
X155574500Y-58086000D03*
X155074500Y-58086000D03*
X154574500Y-58086000D03*
X154074500Y-58086000D03*
X153574500Y-58086000D03*
X153074500Y-58086000D03*
X152574500Y-58086000D03*
X152074500Y-58086000D03*
X151574500Y-58086000D03*
X151074500Y-58086000D03*
X150574500Y-58086000D03*
X150074500Y-58086000D03*
X149574500Y-58086000D03*
X149074500Y-58086000D03*
X148574500Y-58086000D03*
X148074500Y-58086000D03*
X147574500Y-58086000D03*
X147074500Y-58086000D03*
X146574500Y-58086000D03*
X146074500Y-58086000D03*
X145574500Y-58086000D03*
D36*
X143874500Y-59786000D03*
X143874500Y-60286000D03*
X143874500Y-60786000D03*
X143874500Y-61286000D03*
X143874500Y-61786000D03*
X143874500Y-62286000D03*
X143874500Y-62786000D03*
X143874500Y-63286000D03*
X143874500Y-63786000D03*
X143874500Y-64286000D03*
X143874500Y-64786000D03*
X143874500Y-65286000D03*
X143874500Y-65786000D03*
X143874500Y-66286000D03*
X143874500Y-66786000D03*
X143874500Y-67286000D03*
X143874500Y-67786000D03*
X143874500Y-68286000D03*
X143874500Y-68786000D03*
X143874500Y-69286000D03*
X143874500Y-69786000D03*
X143874500Y-70286000D03*
X143874500Y-70786000D03*
X143874500Y-71286000D03*
X143874500Y-71786000D03*
D37*
X145574500Y-73486000D03*
X146074500Y-73486000D03*
X146574500Y-73486000D03*
X147074500Y-73486000D03*
X147574500Y-73486000D03*
X148074500Y-73486000D03*
X148574500Y-73486000D03*
X149074500Y-73486000D03*
X149574500Y-73486000D03*
X150074500Y-73486000D03*
X150574500Y-73486000D03*
X151074500Y-73486000D03*
X151574500Y-73486000D03*
X152074500Y-73486000D03*
X152574500Y-73486000D03*
X153074500Y-73486000D03*
X153574500Y-73486000D03*
X154074500Y-73486000D03*
X154574500Y-73486000D03*
X155074500Y-73486000D03*
X155574500Y-73486000D03*
X156074500Y-73486000D03*
X156574500Y-73486000D03*
X157074500Y-73486000D03*
X157574500Y-73486000D03*
D38*
X128318500Y-79182000D03*
X129618500Y-79182000D03*
X128968500Y-79182000D03*
X129618500Y-77282000D03*
X128318500Y-77282000D03*
D39*
G36*
X123577126Y-73324801D02*
G01*
X123583193Y-73325701D01*
X123589143Y-73327191D01*
X123594918Y-73329258D01*
X123600462Y-73331880D01*
X123605723Y-73335033D01*
X123610650Y-73338687D01*
X123615194Y-73342806D01*
X123619313Y-73347350D01*
X123622967Y-73352277D01*
X123626120Y-73357538D01*
X123628742Y-73363082D01*
X123630809Y-73368857D01*
X123632299Y-73374807D01*
X123633199Y-73380874D01*
X123633500Y-73387000D01*
X123633500Y-73512000D01*
X123633199Y-73518126D01*
X123632299Y-73524193D01*
X123630809Y-73530143D01*
X123628742Y-73535918D01*
X123626120Y-73541462D01*
X123622967Y-73546723D01*
X123619313Y-73551650D01*
X123615194Y-73556194D01*
X123610650Y-73560313D01*
X123605723Y-73563967D01*
X123600462Y-73567120D01*
X123594918Y-73569742D01*
X123589143Y-73571809D01*
X123583193Y-73573299D01*
X123577126Y-73574199D01*
X123571000Y-73574500D01*
X122871000Y-73574500D01*
X122864874Y-73574199D01*
X122858807Y-73573299D01*
X122852857Y-73571809D01*
X122847082Y-73569742D01*
X122841538Y-73567120D01*
X122836277Y-73563967D01*
X122831350Y-73560313D01*
X122826806Y-73556194D01*
X122822687Y-73551650D01*
X122819033Y-73546723D01*
X122815880Y-73541462D01*
X122813258Y-73535918D01*
X122811191Y-73530143D01*
X122809701Y-73524193D01*
X122808801Y-73518126D01*
X122808500Y-73512000D01*
X122808500Y-73387000D01*
X122808801Y-73380874D01*
X122809701Y-73374807D01*
X122811191Y-73368857D01*
X122813258Y-73363082D01*
X122815880Y-73357538D01*
X122819033Y-73352277D01*
X122822687Y-73347350D01*
X122826806Y-73342806D01*
X122831350Y-73338687D01*
X122836277Y-73335033D01*
X122841538Y-73331880D01*
X122847082Y-73329258D01*
X122852857Y-73327191D01*
X122858807Y-73325701D01*
X122864874Y-73324801D01*
X122871000Y-73324500D01*
X123571000Y-73324500D01*
X123577126Y-73324801D01*
X123577126Y-73324801D01*
G37*
D40*
X123221000Y-73449500D03*
D39*
G36*
X123577126Y-72824801D02*
G01*
X123583193Y-72825701D01*
X123589143Y-72827191D01*
X123594918Y-72829258D01*
X123600462Y-72831880D01*
X123605723Y-72835033D01*
X123610650Y-72838687D01*
X123615194Y-72842806D01*
X123619313Y-72847350D01*
X123622967Y-72852277D01*
X123626120Y-72857538D01*
X123628742Y-72863082D01*
X123630809Y-72868857D01*
X123632299Y-72874807D01*
X123633199Y-72880874D01*
X123633500Y-72887000D01*
X123633500Y-73012000D01*
X123633199Y-73018126D01*
X123632299Y-73024193D01*
X123630809Y-73030143D01*
X123628742Y-73035918D01*
X123626120Y-73041462D01*
X123622967Y-73046723D01*
X123619313Y-73051650D01*
X123615194Y-73056194D01*
X123610650Y-73060313D01*
X123605723Y-73063967D01*
X123600462Y-73067120D01*
X123594918Y-73069742D01*
X123589143Y-73071809D01*
X123583193Y-73073299D01*
X123577126Y-73074199D01*
X123571000Y-73074500D01*
X122871000Y-73074500D01*
X122864874Y-73074199D01*
X122858807Y-73073299D01*
X122852857Y-73071809D01*
X122847082Y-73069742D01*
X122841538Y-73067120D01*
X122836277Y-73063967D01*
X122831350Y-73060313D01*
X122826806Y-73056194D01*
X122822687Y-73051650D01*
X122819033Y-73046723D01*
X122815880Y-73041462D01*
X122813258Y-73035918D01*
X122811191Y-73030143D01*
X122809701Y-73024193D01*
X122808801Y-73018126D01*
X122808500Y-73012000D01*
X122808500Y-72887000D01*
X122808801Y-72880874D01*
X122809701Y-72874807D01*
X122811191Y-72868857D01*
X122813258Y-72863082D01*
X122815880Y-72857538D01*
X122819033Y-72852277D01*
X122822687Y-72847350D01*
X122826806Y-72842806D01*
X122831350Y-72838687D01*
X122836277Y-72835033D01*
X122841538Y-72831880D01*
X122847082Y-72829258D01*
X122852857Y-72827191D01*
X122858807Y-72825701D01*
X122864874Y-72824801D01*
X122871000Y-72824500D01*
X123571000Y-72824500D01*
X123577126Y-72824801D01*
X123577126Y-72824801D01*
G37*
D40*
X123221000Y-72949500D03*
D39*
G36*
X123577126Y-72324801D02*
G01*
X123583193Y-72325701D01*
X123589143Y-72327191D01*
X123594918Y-72329258D01*
X123600462Y-72331880D01*
X123605723Y-72335033D01*
X123610650Y-72338687D01*
X123615194Y-72342806D01*
X123619313Y-72347350D01*
X123622967Y-72352277D01*
X123626120Y-72357538D01*
X123628742Y-72363082D01*
X123630809Y-72368857D01*
X123632299Y-72374807D01*
X123633199Y-72380874D01*
X123633500Y-72387000D01*
X123633500Y-72512000D01*
X123633199Y-72518126D01*
X123632299Y-72524193D01*
X123630809Y-72530143D01*
X123628742Y-72535918D01*
X123626120Y-72541462D01*
X123622967Y-72546723D01*
X123619313Y-72551650D01*
X123615194Y-72556194D01*
X123610650Y-72560313D01*
X123605723Y-72563967D01*
X123600462Y-72567120D01*
X123594918Y-72569742D01*
X123589143Y-72571809D01*
X123583193Y-72573299D01*
X123577126Y-72574199D01*
X123571000Y-72574500D01*
X122871000Y-72574500D01*
X122864874Y-72574199D01*
X122858807Y-72573299D01*
X122852857Y-72571809D01*
X122847082Y-72569742D01*
X122841538Y-72567120D01*
X122836277Y-72563967D01*
X122831350Y-72560313D01*
X122826806Y-72556194D01*
X122822687Y-72551650D01*
X122819033Y-72546723D01*
X122815880Y-72541462D01*
X122813258Y-72535918D01*
X122811191Y-72530143D01*
X122809701Y-72524193D01*
X122808801Y-72518126D01*
X122808500Y-72512000D01*
X122808500Y-72387000D01*
X122808801Y-72380874D01*
X122809701Y-72374807D01*
X122811191Y-72368857D01*
X122813258Y-72363082D01*
X122815880Y-72357538D01*
X122819033Y-72352277D01*
X122822687Y-72347350D01*
X122826806Y-72342806D01*
X122831350Y-72338687D01*
X122836277Y-72335033D01*
X122841538Y-72331880D01*
X122847082Y-72329258D01*
X122852857Y-72327191D01*
X122858807Y-72325701D01*
X122864874Y-72324801D01*
X122871000Y-72324500D01*
X123571000Y-72324500D01*
X123577126Y-72324801D01*
X123577126Y-72324801D01*
G37*
D40*
X123221000Y-72449500D03*
D39*
G36*
X123577126Y-71824801D02*
G01*
X123583193Y-71825701D01*
X123589143Y-71827191D01*
X123594918Y-71829258D01*
X123600462Y-71831880D01*
X123605723Y-71835033D01*
X123610650Y-71838687D01*
X123615194Y-71842806D01*
X123619313Y-71847350D01*
X123622967Y-71852277D01*
X123626120Y-71857538D01*
X123628742Y-71863082D01*
X123630809Y-71868857D01*
X123632299Y-71874807D01*
X123633199Y-71880874D01*
X123633500Y-71887000D01*
X123633500Y-72012000D01*
X123633199Y-72018126D01*
X123632299Y-72024193D01*
X123630809Y-72030143D01*
X123628742Y-72035918D01*
X123626120Y-72041462D01*
X123622967Y-72046723D01*
X123619313Y-72051650D01*
X123615194Y-72056194D01*
X123610650Y-72060313D01*
X123605723Y-72063967D01*
X123600462Y-72067120D01*
X123594918Y-72069742D01*
X123589143Y-72071809D01*
X123583193Y-72073299D01*
X123577126Y-72074199D01*
X123571000Y-72074500D01*
X122871000Y-72074500D01*
X122864874Y-72074199D01*
X122858807Y-72073299D01*
X122852857Y-72071809D01*
X122847082Y-72069742D01*
X122841538Y-72067120D01*
X122836277Y-72063967D01*
X122831350Y-72060313D01*
X122826806Y-72056194D01*
X122822687Y-72051650D01*
X122819033Y-72046723D01*
X122815880Y-72041462D01*
X122813258Y-72035918D01*
X122811191Y-72030143D01*
X122809701Y-72024193D01*
X122808801Y-72018126D01*
X122808500Y-72012000D01*
X122808500Y-71887000D01*
X122808801Y-71880874D01*
X122809701Y-71874807D01*
X122811191Y-71868857D01*
X122813258Y-71863082D01*
X122815880Y-71857538D01*
X122819033Y-71852277D01*
X122822687Y-71847350D01*
X122826806Y-71842806D01*
X122831350Y-71838687D01*
X122836277Y-71835033D01*
X122841538Y-71831880D01*
X122847082Y-71829258D01*
X122852857Y-71827191D01*
X122858807Y-71825701D01*
X122864874Y-71824801D01*
X122871000Y-71824500D01*
X123571000Y-71824500D01*
X123577126Y-71824801D01*
X123577126Y-71824801D01*
G37*
D40*
X123221000Y-71949500D03*
D39*
G36*
X123577126Y-71324801D02*
G01*
X123583193Y-71325701D01*
X123589143Y-71327191D01*
X123594918Y-71329258D01*
X123600462Y-71331880D01*
X123605723Y-71335033D01*
X123610650Y-71338687D01*
X123615194Y-71342806D01*
X123619313Y-71347350D01*
X123622967Y-71352277D01*
X123626120Y-71357538D01*
X123628742Y-71363082D01*
X123630809Y-71368857D01*
X123632299Y-71374807D01*
X123633199Y-71380874D01*
X123633500Y-71387000D01*
X123633500Y-71512000D01*
X123633199Y-71518126D01*
X123632299Y-71524193D01*
X123630809Y-71530143D01*
X123628742Y-71535918D01*
X123626120Y-71541462D01*
X123622967Y-71546723D01*
X123619313Y-71551650D01*
X123615194Y-71556194D01*
X123610650Y-71560313D01*
X123605723Y-71563967D01*
X123600462Y-71567120D01*
X123594918Y-71569742D01*
X123589143Y-71571809D01*
X123583193Y-71573299D01*
X123577126Y-71574199D01*
X123571000Y-71574500D01*
X122871000Y-71574500D01*
X122864874Y-71574199D01*
X122858807Y-71573299D01*
X122852857Y-71571809D01*
X122847082Y-71569742D01*
X122841538Y-71567120D01*
X122836277Y-71563967D01*
X122831350Y-71560313D01*
X122826806Y-71556194D01*
X122822687Y-71551650D01*
X122819033Y-71546723D01*
X122815880Y-71541462D01*
X122813258Y-71535918D01*
X122811191Y-71530143D01*
X122809701Y-71524193D01*
X122808801Y-71518126D01*
X122808500Y-71512000D01*
X122808500Y-71387000D01*
X122808801Y-71380874D01*
X122809701Y-71374807D01*
X122811191Y-71368857D01*
X122813258Y-71363082D01*
X122815880Y-71357538D01*
X122819033Y-71352277D01*
X122822687Y-71347350D01*
X122826806Y-71342806D01*
X122831350Y-71338687D01*
X122836277Y-71335033D01*
X122841538Y-71331880D01*
X122847082Y-71329258D01*
X122852857Y-71327191D01*
X122858807Y-71325701D01*
X122864874Y-71324801D01*
X122871000Y-71324500D01*
X123571000Y-71324500D01*
X123577126Y-71324801D01*
X123577126Y-71324801D01*
G37*
D40*
X123221000Y-71449500D03*
D39*
G36*
X123577126Y-70824801D02*
G01*
X123583193Y-70825701D01*
X123589143Y-70827191D01*
X123594918Y-70829258D01*
X123600462Y-70831880D01*
X123605723Y-70835033D01*
X123610650Y-70838687D01*
X123615194Y-70842806D01*
X123619313Y-70847350D01*
X123622967Y-70852277D01*
X123626120Y-70857538D01*
X123628742Y-70863082D01*
X123630809Y-70868857D01*
X123632299Y-70874807D01*
X123633199Y-70880874D01*
X123633500Y-70887000D01*
X123633500Y-71012000D01*
X123633199Y-71018126D01*
X123632299Y-71024193D01*
X123630809Y-71030143D01*
X123628742Y-71035918D01*
X123626120Y-71041462D01*
X123622967Y-71046723D01*
X123619313Y-71051650D01*
X123615194Y-71056194D01*
X123610650Y-71060313D01*
X123605723Y-71063967D01*
X123600462Y-71067120D01*
X123594918Y-71069742D01*
X123589143Y-71071809D01*
X123583193Y-71073299D01*
X123577126Y-71074199D01*
X123571000Y-71074500D01*
X122871000Y-71074500D01*
X122864874Y-71074199D01*
X122858807Y-71073299D01*
X122852857Y-71071809D01*
X122847082Y-71069742D01*
X122841538Y-71067120D01*
X122836277Y-71063967D01*
X122831350Y-71060313D01*
X122826806Y-71056194D01*
X122822687Y-71051650D01*
X122819033Y-71046723D01*
X122815880Y-71041462D01*
X122813258Y-71035918D01*
X122811191Y-71030143D01*
X122809701Y-71024193D01*
X122808801Y-71018126D01*
X122808500Y-71012000D01*
X122808500Y-70887000D01*
X122808801Y-70880874D01*
X122809701Y-70874807D01*
X122811191Y-70868857D01*
X122813258Y-70863082D01*
X122815880Y-70857538D01*
X122819033Y-70852277D01*
X122822687Y-70847350D01*
X122826806Y-70842806D01*
X122831350Y-70838687D01*
X122836277Y-70835033D01*
X122841538Y-70831880D01*
X122847082Y-70829258D01*
X122852857Y-70827191D01*
X122858807Y-70825701D01*
X122864874Y-70824801D01*
X122871000Y-70824500D01*
X123571000Y-70824500D01*
X123577126Y-70824801D01*
X123577126Y-70824801D01*
G37*
D40*
X123221000Y-70949500D03*
D39*
G36*
X123977126Y-69849801D02*
G01*
X123983193Y-69850701D01*
X123989143Y-69852191D01*
X123994918Y-69854258D01*
X124000462Y-69856880D01*
X124005723Y-69860033D01*
X124010650Y-69863687D01*
X124015194Y-69867806D01*
X124019313Y-69872350D01*
X124022967Y-69877277D01*
X124026120Y-69882538D01*
X124028742Y-69888082D01*
X124030809Y-69893857D01*
X124032299Y-69899807D01*
X124033199Y-69905874D01*
X124033500Y-69912000D01*
X124033500Y-70612000D01*
X124033199Y-70618126D01*
X124032299Y-70624193D01*
X124030809Y-70630143D01*
X124028742Y-70635918D01*
X124026120Y-70641462D01*
X124022967Y-70646723D01*
X124019313Y-70651650D01*
X124015194Y-70656194D01*
X124010650Y-70660313D01*
X124005723Y-70663967D01*
X124000462Y-70667120D01*
X123994918Y-70669742D01*
X123989143Y-70671809D01*
X123983193Y-70673299D01*
X123977126Y-70674199D01*
X123971000Y-70674500D01*
X123846000Y-70674500D01*
X123839874Y-70674199D01*
X123833807Y-70673299D01*
X123827857Y-70671809D01*
X123822082Y-70669742D01*
X123816538Y-70667120D01*
X123811277Y-70663967D01*
X123806350Y-70660313D01*
X123801806Y-70656194D01*
X123797687Y-70651650D01*
X123794033Y-70646723D01*
X123790880Y-70641462D01*
X123788258Y-70635918D01*
X123786191Y-70630143D01*
X123784701Y-70624193D01*
X123783801Y-70618126D01*
X123783500Y-70612000D01*
X123783500Y-69912000D01*
X123783801Y-69905874D01*
X123784701Y-69899807D01*
X123786191Y-69893857D01*
X123788258Y-69888082D01*
X123790880Y-69882538D01*
X123794033Y-69877277D01*
X123797687Y-69872350D01*
X123801806Y-69867806D01*
X123806350Y-69863687D01*
X123811277Y-69860033D01*
X123816538Y-69856880D01*
X123822082Y-69854258D01*
X123827857Y-69852191D01*
X123833807Y-69850701D01*
X123839874Y-69849801D01*
X123846000Y-69849500D01*
X123971000Y-69849500D01*
X123977126Y-69849801D01*
X123977126Y-69849801D01*
G37*
D40*
X123908500Y-70262000D03*
D39*
G36*
X124477126Y-69849801D02*
G01*
X124483193Y-69850701D01*
X124489143Y-69852191D01*
X124494918Y-69854258D01*
X124500462Y-69856880D01*
X124505723Y-69860033D01*
X124510650Y-69863687D01*
X124515194Y-69867806D01*
X124519313Y-69872350D01*
X124522967Y-69877277D01*
X124526120Y-69882538D01*
X124528742Y-69888082D01*
X124530809Y-69893857D01*
X124532299Y-69899807D01*
X124533199Y-69905874D01*
X124533500Y-69912000D01*
X124533500Y-70612000D01*
X124533199Y-70618126D01*
X124532299Y-70624193D01*
X124530809Y-70630143D01*
X124528742Y-70635918D01*
X124526120Y-70641462D01*
X124522967Y-70646723D01*
X124519313Y-70651650D01*
X124515194Y-70656194D01*
X124510650Y-70660313D01*
X124505723Y-70663967D01*
X124500462Y-70667120D01*
X124494918Y-70669742D01*
X124489143Y-70671809D01*
X124483193Y-70673299D01*
X124477126Y-70674199D01*
X124471000Y-70674500D01*
X124346000Y-70674500D01*
X124339874Y-70674199D01*
X124333807Y-70673299D01*
X124327857Y-70671809D01*
X124322082Y-70669742D01*
X124316538Y-70667120D01*
X124311277Y-70663967D01*
X124306350Y-70660313D01*
X124301806Y-70656194D01*
X124297687Y-70651650D01*
X124294033Y-70646723D01*
X124290880Y-70641462D01*
X124288258Y-70635918D01*
X124286191Y-70630143D01*
X124284701Y-70624193D01*
X124283801Y-70618126D01*
X124283500Y-70612000D01*
X124283500Y-69912000D01*
X124283801Y-69905874D01*
X124284701Y-69899807D01*
X124286191Y-69893857D01*
X124288258Y-69888082D01*
X124290880Y-69882538D01*
X124294033Y-69877277D01*
X124297687Y-69872350D01*
X124301806Y-69867806D01*
X124306350Y-69863687D01*
X124311277Y-69860033D01*
X124316538Y-69856880D01*
X124322082Y-69854258D01*
X124327857Y-69852191D01*
X124333807Y-69850701D01*
X124339874Y-69849801D01*
X124346000Y-69849500D01*
X124471000Y-69849500D01*
X124477126Y-69849801D01*
X124477126Y-69849801D01*
G37*
D40*
X124408500Y-70262000D03*
D39*
G36*
X124977126Y-69849801D02*
G01*
X124983193Y-69850701D01*
X124989143Y-69852191D01*
X124994918Y-69854258D01*
X125000462Y-69856880D01*
X125005723Y-69860033D01*
X125010650Y-69863687D01*
X125015194Y-69867806D01*
X125019313Y-69872350D01*
X125022967Y-69877277D01*
X125026120Y-69882538D01*
X125028742Y-69888082D01*
X125030809Y-69893857D01*
X125032299Y-69899807D01*
X125033199Y-69905874D01*
X125033500Y-69912000D01*
X125033500Y-70612000D01*
X125033199Y-70618126D01*
X125032299Y-70624193D01*
X125030809Y-70630143D01*
X125028742Y-70635918D01*
X125026120Y-70641462D01*
X125022967Y-70646723D01*
X125019313Y-70651650D01*
X125015194Y-70656194D01*
X125010650Y-70660313D01*
X125005723Y-70663967D01*
X125000462Y-70667120D01*
X124994918Y-70669742D01*
X124989143Y-70671809D01*
X124983193Y-70673299D01*
X124977126Y-70674199D01*
X124971000Y-70674500D01*
X124846000Y-70674500D01*
X124839874Y-70674199D01*
X124833807Y-70673299D01*
X124827857Y-70671809D01*
X124822082Y-70669742D01*
X124816538Y-70667120D01*
X124811277Y-70663967D01*
X124806350Y-70660313D01*
X124801806Y-70656194D01*
X124797687Y-70651650D01*
X124794033Y-70646723D01*
X124790880Y-70641462D01*
X124788258Y-70635918D01*
X124786191Y-70630143D01*
X124784701Y-70624193D01*
X124783801Y-70618126D01*
X124783500Y-70612000D01*
X124783500Y-69912000D01*
X124783801Y-69905874D01*
X124784701Y-69899807D01*
X124786191Y-69893857D01*
X124788258Y-69888082D01*
X124790880Y-69882538D01*
X124794033Y-69877277D01*
X124797687Y-69872350D01*
X124801806Y-69867806D01*
X124806350Y-69863687D01*
X124811277Y-69860033D01*
X124816538Y-69856880D01*
X124822082Y-69854258D01*
X124827857Y-69852191D01*
X124833807Y-69850701D01*
X124839874Y-69849801D01*
X124846000Y-69849500D01*
X124971000Y-69849500D01*
X124977126Y-69849801D01*
X124977126Y-69849801D01*
G37*
D40*
X124908500Y-70262000D03*
D39*
G36*
X125477126Y-69849801D02*
G01*
X125483193Y-69850701D01*
X125489143Y-69852191D01*
X125494918Y-69854258D01*
X125500462Y-69856880D01*
X125505723Y-69860033D01*
X125510650Y-69863687D01*
X125515194Y-69867806D01*
X125519313Y-69872350D01*
X125522967Y-69877277D01*
X125526120Y-69882538D01*
X125528742Y-69888082D01*
X125530809Y-69893857D01*
X125532299Y-69899807D01*
X125533199Y-69905874D01*
X125533500Y-69912000D01*
X125533500Y-70612000D01*
X125533199Y-70618126D01*
X125532299Y-70624193D01*
X125530809Y-70630143D01*
X125528742Y-70635918D01*
X125526120Y-70641462D01*
X125522967Y-70646723D01*
X125519313Y-70651650D01*
X125515194Y-70656194D01*
X125510650Y-70660313D01*
X125505723Y-70663967D01*
X125500462Y-70667120D01*
X125494918Y-70669742D01*
X125489143Y-70671809D01*
X125483193Y-70673299D01*
X125477126Y-70674199D01*
X125471000Y-70674500D01*
X125346000Y-70674500D01*
X125339874Y-70674199D01*
X125333807Y-70673299D01*
X125327857Y-70671809D01*
X125322082Y-70669742D01*
X125316538Y-70667120D01*
X125311277Y-70663967D01*
X125306350Y-70660313D01*
X125301806Y-70656194D01*
X125297687Y-70651650D01*
X125294033Y-70646723D01*
X125290880Y-70641462D01*
X125288258Y-70635918D01*
X125286191Y-70630143D01*
X125284701Y-70624193D01*
X125283801Y-70618126D01*
X125283500Y-70612000D01*
X125283500Y-69912000D01*
X125283801Y-69905874D01*
X125284701Y-69899807D01*
X125286191Y-69893857D01*
X125288258Y-69888082D01*
X125290880Y-69882538D01*
X125294033Y-69877277D01*
X125297687Y-69872350D01*
X125301806Y-69867806D01*
X125306350Y-69863687D01*
X125311277Y-69860033D01*
X125316538Y-69856880D01*
X125322082Y-69854258D01*
X125327857Y-69852191D01*
X125333807Y-69850701D01*
X125339874Y-69849801D01*
X125346000Y-69849500D01*
X125471000Y-69849500D01*
X125477126Y-69849801D01*
X125477126Y-69849801D01*
G37*
D40*
X125408500Y-70262000D03*
D39*
G36*
X125977126Y-69849801D02*
G01*
X125983193Y-69850701D01*
X125989143Y-69852191D01*
X125994918Y-69854258D01*
X126000462Y-69856880D01*
X126005723Y-69860033D01*
X126010650Y-69863687D01*
X126015194Y-69867806D01*
X126019313Y-69872350D01*
X126022967Y-69877277D01*
X126026120Y-69882538D01*
X126028742Y-69888082D01*
X126030809Y-69893857D01*
X126032299Y-69899807D01*
X126033199Y-69905874D01*
X126033500Y-69912000D01*
X126033500Y-70612000D01*
X126033199Y-70618126D01*
X126032299Y-70624193D01*
X126030809Y-70630143D01*
X126028742Y-70635918D01*
X126026120Y-70641462D01*
X126022967Y-70646723D01*
X126019313Y-70651650D01*
X126015194Y-70656194D01*
X126010650Y-70660313D01*
X126005723Y-70663967D01*
X126000462Y-70667120D01*
X125994918Y-70669742D01*
X125989143Y-70671809D01*
X125983193Y-70673299D01*
X125977126Y-70674199D01*
X125971000Y-70674500D01*
X125846000Y-70674500D01*
X125839874Y-70674199D01*
X125833807Y-70673299D01*
X125827857Y-70671809D01*
X125822082Y-70669742D01*
X125816538Y-70667120D01*
X125811277Y-70663967D01*
X125806350Y-70660313D01*
X125801806Y-70656194D01*
X125797687Y-70651650D01*
X125794033Y-70646723D01*
X125790880Y-70641462D01*
X125788258Y-70635918D01*
X125786191Y-70630143D01*
X125784701Y-70624193D01*
X125783801Y-70618126D01*
X125783500Y-70612000D01*
X125783500Y-69912000D01*
X125783801Y-69905874D01*
X125784701Y-69899807D01*
X125786191Y-69893857D01*
X125788258Y-69888082D01*
X125790880Y-69882538D01*
X125794033Y-69877277D01*
X125797687Y-69872350D01*
X125801806Y-69867806D01*
X125806350Y-69863687D01*
X125811277Y-69860033D01*
X125816538Y-69856880D01*
X125822082Y-69854258D01*
X125827857Y-69852191D01*
X125833807Y-69850701D01*
X125839874Y-69849801D01*
X125846000Y-69849500D01*
X125971000Y-69849500D01*
X125977126Y-69849801D01*
X125977126Y-69849801D01*
G37*
D40*
X125908500Y-70262000D03*
D39*
G36*
X126477126Y-69849801D02*
G01*
X126483193Y-69850701D01*
X126489143Y-69852191D01*
X126494918Y-69854258D01*
X126500462Y-69856880D01*
X126505723Y-69860033D01*
X126510650Y-69863687D01*
X126515194Y-69867806D01*
X126519313Y-69872350D01*
X126522967Y-69877277D01*
X126526120Y-69882538D01*
X126528742Y-69888082D01*
X126530809Y-69893857D01*
X126532299Y-69899807D01*
X126533199Y-69905874D01*
X126533500Y-69912000D01*
X126533500Y-70612000D01*
X126533199Y-70618126D01*
X126532299Y-70624193D01*
X126530809Y-70630143D01*
X126528742Y-70635918D01*
X126526120Y-70641462D01*
X126522967Y-70646723D01*
X126519313Y-70651650D01*
X126515194Y-70656194D01*
X126510650Y-70660313D01*
X126505723Y-70663967D01*
X126500462Y-70667120D01*
X126494918Y-70669742D01*
X126489143Y-70671809D01*
X126483193Y-70673299D01*
X126477126Y-70674199D01*
X126471000Y-70674500D01*
X126346000Y-70674500D01*
X126339874Y-70674199D01*
X126333807Y-70673299D01*
X126327857Y-70671809D01*
X126322082Y-70669742D01*
X126316538Y-70667120D01*
X126311277Y-70663967D01*
X126306350Y-70660313D01*
X126301806Y-70656194D01*
X126297687Y-70651650D01*
X126294033Y-70646723D01*
X126290880Y-70641462D01*
X126288258Y-70635918D01*
X126286191Y-70630143D01*
X126284701Y-70624193D01*
X126283801Y-70618126D01*
X126283500Y-70612000D01*
X126283500Y-69912000D01*
X126283801Y-69905874D01*
X126284701Y-69899807D01*
X126286191Y-69893857D01*
X126288258Y-69888082D01*
X126290880Y-69882538D01*
X126294033Y-69877277D01*
X126297687Y-69872350D01*
X126301806Y-69867806D01*
X126306350Y-69863687D01*
X126311277Y-69860033D01*
X126316538Y-69856880D01*
X126322082Y-69854258D01*
X126327857Y-69852191D01*
X126333807Y-69850701D01*
X126339874Y-69849801D01*
X126346000Y-69849500D01*
X126471000Y-69849500D01*
X126477126Y-69849801D01*
X126477126Y-69849801D01*
G37*
D40*
X126408500Y-70262000D03*
D39*
G36*
X127452126Y-70824801D02*
G01*
X127458193Y-70825701D01*
X127464143Y-70827191D01*
X127469918Y-70829258D01*
X127475462Y-70831880D01*
X127480723Y-70835033D01*
X127485650Y-70838687D01*
X127490194Y-70842806D01*
X127494313Y-70847350D01*
X127497967Y-70852277D01*
X127501120Y-70857538D01*
X127503742Y-70863082D01*
X127505809Y-70868857D01*
X127507299Y-70874807D01*
X127508199Y-70880874D01*
X127508500Y-70887000D01*
X127508500Y-71012000D01*
X127508199Y-71018126D01*
X127507299Y-71024193D01*
X127505809Y-71030143D01*
X127503742Y-71035918D01*
X127501120Y-71041462D01*
X127497967Y-71046723D01*
X127494313Y-71051650D01*
X127490194Y-71056194D01*
X127485650Y-71060313D01*
X127480723Y-71063967D01*
X127475462Y-71067120D01*
X127469918Y-71069742D01*
X127464143Y-71071809D01*
X127458193Y-71073299D01*
X127452126Y-71074199D01*
X127446000Y-71074500D01*
X126746000Y-71074500D01*
X126739874Y-71074199D01*
X126733807Y-71073299D01*
X126727857Y-71071809D01*
X126722082Y-71069742D01*
X126716538Y-71067120D01*
X126711277Y-71063967D01*
X126706350Y-71060313D01*
X126701806Y-71056194D01*
X126697687Y-71051650D01*
X126694033Y-71046723D01*
X126690880Y-71041462D01*
X126688258Y-71035918D01*
X126686191Y-71030143D01*
X126684701Y-71024193D01*
X126683801Y-71018126D01*
X126683500Y-71012000D01*
X126683500Y-70887000D01*
X126683801Y-70880874D01*
X126684701Y-70874807D01*
X126686191Y-70868857D01*
X126688258Y-70863082D01*
X126690880Y-70857538D01*
X126694033Y-70852277D01*
X126697687Y-70847350D01*
X126701806Y-70842806D01*
X126706350Y-70838687D01*
X126711277Y-70835033D01*
X126716538Y-70831880D01*
X126722082Y-70829258D01*
X126727857Y-70827191D01*
X126733807Y-70825701D01*
X126739874Y-70824801D01*
X126746000Y-70824500D01*
X127446000Y-70824500D01*
X127452126Y-70824801D01*
X127452126Y-70824801D01*
G37*
D40*
X127096000Y-70949500D03*
D39*
G36*
X127452126Y-71324801D02*
G01*
X127458193Y-71325701D01*
X127464143Y-71327191D01*
X127469918Y-71329258D01*
X127475462Y-71331880D01*
X127480723Y-71335033D01*
X127485650Y-71338687D01*
X127490194Y-71342806D01*
X127494313Y-71347350D01*
X127497967Y-71352277D01*
X127501120Y-71357538D01*
X127503742Y-71363082D01*
X127505809Y-71368857D01*
X127507299Y-71374807D01*
X127508199Y-71380874D01*
X127508500Y-71387000D01*
X127508500Y-71512000D01*
X127508199Y-71518126D01*
X127507299Y-71524193D01*
X127505809Y-71530143D01*
X127503742Y-71535918D01*
X127501120Y-71541462D01*
X127497967Y-71546723D01*
X127494313Y-71551650D01*
X127490194Y-71556194D01*
X127485650Y-71560313D01*
X127480723Y-71563967D01*
X127475462Y-71567120D01*
X127469918Y-71569742D01*
X127464143Y-71571809D01*
X127458193Y-71573299D01*
X127452126Y-71574199D01*
X127446000Y-71574500D01*
X126746000Y-71574500D01*
X126739874Y-71574199D01*
X126733807Y-71573299D01*
X126727857Y-71571809D01*
X126722082Y-71569742D01*
X126716538Y-71567120D01*
X126711277Y-71563967D01*
X126706350Y-71560313D01*
X126701806Y-71556194D01*
X126697687Y-71551650D01*
X126694033Y-71546723D01*
X126690880Y-71541462D01*
X126688258Y-71535918D01*
X126686191Y-71530143D01*
X126684701Y-71524193D01*
X126683801Y-71518126D01*
X126683500Y-71512000D01*
X126683500Y-71387000D01*
X126683801Y-71380874D01*
X126684701Y-71374807D01*
X126686191Y-71368857D01*
X126688258Y-71363082D01*
X126690880Y-71357538D01*
X126694033Y-71352277D01*
X126697687Y-71347350D01*
X126701806Y-71342806D01*
X126706350Y-71338687D01*
X126711277Y-71335033D01*
X126716538Y-71331880D01*
X126722082Y-71329258D01*
X126727857Y-71327191D01*
X126733807Y-71325701D01*
X126739874Y-71324801D01*
X126746000Y-71324500D01*
X127446000Y-71324500D01*
X127452126Y-71324801D01*
X127452126Y-71324801D01*
G37*
D40*
X127096000Y-71449500D03*
D39*
G36*
X127452126Y-71824801D02*
G01*
X127458193Y-71825701D01*
X127464143Y-71827191D01*
X127469918Y-71829258D01*
X127475462Y-71831880D01*
X127480723Y-71835033D01*
X127485650Y-71838687D01*
X127490194Y-71842806D01*
X127494313Y-71847350D01*
X127497967Y-71852277D01*
X127501120Y-71857538D01*
X127503742Y-71863082D01*
X127505809Y-71868857D01*
X127507299Y-71874807D01*
X127508199Y-71880874D01*
X127508500Y-71887000D01*
X127508500Y-72012000D01*
X127508199Y-72018126D01*
X127507299Y-72024193D01*
X127505809Y-72030143D01*
X127503742Y-72035918D01*
X127501120Y-72041462D01*
X127497967Y-72046723D01*
X127494313Y-72051650D01*
X127490194Y-72056194D01*
X127485650Y-72060313D01*
X127480723Y-72063967D01*
X127475462Y-72067120D01*
X127469918Y-72069742D01*
X127464143Y-72071809D01*
X127458193Y-72073299D01*
X127452126Y-72074199D01*
X127446000Y-72074500D01*
X126746000Y-72074500D01*
X126739874Y-72074199D01*
X126733807Y-72073299D01*
X126727857Y-72071809D01*
X126722082Y-72069742D01*
X126716538Y-72067120D01*
X126711277Y-72063967D01*
X126706350Y-72060313D01*
X126701806Y-72056194D01*
X126697687Y-72051650D01*
X126694033Y-72046723D01*
X126690880Y-72041462D01*
X126688258Y-72035918D01*
X126686191Y-72030143D01*
X126684701Y-72024193D01*
X126683801Y-72018126D01*
X126683500Y-72012000D01*
X126683500Y-71887000D01*
X126683801Y-71880874D01*
X126684701Y-71874807D01*
X126686191Y-71868857D01*
X126688258Y-71863082D01*
X126690880Y-71857538D01*
X126694033Y-71852277D01*
X126697687Y-71847350D01*
X126701806Y-71842806D01*
X126706350Y-71838687D01*
X126711277Y-71835033D01*
X126716538Y-71831880D01*
X126722082Y-71829258D01*
X126727857Y-71827191D01*
X126733807Y-71825701D01*
X126739874Y-71824801D01*
X126746000Y-71824500D01*
X127446000Y-71824500D01*
X127452126Y-71824801D01*
X127452126Y-71824801D01*
G37*
D40*
X127096000Y-71949500D03*
D39*
G36*
X127452126Y-72324801D02*
G01*
X127458193Y-72325701D01*
X127464143Y-72327191D01*
X127469918Y-72329258D01*
X127475462Y-72331880D01*
X127480723Y-72335033D01*
X127485650Y-72338687D01*
X127490194Y-72342806D01*
X127494313Y-72347350D01*
X127497967Y-72352277D01*
X127501120Y-72357538D01*
X127503742Y-72363082D01*
X127505809Y-72368857D01*
X127507299Y-72374807D01*
X127508199Y-72380874D01*
X127508500Y-72387000D01*
X127508500Y-72512000D01*
X127508199Y-72518126D01*
X127507299Y-72524193D01*
X127505809Y-72530143D01*
X127503742Y-72535918D01*
X127501120Y-72541462D01*
X127497967Y-72546723D01*
X127494313Y-72551650D01*
X127490194Y-72556194D01*
X127485650Y-72560313D01*
X127480723Y-72563967D01*
X127475462Y-72567120D01*
X127469918Y-72569742D01*
X127464143Y-72571809D01*
X127458193Y-72573299D01*
X127452126Y-72574199D01*
X127446000Y-72574500D01*
X126746000Y-72574500D01*
X126739874Y-72574199D01*
X126733807Y-72573299D01*
X126727857Y-72571809D01*
X126722082Y-72569742D01*
X126716538Y-72567120D01*
X126711277Y-72563967D01*
X126706350Y-72560313D01*
X126701806Y-72556194D01*
X126697687Y-72551650D01*
X126694033Y-72546723D01*
X126690880Y-72541462D01*
X126688258Y-72535918D01*
X126686191Y-72530143D01*
X126684701Y-72524193D01*
X126683801Y-72518126D01*
X126683500Y-72512000D01*
X126683500Y-72387000D01*
X126683801Y-72380874D01*
X126684701Y-72374807D01*
X126686191Y-72368857D01*
X126688258Y-72363082D01*
X126690880Y-72357538D01*
X126694033Y-72352277D01*
X126697687Y-72347350D01*
X126701806Y-72342806D01*
X126706350Y-72338687D01*
X126711277Y-72335033D01*
X126716538Y-72331880D01*
X126722082Y-72329258D01*
X126727857Y-72327191D01*
X126733807Y-72325701D01*
X126739874Y-72324801D01*
X126746000Y-72324500D01*
X127446000Y-72324500D01*
X127452126Y-72324801D01*
X127452126Y-72324801D01*
G37*
D40*
X127096000Y-72449500D03*
D39*
G36*
X127452126Y-72824801D02*
G01*
X127458193Y-72825701D01*
X127464143Y-72827191D01*
X127469918Y-72829258D01*
X127475462Y-72831880D01*
X127480723Y-72835033D01*
X127485650Y-72838687D01*
X127490194Y-72842806D01*
X127494313Y-72847350D01*
X127497967Y-72852277D01*
X127501120Y-72857538D01*
X127503742Y-72863082D01*
X127505809Y-72868857D01*
X127507299Y-72874807D01*
X127508199Y-72880874D01*
X127508500Y-72887000D01*
X127508500Y-73012000D01*
X127508199Y-73018126D01*
X127507299Y-73024193D01*
X127505809Y-73030143D01*
X127503742Y-73035918D01*
X127501120Y-73041462D01*
X127497967Y-73046723D01*
X127494313Y-73051650D01*
X127490194Y-73056194D01*
X127485650Y-73060313D01*
X127480723Y-73063967D01*
X127475462Y-73067120D01*
X127469918Y-73069742D01*
X127464143Y-73071809D01*
X127458193Y-73073299D01*
X127452126Y-73074199D01*
X127446000Y-73074500D01*
X126746000Y-73074500D01*
X126739874Y-73074199D01*
X126733807Y-73073299D01*
X126727857Y-73071809D01*
X126722082Y-73069742D01*
X126716538Y-73067120D01*
X126711277Y-73063967D01*
X126706350Y-73060313D01*
X126701806Y-73056194D01*
X126697687Y-73051650D01*
X126694033Y-73046723D01*
X126690880Y-73041462D01*
X126688258Y-73035918D01*
X126686191Y-73030143D01*
X126684701Y-73024193D01*
X126683801Y-73018126D01*
X126683500Y-73012000D01*
X126683500Y-72887000D01*
X126683801Y-72880874D01*
X126684701Y-72874807D01*
X126686191Y-72868857D01*
X126688258Y-72863082D01*
X126690880Y-72857538D01*
X126694033Y-72852277D01*
X126697687Y-72847350D01*
X126701806Y-72842806D01*
X126706350Y-72838687D01*
X126711277Y-72835033D01*
X126716538Y-72831880D01*
X126722082Y-72829258D01*
X126727857Y-72827191D01*
X126733807Y-72825701D01*
X126739874Y-72824801D01*
X126746000Y-72824500D01*
X127446000Y-72824500D01*
X127452126Y-72824801D01*
X127452126Y-72824801D01*
G37*
D40*
X127096000Y-72949500D03*
D39*
G36*
X127452126Y-73324801D02*
G01*
X127458193Y-73325701D01*
X127464143Y-73327191D01*
X127469918Y-73329258D01*
X127475462Y-73331880D01*
X127480723Y-73335033D01*
X127485650Y-73338687D01*
X127490194Y-73342806D01*
X127494313Y-73347350D01*
X127497967Y-73352277D01*
X127501120Y-73357538D01*
X127503742Y-73363082D01*
X127505809Y-73368857D01*
X127507299Y-73374807D01*
X127508199Y-73380874D01*
X127508500Y-73387000D01*
X127508500Y-73512000D01*
X127508199Y-73518126D01*
X127507299Y-73524193D01*
X127505809Y-73530143D01*
X127503742Y-73535918D01*
X127501120Y-73541462D01*
X127497967Y-73546723D01*
X127494313Y-73551650D01*
X127490194Y-73556194D01*
X127485650Y-73560313D01*
X127480723Y-73563967D01*
X127475462Y-73567120D01*
X127469918Y-73569742D01*
X127464143Y-73571809D01*
X127458193Y-73573299D01*
X127452126Y-73574199D01*
X127446000Y-73574500D01*
X126746000Y-73574500D01*
X126739874Y-73574199D01*
X126733807Y-73573299D01*
X126727857Y-73571809D01*
X126722082Y-73569742D01*
X126716538Y-73567120D01*
X126711277Y-73563967D01*
X126706350Y-73560313D01*
X126701806Y-73556194D01*
X126697687Y-73551650D01*
X126694033Y-73546723D01*
X126690880Y-73541462D01*
X126688258Y-73535918D01*
X126686191Y-73530143D01*
X126684701Y-73524193D01*
X126683801Y-73518126D01*
X126683500Y-73512000D01*
X126683500Y-73387000D01*
X126683801Y-73380874D01*
X126684701Y-73374807D01*
X126686191Y-73368857D01*
X126688258Y-73363082D01*
X126690880Y-73357538D01*
X126694033Y-73352277D01*
X126697687Y-73347350D01*
X126701806Y-73342806D01*
X126706350Y-73338687D01*
X126711277Y-73335033D01*
X126716538Y-73331880D01*
X126722082Y-73329258D01*
X126727857Y-73327191D01*
X126733807Y-73325701D01*
X126739874Y-73324801D01*
X126746000Y-73324500D01*
X127446000Y-73324500D01*
X127452126Y-73324801D01*
X127452126Y-73324801D01*
G37*
D40*
X127096000Y-73449500D03*
D39*
G36*
X126477126Y-73724801D02*
G01*
X126483193Y-73725701D01*
X126489143Y-73727191D01*
X126494918Y-73729258D01*
X126500462Y-73731880D01*
X126505723Y-73735033D01*
X126510650Y-73738687D01*
X126515194Y-73742806D01*
X126519313Y-73747350D01*
X126522967Y-73752277D01*
X126526120Y-73757538D01*
X126528742Y-73763082D01*
X126530809Y-73768857D01*
X126532299Y-73774807D01*
X126533199Y-73780874D01*
X126533500Y-73787000D01*
X126533500Y-74487000D01*
X126533199Y-74493126D01*
X126532299Y-74499193D01*
X126530809Y-74505143D01*
X126528742Y-74510918D01*
X126526120Y-74516462D01*
X126522967Y-74521723D01*
X126519313Y-74526650D01*
X126515194Y-74531194D01*
X126510650Y-74535313D01*
X126505723Y-74538967D01*
X126500462Y-74542120D01*
X126494918Y-74544742D01*
X126489143Y-74546809D01*
X126483193Y-74548299D01*
X126477126Y-74549199D01*
X126471000Y-74549500D01*
X126346000Y-74549500D01*
X126339874Y-74549199D01*
X126333807Y-74548299D01*
X126327857Y-74546809D01*
X126322082Y-74544742D01*
X126316538Y-74542120D01*
X126311277Y-74538967D01*
X126306350Y-74535313D01*
X126301806Y-74531194D01*
X126297687Y-74526650D01*
X126294033Y-74521723D01*
X126290880Y-74516462D01*
X126288258Y-74510918D01*
X126286191Y-74505143D01*
X126284701Y-74499193D01*
X126283801Y-74493126D01*
X126283500Y-74487000D01*
X126283500Y-73787000D01*
X126283801Y-73780874D01*
X126284701Y-73774807D01*
X126286191Y-73768857D01*
X126288258Y-73763082D01*
X126290880Y-73757538D01*
X126294033Y-73752277D01*
X126297687Y-73747350D01*
X126301806Y-73742806D01*
X126306350Y-73738687D01*
X126311277Y-73735033D01*
X126316538Y-73731880D01*
X126322082Y-73729258D01*
X126327857Y-73727191D01*
X126333807Y-73725701D01*
X126339874Y-73724801D01*
X126346000Y-73724500D01*
X126471000Y-73724500D01*
X126477126Y-73724801D01*
X126477126Y-73724801D01*
G37*
D40*
X126408500Y-74137000D03*
D39*
G36*
X125977126Y-73724801D02*
G01*
X125983193Y-73725701D01*
X125989143Y-73727191D01*
X125994918Y-73729258D01*
X126000462Y-73731880D01*
X126005723Y-73735033D01*
X126010650Y-73738687D01*
X126015194Y-73742806D01*
X126019313Y-73747350D01*
X126022967Y-73752277D01*
X126026120Y-73757538D01*
X126028742Y-73763082D01*
X126030809Y-73768857D01*
X126032299Y-73774807D01*
X126033199Y-73780874D01*
X126033500Y-73787000D01*
X126033500Y-74487000D01*
X126033199Y-74493126D01*
X126032299Y-74499193D01*
X126030809Y-74505143D01*
X126028742Y-74510918D01*
X126026120Y-74516462D01*
X126022967Y-74521723D01*
X126019313Y-74526650D01*
X126015194Y-74531194D01*
X126010650Y-74535313D01*
X126005723Y-74538967D01*
X126000462Y-74542120D01*
X125994918Y-74544742D01*
X125989143Y-74546809D01*
X125983193Y-74548299D01*
X125977126Y-74549199D01*
X125971000Y-74549500D01*
X125846000Y-74549500D01*
X125839874Y-74549199D01*
X125833807Y-74548299D01*
X125827857Y-74546809D01*
X125822082Y-74544742D01*
X125816538Y-74542120D01*
X125811277Y-74538967D01*
X125806350Y-74535313D01*
X125801806Y-74531194D01*
X125797687Y-74526650D01*
X125794033Y-74521723D01*
X125790880Y-74516462D01*
X125788258Y-74510918D01*
X125786191Y-74505143D01*
X125784701Y-74499193D01*
X125783801Y-74493126D01*
X125783500Y-74487000D01*
X125783500Y-73787000D01*
X125783801Y-73780874D01*
X125784701Y-73774807D01*
X125786191Y-73768857D01*
X125788258Y-73763082D01*
X125790880Y-73757538D01*
X125794033Y-73752277D01*
X125797687Y-73747350D01*
X125801806Y-73742806D01*
X125806350Y-73738687D01*
X125811277Y-73735033D01*
X125816538Y-73731880D01*
X125822082Y-73729258D01*
X125827857Y-73727191D01*
X125833807Y-73725701D01*
X125839874Y-73724801D01*
X125846000Y-73724500D01*
X125971000Y-73724500D01*
X125977126Y-73724801D01*
X125977126Y-73724801D01*
G37*
D40*
X125908500Y-74137000D03*
D39*
G36*
X125477126Y-73724801D02*
G01*
X125483193Y-73725701D01*
X125489143Y-73727191D01*
X125494918Y-73729258D01*
X125500462Y-73731880D01*
X125505723Y-73735033D01*
X125510650Y-73738687D01*
X125515194Y-73742806D01*
X125519313Y-73747350D01*
X125522967Y-73752277D01*
X125526120Y-73757538D01*
X125528742Y-73763082D01*
X125530809Y-73768857D01*
X125532299Y-73774807D01*
X125533199Y-73780874D01*
X125533500Y-73787000D01*
X125533500Y-74487000D01*
X125533199Y-74493126D01*
X125532299Y-74499193D01*
X125530809Y-74505143D01*
X125528742Y-74510918D01*
X125526120Y-74516462D01*
X125522967Y-74521723D01*
X125519313Y-74526650D01*
X125515194Y-74531194D01*
X125510650Y-74535313D01*
X125505723Y-74538967D01*
X125500462Y-74542120D01*
X125494918Y-74544742D01*
X125489143Y-74546809D01*
X125483193Y-74548299D01*
X125477126Y-74549199D01*
X125471000Y-74549500D01*
X125346000Y-74549500D01*
X125339874Y-74549199D01*
X125333807Y-74548299D01*
X125327857Y-74546809D01*
X125322082Y-74544742D01*
X125316538Y-74542120D01*
X125311277Y-74538967D01*
X125306350Y-74535313D01*
X125301806Y-74531194D01*
X125297687Y-74526650D01*
X125294033Y-74521723D01*
X125290880Y-74516462D01*
X125288258Y-74510918D01*
X125286191Y-74505143D01*
X125284701Y-74499193D01*
X125283801Y-74493126D01*
X125283500Y-74487000D01*
X125283500Y-73787000D01*
X125283801Y-73780874D01*
X125284701Y-73774807D01*
X125286191Y-73768857D01*
X125288258Y-73763082D01*
X125290880Y-73757538D01*
X125294033Y-73752277D01*
X125297687Y-73747350D01*
X125301806Y-73742806D01*
X125306350Y-73738687D01*
X125311277Y-73735033D01*
X125316538Y-73731880D01*
X125322082Y-73729258D01*
X125327857Y-73727191D01*
X125333807Y-73725701D01*
X125339874Y-73724801D01*
X125346000Y-73724500D01*
X125471000Y-73724500D01*
X125477126Y-73724801D01*
X125477126Y-73724801D01*
G37*
D40*
X125408500Y-74137000D03*
D39*
G36*
X124977126Y-73724801D02*
G01*
X124983193Y-73725701D01*
X124989143Y-73727191D01*
X124994918Y-73729258D01*
X125000462Y-73731880D01*
X125005723Y-73735033D01*
X125010650Y-73738687D01*
X125015194Y-73742806D01*
X125019313Y-73747350D01*
X125022967Y-73752277D01*
X125026120Y-73757538D01*
X125028742Y-73763082D01*
X125030809Y-73768857D01*
X125032299Y-73774807D01*
X125033199Y-73780874D01*
X125033500Y-73787000D01*
X125033500Y-74487000D01*
X125033199Y-74493126D01*
X125032299Y-74499193D01*
X125030809Y-74505143D01*
X125028742Y-74510918D01*
X125026120Y-74516462D01*
X125022967Y-74521723D01*
X125019313Y-74526650D01*
X125015194Y-74531194D01*
X125010650Y-74535313D01*
X125005723Y-74538967D01*
X125000462Y-74542120D01*
X124994918Y-74544742D01*
X124989143Y-74546809D01*
X124983193Y-74548299D01*
X124977126Y-74549199D01*
X124971000Y-74549500D01*
X124846000Y-74549500D01*
X124839874Y-74549199D01*
X124833807Y-74548299D01*
X124827857Y-74546809D01*
X124822082Y-74544742D01*
X124816538Y-74542120D01*
X124811277Y-74538967D01*
X124806350Y-74535313D01*
X124801806Y-74531194D01*
X124797687Y-74526650D01*
X124794033Y-74521723D01*
X124790880Y-74516462D01*
X124788258Y-74510918D01*
X124786191Y-74505143D01*
X124784701Y-74499193D01*
X124783801Y-74493126D01*
X124783500Y-74487000D01*
X124783500Y-73787000D01*
X124783801Y-73780874D01*
X124784701Y-73774807D01*
X124786191Y-73768857D01*
X124788258Y-73763082D01*
X124790880Y-73757538D01*
X124794033Y-73752277D01*
X124797687Y-73747350D01*
X124801806Y-73742806D01*
X124806350Y-73738687D01*
X124811277Y-73735033D01*
X124816538Y-73731880D01*
X124822082Y-73729258D01*
X124827857Y-73727191D01*
X124833807Y-73725701D01*
X124839874Y-73724801D01*
X124846000Y-73724500D01*
X124971000Y-73724500D01*
X124977126Y-73724801D01*
X124977126Y-73724801D01*
G37*
D40*
X124908500Y-74137000D03*
D39*
G36*
X124477126Y-73724801D02*
G01*
X124483193Y-73725701D01*
X124489143Y-73727191D01*
X124494918Y-73729258D01*
X124500462Y-73731880D01*
X124505723Y-73735033D01*
X124510650Y-73738687D01*
X124515194Y-73742806D01*
X124519313Y-73747350D01*
X124522967Y-73752277D01*
X124526120Y-73757538D01*
X124528742Y-73763082D01*
X124530809Y-73768857D01*
X124532299Y-73774807D01*
X124533199Y-73780874D01*
X124533500Y-73787000D01*
X124533500Y-74487000D01*
X124533199Y-74493126D01*
X124532299Y-74499193D01*
X124530809Y-74505143D01*
X124528742Y-74510918D01*
X124526120Y-74516462D01*
X124522967Y-74521723D01*
X124519313Y-74526650D01*
X124515194Y-74531194D01*
X124510650Y-74535313D01*
X124505723Y-74538967D01*
X124500462Y-74542120D01*
X124494918Y-74544742D01*
X124489143Y-74546809D01*
X124483193Y-74548299D01*
X124477126Y-74549199D01*
X124471000Y-74549500D01*
X124346000Y-74549500D01*
X124339874Y-74549199D01*
X124333807Y-74548299D01*
X124327857Y-74546809D01*
X124322082Y-74544742D01*
X124316538Y-74542120D01*
X124311277Y-74538967D01*
X124306350Y-74535313D01*
X124301806Y-74531194D01*
X124297687Y-74526650D01*
X124294033Y-74521723D01*
X124290880Y-74516462D01*
X124288258Y-74510918D01*
X124286191Y-74505143D01*
X124284701Y-74499193D01*
X124283801Y-74493126D01*
X124283500Y-74487000D01*
X124283500Y-73787000D01*
X124283801Y-73780874D01*
X124284701Y-73774807D01*
X124286191Y-73768857D01*
X124288258Y-73763082D01*
X124290880Y-73757538D01*
X124294033Y-73752277D01*
X124297687Y-73747350D01*
X124301806Y-73742806D01*
X124306350Y-73738687D01*
X124311277Y-73735033D01*
X124316538Y-73731880D01*
X124322082Y-73729258D01*
X124327857Y-73727191D01*
X124333807Y-73725701D01*
X124339874Y-73724801D01*
X124346000Y-73724500D01*
X124471000Y-73724500D01*
X124477126Y-73724801D01*
X124477126Y-73724801D01*
G37*
D40*
X124408500Y-74137000D03*
D39*
G36*
X123977126Y-73724801D02*
G01*
X123983193Y-73725701D01*
X123989143Y-73727191D01*
X123994918Y-73729258D01*
X124000462Y-73731880D01*
X124005723Y-73735033D01*
X124010650Y-73738687D01*
X124015194Y-73742806D01*
X124019313Y-73747350D01*
X124022967Y-73752277D01*
X124026120Y-73757538D01*
X124028742Y-73763082D01*
X124030809Y-73768857D01*
X124032299Y-73774807D01*
X124033199Y-73780874D01*
X124033500Y-73787000D01*
X124033500Y-74487000D01*
X124033199Y-74493126D01*
X124032299Y-74499193D01*
X124030809Y-74505143D01*
X124028742Y-74510918D01*
X124026120Y-74516462D01*
X124022967Y-74521723D01*
X124019313Y-74526650D01*
X124015194Y-74531194D01*
X124010650Y-74535313D01*
X124005723Y-74538967D01*
X124000462Y-74542120D01*
X123994918Y-74544742D01*
X123989143Y-74546809D01*
X123983193Y-74548299D01*
X123977126Y-74549199D01*
X123971000Y-74549500D01*
X123846000Y-74549500D01*
X123839874Y-74549199D01*
X123833807Y-74548299D01*
X123827857Y-74546809D01*
X123822082Y-74544742D01*
X123816538Y-74542120D01*
X123811277Y-74538967D01*
X123806350Y-74535313D01*
X123801806Y-74531194D01*
X123797687Y-74526650D01*
X123794033Y-74521723D01*
X123790880Y-74516462D01*
X123788258Y-74510918D01*
X123786191Y-74505143D01*
X123784701Y-74499193D01*
X123783801Y-74493126D01*
X123783500Y-74487000D01*
X123783500Y-73787000D01*
X123783801Y-73780874D01*
X123784701Y-73774807D01*
X123786191Y-73768857D01*
X123788258Y-73763082D01*
X123790880Y-73757538D01*
X123794033Y-73752277D01*
X123797687Y-73747350D01*
X123801806Y-73742806D01*
X123806350Y-73738687D01*
X123811277Y-73735033D01*
X123816538Y-73731880D01*
X123822082Y-73729258D01*
X123827857Y-73727191D01*
X123833807Y-73725701D01*
X123839874Y-73724801D01*
X123846000Y-73724500D01*
X123971000Y-73724500D01*
X123977126Y-73724801D01*
X123977126Y-73724801D01*
G37*
D40*
X123908500Y-74137000D03*
D39*
G36*
X126233004Y-70900704D02*
G01*
X126257273Y-70904304D01*
X126281071Y-70910265D01*
X126304171Y-70918530D01*
X126326349Y-70929020D01*
X126347393Y-70941633D01*
X126367098Y-70956247D01*
X126385277Y-70972723D01*
X126401753Y-70990902D01*
X126416367Y-71010607D01*
X126428980Y-71031651D01*
X126439470Y-71053829D01*
X126447735Y-71076929D01*
X126453696Y-71100727D01*
X126457296Y-71124996D01*
X126458500Y-71149500D01*
X126458500Y-73249500D01*
X126457296Y-73274004D01*
X126453696Y-73298273D01*
X126447735Y-73322071D01*
X126439470Y-73345171D01*
X126428980Y-73367349D01*
X126416367Y-73388393D01*
X126401753Y-73408098D01*
X126385277Y-73426277D01*
X126367098Y-73442753D01*
X126347393Y-73457367D01*
X126326349Y-73469980D01*
X126304171Y-73480470D01*
X126281071Y-73488735D01*
X126257273Y-73494696D01*
X126233004Y-73498296D01*
X126208500Y-73499500D01*
X124108500Y-73499500D01*
X124083996Y-73498296D01*
X124059727Y-73494696D01*
X124035929Y-73488735D01*
X124012829Y-73480470D01*
X123990651Y-73469980D01*
X123969607Y-73457367D01*
X123949902Y-73442753D01*
X123931723Y-73426277D01*
X123915247Y-73408098D01*
X123900633Y-73388393D01*
X123888020Y-73367349D01*
X123877530Y-73345171D01*
X123869265Y-73322071D01*
X123863304Y-73298273D01*
X123859704Y-73274004D01*
X123858500Y-73249500D01*
X123858500Y-71149500D01*
X123859704Y-71124996D01*
X123863304Y-71100727D01*
X123869265Y-71076929D01*
X123877530Y-71053829D01*
X123888020Y-71031651D01*
X123900633Y-71010607D01*
X123915247Y-70990902D01*
X123931723Y-70972723D01*
X123949902Y-70956247D01*
X123969607Y-70941633D01*
X123990651Y-70929020D01*
X124012829Y-70918530D01*
X124035929Y-70910265D01*
X124059727Y-70904304D01*
X124083996Y-70900704D01*
X124108500Y-70899500D01*
X126208500Y-70899500D01*
X126233004Y-70900704D01*
X126233004Y-70900704D01*
G37*
D23*
X125158500Y-72199500D03*
D41*
X140396000Y-60848000D03*
X140396000Y-59548000D03*
X138496000Y-60198000D03*
X140396000Y-60198000D03*
X138496000Y-59548000D03*
X138496000Y-60848000D03*
D42*
X136758500Y-51109500D03*
D43*
X136758500Y-52829500D03*
X138958500Y-52829500D03*
X138958500Y-50929500D03*
D41*
X138496000Y-56339500D03*
X138496000Y-55039500D03*
X140396000Y-55689500D03*
X138496000Y-55689500D03*
X140396000Y-55039500D03*
X140396000Y-56339500D03*
D44*
X123604000Y-54927500D03*
X123604000Y-53657500D03*
X123604000Y-52387500D03*
X123604000Y-51117500D03*
X118204000Y-51117500D03*
X118204000Y-52387500D03*
X118204000Y-53657500D03*
X118204000Y-54927500D03*
D45*
X106723000Y-56263500D03*
X106723000Y-57213500D03*
X106723000Y-58163500D03*
X108923000Y-58163500D03*
X108923000Y-56263500D03*
X108923000Y-57213500D03*
D46*
X108582500Y-49573000D03*
X107632500Y-49573000D03*
X106682500Y-49573000D03*
X106682500Y-51773000D03*
X108582500Y-51773000D03*
X107632500Y-51773000D03*
D38*
X195341000Y-73091000D03*
X194041000Y-73091000D03*
X194691000Y-74991000D03*
X194691000Y-73091000D03*
X194041000Y-74991000D03*
X195341000Y-74991000D03*
X111745000Y-58036500D03*
X113045000Y-58036500D03*
X112395000Y-56136500D03*
X112395000Y-58036500D03*
X113045000Y-56136500D03*
X111745000Y-56136500D03*
D41*
X171384000Y-56436500D03*
X171384000Y-57736500D03*
X169484000Y-57086500D03*
X171384000Y-57086500D03*
X169484000Y-57736500D03*
X169484000Y-56436500D03*
X171384000Y-60945000D03*
X171384000Y-62245000D03*
X169484000Y-61595000D03*
X171384000Y-61595000D03*
X169484000Y-62245000D03*
X169484000Y-60945000D03*
X169484000Y-65453500D03*
X169484000Y-66753500D03*
X171384000Y-66103500D03*
X169484000Y-66103500D03*
X171384000Y-66753500D03*
X171384000Y-65453500D03*
X171384000Y-69962000D03*
X171384000Y-71262000D03*
X169484000Y-70612000D03*
X171384000Y-70612000D03*
X169484000Y-71262000D03*
X169484000Y-69962000D03*
X171384000Y-74470500D03*
X171384000Y-75770500D03*
X169484000Y-75120500D03*
X171384000Y-75120500D03*
X169484000Y-75770500D03*
X169484000Y-74470500D03*
X169484000Y-78979000D03*
X169484000Y-80279000D03*
X171384000Y-79629000D03*
X169484000Y-79629000D03*
X171384000Y-80279000D03*
X171384000Y-78979000D03*
D47*
X142460000Y-54293000D03*
X144560000Y-54293000D03*
X144560000Y-55943000D03*
X142460000Y-55943000D03*
X135184500Y-73213000D03*
X137484500Y-73213000D03*
X137484500Y-71313000D03*
X135184500Y-71313000D03*
X124299000Y-80073000D03*
X126399000Y-80073000D03*
X126399000Y-78423000D03*
X124299000Y-78423000D03*
D48*
X182499000Y-58547000D03*
X187452000Y-63944500D03*
X187452000Y-62801500D03*
X187452000Y-63373000D03*
X187007500Y-65532000D03*
X185864500Y-65532000D03*
X186436000Y-65532000D03*
X184785000Y-65532000D03*
X184213500Y-65532000D03*
X183642000Y-65532000D03*
X192405000Y-64770000D03*
X124523500Y-71564500D03*
X169884000Y-79629000D03*
X169884000Y-75120500D03*
X169884000Y-70612000D03*
X169884000Y-66103500D03*
X169884000Y-61595000D03*
X169884000Y-57086500D03*
X139065000Y-73321000D03*
X139954000Y-66082000D03*
X148378000Y-53086000D03*
X152886500Y-53975000D03*
X154622500Y-52064500D03*
X164084000Y-66082000D03*
X153247000Y-78295500D03*
X149838500Y-77406500D03*
X137075000Y-76390500D03*
X139996000Y-55689500D03*
X139996000Y-60198000D03*
X144060000Y-50990500D03*
X194691000Y-73491000D03*
X126399000Y-80073000D03*
X123248000Y-81534000D03*
X144560000Y-55943000D03*
X136758500Y-51109500D03*
X136138500Y-56642000D03*
X136138500Y-61214000D03*
X174186000Y-56134000D03*
X174186000Y-65151000D03*
X174186000Y-69659500D03*
X174186000Y-74168000D03*
X174186000Y-78676500D03*
X120862000Y-70485000D03*
X120862000Y-74930000D03*
X120962000Y-73914000D03*
X129518500Y-76073000D03*
X129518500Y-75184000D03*
X129201000Y-80391000D03*
X123604000Y-51117500D03*
X97795500Y-80073500D03*
X129518500Y-72453500D03*
X125158500Y-71564500D03*
X125793500Y-71564500D03*
X124523500Y-72199500D03*
X125158500Y-72199500D03*
X125793500Y-72199500D03*
X124523500Y-72834500D03*
X125158500Y-72834500D03*
X125793500Y-72834500D03*
X114596000Y-70739000D03*
X124142500Y-76796900D03*
X121031000Y-79988500D03*
X121920000Y-79988500D03*
X117147000Y-79121000D03*
X142621000Y-60325000D03*
X193018500Y-64008000D03*
X190621500Y-66669500D03*
X191521500Y-66669500D03*
X191521500Y-67569500D03*
X190621500Y-67569500D03*
X168931500Y-51498500D03*
X183134000Y-58547000D03*
X183769000Y-58547000D03*
X182499000Y-59182000D03*
X183134000Y-59182000D03*
X183769000Y-59182000D03*
X182499000Y-59817000D03*
X183134000Y-59817000D03*
X183769000Y-59817000D03*
X182499000Y-60452000D03*
X183134000Y-60452000D03*
X183769000Y-60452000D03*
X183959500Y-50863500D03*
X183324500Y-54800500D03*
X152360500Y-80200500D03*
X182245000Y-70802500D03*
X183515000Y-70167500D03*
X183515000Y-69532500D03*
X184150000Y-70802500D03*
X184150000Y-70167500D03*
X184150000Y-69532500D03*
X183515000Y-70802500D03*
X182880000Y-70167500D03*
X182880000Y-69532500D03*
X182245000Y-70167500D03*
X182245000Y-69532500D03*
X182880000Y-70802500D03*
X170984000Y-79629000D03*
X170984000Y-75120500D03*
X170984000Y-70612000D03*
X170984000Y-66103500D03*
X170984000Y-61595000D03*
X170984000Y-57086500D03*
X188658500Y-66802000D03*
X139065000Y-72221000D03*
X139954000Y-64982000D03*
X147278000Y-53086000D03*
X151786500Y-53975000D03*
X156019500Y-52064500D03*
X164084000Y-64982000D03*
X154347000Y-78295500D03*
X148738500Y-77406500D03*
X134747000Y-75369000D03*
X138896000Y-55689500D03*
X138896000Y-60198000D03*
X141732000Y-52329500D03*
X194691000Y-74591000D03*
X125799000Y-81343500D03*
X138958500Y-50929500D03*
X174186000Y-60642500D03*
X120777000Y-68453000D03*
X128101000Y-80391000D03*
X125180000Y-54927500D03*
X128418500Y-72453500D03*
X121031000Y-78888500D03*
X121025500Y-77640999D03*
X170031500Y-51498500D03*
X195453000Y-68834000D03*
X195453000Y-67754500D03*
X155360500Y-80200500D03*
X124299000Y-78423000D03*
X128418500Y-75184000D03*
X121962000Y-70485000D03*
X121962000Y-74930000D03*
X115818500Y-72517000D03*
X115818500Y-74422000D03*
X115818500Y-70739000D03*
X115818500Y-68834000D03*
X113496000Y-70739000D03*
X125095000Y-76777000D03*
X121925500Y-77640999D03*
X121920000Y-78888500D03*
X106723000Y-57213500D03*
X107172459Y-52729902D03*
X106912500Y-55435500D03*
X108717500Y-53493500D03*
X109907500Y-53493500D03*
X109907500Y-54323500D03*
X108717500Y-54323500D03*
X112395000Y-57636500D03*
X109347000Y-49170500D03*
X110236000Y-49170500D03*
X107632500Y-49564098D03*
X110107434Y-58195364D03*
X109924000Y-59563000D03*
X102876000Y-55892500D03*
X105092500Y-56573000D03*
X115528000Y-54927500D03*
X105092500Y-49234000D03*
X118204000Y-51117500D03*
X112395000Y-56536500D03*
X106682500Y-51731098D03*
X109982000Y-51223000D03*
X106871235Y-50820044D03*
X111823500Y-49016500D03*
X108648500Y-57293000D03*
X105722000Y-59563000D03*
X116628000Y-54927500D03*
X104749902Y-54210000D03*
X104749902Y-53575000D03*
X110680500Y-51752500D03*
X124333000Y-75120500D03*
X124993403Y-75120500D03*
X125546319Y-69245812D03*
X121729500Y-67114000D03*
X119713500Y-66914000D03*
X195389500Y-75755500D03*
X193929000Y-69913500D03*
X131762500Y-80708500D03*
X187960000Y-66230500D03*
X142460000Y-55943000D03*
X146177000Y-55568000D03*
X140848500Y-70929500D03*
X118681500Y-68008500D03*
X126873000Y-75877000D03*
X129418500Y-69659500D03*
X151574500Y-69659500D03*
X140716000Y-67373500D03*
X152400000Y-67754500D03*
X142557500Y-66421000D03*
X146113500Y-67691000D03*
X141682598Y-67646054D03*
X146431000Y-76708000D03*
X148336000Y-69913500D03*
X147320000Y-77406500D03*
X147320000Y-70802500D03*
X133794500Y-70993000D03*
X151701500Y-62865000D03*
X139065000Y-70231000D03*
X151892000Y-70548500D03*
X142113000Y-68453000D03*
X150558500Y-68516500D03*
X138493500Y-58420000D03*
X137795000Y-56832500D03*
X138938000Y-52710500D03*
X125153000Y-53657500D03*
X125153000Y-52387500D03*
X146748500Y-56515000D03*
X145923000Y-49911000D03*
X116655000Y-52387500D03*
X114300000Y-54927500D03*
X116655000Y-53657500D03*
X115125500Y-53657500D03*
D49*
X191321500Y-65015500D02*
X191440000Y-64897000D01*
X191321500Y-65644500D02*
X191321500Y-65015500D01*
X191440000Y-64897000D02*
X191706500Y-64897000D01*
X191918500Y-64685000D02*
X191918500Y-64008000D01*
X191706500Y-64897000D02*
X191918500Y-64685000D01*
D50*
X191111000Y-64008000D02*
X190476000Y-63373000D01*
X191918500Y-64008000D02*
X191111000Y-64008000D01*
X190321500Y-63527500D02*
X190476000Y-63373000D01*
X190321500Y-65644500D02*
X190321500Y-63527500D01*
D49*
X192405000Y-64494500D02*
X191918500Y-64008000D01*
X192405000Y-64770000D02*
X192405000Y-64494500D01*
X169484000Y-79629000D02*
X169884000Y-79629000D01*
X169484000Y-80279000D02*
X169484000Y-79629000D01*
X169484000Y-75770500D02*
X169484000Y-75120500D01*
X169484000Y-75120500D02*
X169884000Y-75120500D01*
X169484000Y-71262000D02*
X169484000Y-70612000D01*
X169484000Y-70612000D02*
X169884000Y-70612000D01*
X169484000Y-66103500D02*
X169884000Y-66103500D01*
X169484000Y-66753500D02*
X169484000Y-66103500D01*
X169484000Y-61595000D02*
X169884000Y-61595000D01*
X169484000Y-62245000D02*
X169484000Y-61595000D01*
X169484000Y-57736500D02*
X169484000Y-57086500D01*
X169484000Y-57086500D02*
X169884000Y-57086500D01*
X152886500Y-53975000D02*
X152886500Y-55753000D01*
X152574500Y-56065000D02*
X152886500Y-55753000D01*
X152574500Y-58086000D02*
X152574500Y-56065000D01*
X148378000Y-53086000D02*
X148378000Y-55753000D01*
X148074500Y-56056500D02*
X148378000Y-55753000D01*
X148074500Y-58086000D02*
X148074500Y-56056500D01*
X141732000Y-66082000D02*
X139954000Y-66082000D01*
X142028000Y-65786000D02*
X141732000Y-66082000D01*
X143874500Y-65786000D02*
X142028000Y-65786000D01*
X139065000Y-73321000D02*
X141732000Y-73321000D01*
X142236000Y-73321000D02*
X141732000Y-73321000D01*
X142836910Y-72720090D02*
X142236000Y-73321000D01*
X142836910Y-71920090D02*
X142836910Y-72720090D01*
X142971000Y-71786000D02*
X142836910Y-71920090D01*
X143874500Y-71786000D02*
X142971000Y-71786000D01*
X149838500Y-77406500D02*
X149838500Y-75628500D01*
X149574500Y-75364500D02*
X149838500Y-75628500D01*
X149574500Y-73486000D02*
X149574500Y-75364500D01*
X153247000Y-78295500D02*
X153247000Y-75628500D01*
X153574500Y-75301000D02*
X153247000Y-75628500D01*
X153574500Y-73486000D02*
X153574500Y-75301000D01*
X161417000Y-66082000D02*
X164084000Y-66082000D01*
X161121000Y-65786000D02*
X161417000Y-66082000D01*
X159274500Y-65786000D02*
X161121000Y-65786000D01*
X137075000Y-76390500D02*
X137075000Y-74612500D01*
X137075000Y-73622500D02*
X137484500Y-73213000D01*
X137075000Y-74612500D02*
X137075000Y-73622500D01*
X140396000Y-55689500D02*
X139996000Y-55689500D01*
X140396000Y-55039500D02*
X140396000Y-55689500D01*
X140396000Y-60198000D02*
X139996000Y-60198000D01*
X140396000Y-59548000D02*
X140396000Y-60198000D01*
X144060000Y-50990500D02*
X144060000Y-52768500D01*
X144208000Y-55943000D02*
X144560000Y-55943000D01*
X143510000Y-55245000D02*
X144208000Y-55943000D01*
X143510000Y-53268500D02*
X143510000Y-55245000D01*
X144060000Y-52768500D02*
X144010000Y-52768500D01*
X144010000Y-52768500D02*
X143510000Y-53268500D01*
X194691000Y-73091000D02*
X194691000Y-73491000D01*
X194041000Y-73091000D02*
X194691000Y-73091000D01*
X128968500Y-80158500D02*
X129201000Y-80391000D01*
X128968500Y-79182000D02*
X128968500Y-80158500D01*
X120269000Y-70485000D02*
X120862000Y-70485000D01*
X119713500Y-68214000D02*
X119713500Y-69929500D01*
X119713500Y-69929500D02*
X120269000Y-70485000D01*
X143874500Y-60786000D02*
X143874500Y-60286000D01*
X143874500Y-60286000D02*
X142660000Y-60286000D01*
X142660000Y-60286000D02*
X142621000Y-60325000D01*
X194823500Y-65759000D02*
X194923500Y-65659000D01*
X194823500Y-66675000D02*
X194823500Y-65759000D01*
X194923500Y-65659000D02*
X194923500Y-64685000D01*
X194246500Y-64008000D02*
X193018500Y-64008000D01*
X194923500Y-64685000D02*
X194246500Y-64008000D01*
X191721500Y-67369500D02*
X191521500Y-67569500D01*
X192546500Y-67369500D02*
X191721500Y-67369500D01*
X191721500Y-66869500D02*
X191521500Y-66669500D01*
X192546500Y-66869500D02*
X191721500Y-66869500D01*
X191821500Y-66369500D02*
X191521500Y-66669500D01*
X192546500Y-66369500D02*
X191821500Y-66369500D01*
X190421500Y-67369500D02*
X190621500Y-67569500D01*
X189596500Y-67369500D02*
X190421500Y-67369500D01*
X190321500Y-67869500D02*
X190621500Y-67569500D01*
X189596500Y-67869500D02*
X190321500Y-67869500D01*
D50*
X168931500Y-49948999D02*
X168195001Y-49212500D01*
X168931500Y-51498500D02*
X168931500Y-49948999D01*
D49*
X191836000Y-65659000D02*
X191821500Y-65644500D01*
X193823500Y-65659000D02*
X191836000Y-65659000D01*
X173286000Y-61595000D02*
X171384000Y-61595000D01*
X173286000Y-57086500D02*
X171384000Y-57086500D01*
X173286000Y-66103500D02*
X171384000Y-66103500D01*
X171384000Y-70612000D02*
X173286000Y-70612000D01*
X173286000Y-75120500D02*
X171384000Y-75120500D01*
X173286000Y-79629000D02*
X171384000Y-79629000D01*
X171384000Y-79629000D02*
X170984000Y-79629000D01*
X170334000Y-78979000D02*
X170984000Y-79629000D01*
X169484000Y-78979000D02*
X170334000Y-78979000D01*
X171384000Y-75120500D02*
X170984000Y-75120500D01*
X170334000Y-74470500D02*
X170984000Y-75120500D01*
X169484000Y-74470500D02*
X170334000Y-74470500D01*
X171384000Y-70612000D02*
X170984000Y-70612000D01*
X171384000Y-66103500D02*
X170984000Y-66103500D01*
X170334000Y-65453500D02*
X170984000Y-66103500D01*
X169484000Y-65453500D02*
X170334000Y-65453500D01*
X171384000Y-61595000D02*
X170984000Y-61595000D01*
X170334000Y-60945000D02*
X170984000Y-61595000D01*
X169484000Y-60945000D02*
X170334000Y-60945000D01*
X171384000Y-57086500D02*
X170984000Y-57086500D01*
X170334000Y-56436500D02*
X170984000Y-57086500D01*
X169484000Y-56436500D02*
X170334000Y-56436500D01*
X189596500Y-66869500D02*
X188726000Y-66869500D01*
X188726000Y-66869500D02*
X188658500Y-66802000D01*
X151786500Y-53975000D02*
X151786500Y-55753000D01*
X152074500Y-56041000D02*
X151786500Y-55753000D01*
X152074500Y-58086000D02*
X152074500Y-56041000D01*
X147278000Y-53086000D02*
X147278000Y-55753000D01*
X147574500Y-56049500D02*
X147278000Y-55753000D01*
X147574500Y-58086000D02*
X147574500Y-56049500D01*
X139954000Y-64982000D02*
X141732000Y-64982000D01*
X142036000Y-65286000D02*
X141732000Y-64982000D01*
X143874500Y-65286000D02*
X142036000Y-65286000D01*
X141732000Y-72221000D02*
X139065000Y-72221000D01*
X142870500Y-71286000D02*
X142430500Y-71726000D01*
X143874500Y-71286000D02*
X142870500Y-71286000D01*
X142236000Y-72221000D02*
X141732000Y-72221000D01*
X142430500Y-71726000D02*
X142430500Y-72026500D01*
X142430500Y-72026500D02*
X142236000Y-72221000D01*
X148738500Y-77406500D02*
X148738500Y-75628500D01*
X149074500Y-75292500D02*
X148738500Y-75628500D01*
X149074500Y-73486000D02*
X149074500Y-75292500D01*
X154347000Y-78295500D02*
X154347000Y-75628500D01*
X154074500Y-75356000D02*
X154347000Y-75628500D01*
X154074500Y-73486000D02*
X154074500Y-75356000D01*
X164084000Y-64982000D02*
X161713000Y-64982000D01*
X161713000Y-64982000D02*
X161417000Y-64982000D01*
X161113000Y-65286000D02*
X161417000Y-64982000D01*
X159274500Y-65286000D02*
X161113000Y-65286000D01*
X137038500Y-60198000D02*
X138496000Y-60198000D01*
X138496000Y-55689500D02*
X137038500Y-55689500D01*
X138496000Y-55689500D02*
X138896000Y-55689500D01*
X139546000Y-56339500D02*
X138896000Y-55689500D01*
X140396000Y-56339500D02*
X139546000Y-56339500D01*
X138496000Y-60198000D02*
X138896000Y-60198000D01*
X139546000Y-60848000D02*
X138896000Y-60198000D01*
X140396000Y-60848000D02*
X139546000Y-60848000D01*
X194754500Y-75054500D02*
X194691000Y-74991000D01*
X194754500Y-76385000D02*
X194754500Y-75054500D01*
X194691000Y-74991000D02*
X194691000Y-74591000D01*
X195341000Y-73941000D02*
X194691000Y-74591000D01*
X195341000Y-73091000D02*
X195341000Y-73941000D01*
X128318500Y-80173500D02*
X128101000Y-80391000D01*
X128318500Y-79182000D02*
X128318500Y-80173500D01*
X123604000Y-54927500D02*
X125180000Y-54927500D01*
X127100000Y-72453500D02*
X127096000Y-72449500D01*
X128418500Y-72453500D02*
X127100000Y-72453500D01*
D50*
X121031000Y-77646499D02*
X121025500Y-77640999D01*
X121031000Y-78888500D02*
X121031000Y-77646499D01*
D49*
X170334000Y-69962000D02*
X170984000Y-70612000D01*
X169484000Y-69962000D02*
X170334000Y-69962000D01*
D50*
X170031500Y-49916001D02*
X170735001Y-49212500D01*
X170031500Y-51498500D02*
X170031500Y-49916001D01*
D49*
X194823500Y-68834000D02*
X195453000Y-68834000D01*
X194823500Y-67754500D02*
X195453000Y-67754500D01*
X155074500Y-56056500D02*
X154771000Y-55753000D01*
X155074500Y-58086000D02*
X155074500Y-56056500D01*
X154771000Y-55753000D02*
X154771000Y-53975000D01*
X154771000Y-53113000D02*
X154622500Y-52964500D01*
X154771000Y-53975000D02*
X154771000Y-53113000D01*
X142960000Y-50990500D02*
X142960000Y-52768500D01*
X142960000Y-53793000D02*
X142460000Y-54293000D01*
X142960000Y-52768500D02*
X142960000Y-53793000D01*
X142171000Y-50990500D02*
X141732000Y-51429500D01*
X142960000Y-50990500D02*
X142171000Y-50990500D01*
X135975000Y-76390500D02*
X135975000Y-74612500D01*
X134868500Y-76390500D02*
X134747000Y-76269000D01*
X135975000Y-76390500D02*
X134868500Y-76390500D01*
X135975000Y-74003500D02*
X135184500Y-73213000D01*
X135975000Y-74612500D02*
X135975000Y-74003500D01*
X135184500Y-73213000D02*
X135184500Y-71313000D01*
D50*
X128418500Y-75184000D02*
X128418500Y-76073000D01*
X126505410Y-74205910D02*
X126505410Y-74137000D01*
X128418500Y-75184000D02*
X127483500Y-75184000D01*
X127483500Y-75184000D02*
X126505410Y-74205910D01*
X128318500Y-76173000D02*
X128418500Y-76073000D01*
X128318500Y-77282000D02*
X128318500Y-76173000D01*
D49*
X133286500Y-79756000D02*
X131826000Y-78295500D01*
X128318500Y-77407000D02*
X128318500Y-77282000D01*
X131826000Y-78295500D02*
X129207000Y-78295500D01*
X129207000Y-78295500D02*
X128318500Y-77407000D01*
D50*
X113496000Y-70739000D02*
X110299500Y-70739000D01*
D49*
X122756500Y-70485000D02*
X123221000Y-70949500D01*
X121962000Y-70485000D02*
X122756500Y-70485000D01*
X123115500Y-74930000D02*
X123908500Y-74137000D01*
X121962000Y-74930000D02*
X123115500Y-74930000D01*
D50*
X121920000Y-77646499D02*
X121925500Y-77640999D01*
X121920000Y-78888500D02*
X121920000Y-77646499D01*
D49*
X115364500Y-68834000D02*
X115818500Y-68834000D01*
X114744500Y-65341500D02*
X114744500Y-68214000D01*
X114744500Y-68214000D02*
X115364500Y-68834000D01*
X112395000Y-58036500D02*
X112395000Y-57636500D01*
X113045000Y-58036500D02*
X112395000Y-58036500D01*
X110363000Y-58589000D02*
X110363000Y-58450930D01*
X110363000Y-58450930D02*
X110107434Y-58195364D01*
X109982000Y-49424500D02*
X110236000Y-49170500D01*
X109982000Y-50123000D02*
X109982000Y-49424500D01*
X112395000Y-56136500D02*
X112395000Y-56536500D01*
X111745000Y-57186500D02*
X112395000Y-56536500D01*
X111745000Y-58036500D02*
X111745000Y-57186500D01*
X112395000Y-55768000D02*
X112395000Y-56136500D01*
X111887000Y-54806000D02*
X111887000Y-55260000D01*
X111887000Y-55260000D02*
X112395000Y-55768000D01*
D50*
X109712000Y-51223000D02*
X109982000Y-51223000D01*
X109262099Y-50773099D02*
X109712000Y-51223000D01*
X106931579Y-50773099D02*
X109262099Y-50773099D01*
X106682500Y-51773000D02*
X106682500Y-51022178D01*
X106682500Y-51022178D02*
X106931579Y-50773099D01*
X106682500Y-51773000D02*
X106682500Y-51731098D01*
X106931579Y-50773099D02*
X106918180Y-50773099D01*
X106918180Y-50773099D02*
X106871235Y-50820044D01*
D49*
X108923000Y-57213500D02*
X108728000Y-57213500D01*
X108728000Y-57213500D02*
X108648500Y-57293000D01*
X110363000Y-56584000D02*
X110363000Y-57489000D01*
X110087500Y-57213500D02*
X110363000Y-57489000D01*
X108923000Y-57213500D02*
X110087500Y-57213500D01*
X118204000Y-54927500D02*
X116628000Y-54927500D01*
X102876000Y-54292500D02*
X103776000Y-54292500D01*
X103776000Y-54292500D02*
X103985500Y-54083000D01*
X104622902Y-54083000D02*
X104749902Y-54210000D01*
X107083250Y-54210000D02*
X104749902Y-54210000D01*
X108582500Y-51773000D02*
X108582500Y-52710750D01*
X108582500Y-52710750D02*
X107083250Y-54210000D01*
X103985500Y-54083000D02*
X104622902Y-54083000D01*
X103985500Y-53702000D02*
X104622902Y-53702000D01*
X103776000Y-53492500D02*
X103985500Y-53702000D01*
X104622902Y-53702000D02*
X104749902Y-53575000D01*
X102876000Y-53492500D02*
X103776000Y-53492500D01*
X107705860Y-52473869D02*
X107705860Y-53012640D01*
X107632500Y-51773000D02*
X107632500Y-52400509D01*
X107632500Y-52400509D02*
X107705860Y-52473869D01*
X107143500Y-53575000D02*
X104749902Y-53575000D01*
X107705860Y-53012640D02*
X107143500Y-53575000D01*
D50*
X105092500Y-51366000D02*
X105092500Y-50334000D01*
X105921500Y-50334000D02*
X106682500Y-49573000D01*
X105092500Y-50334000D02*
X105921500Y-50334000D01*
X108582500Y-48822178D02*
X108582500Y-49573000D01*
X108333421Y-48573099D02*
X108582500Y-48822178D01*
X106931579Y-48573099D02*
X108333421Y-48573099D01*
X106682500Y-49573000D02*
X106682500Y-48822178D01*
X106682500Y-48822178D02*
X106931579Y-48573099D01*
D49*
X136038500Y-60098000D02*
X136138500Y-60198000D01*
X136038500Y-59118500D02*
X136038500Y-60098000D01*
X137568000Y-59548000D02*
X137138500Y-59118500D01*
X138496000Y-59548000D02*
X137568000Y-59548000D01*
X136138500Y-54773500D02*
X136038500Y-54673500D01*
X136138500Y-55689500D02*
X136138500Y-54773500D01*
X137504500Y-55039500D02*
X137138500Y-54673500D01*
X138496000Y-55039500D02*
X137504500Y-55039500D01*
X111823500Y-51904999D02*
X110832999Y-51904999D01*
X110832999Y-51904999D02*
X110680500Y-51752500D01*
X111823500Y-50804999D02*
X111823500Y-49916500D01*
X193838500Y-77285000D02*
X193738500Y-77385000D01*
X194754500Y-77285000D02*
X193838500Y-77285000D01*
X194041000Y-75982500D02*
X193738500Y-76285000D01*
X194041000Y-74991000D02*
X194041000Y-75982500D01*
X111987000Y-53806000D02*
X111887000Y-53906000D01*
X112987001Y-53806000D02*
X111987000Y-53806000D01*
X113045000Y-54963999D02*
X112987001Y-54906000D01*
X113045000Y-56136500D02*
X113045000Y-54963999D01*
X172820000Y-57736500D02*
X173186000Y-58102500D01*
X171384000Y-57736500D02*
X172820000Y-57736500D01*
X174286000Y-57186500D02*
X174186000Y-57086500D01*
X174286000Y-58102500D02*
X174286000Y-57186500D01*
X172820000Y-62245000D02*
X173186000Y-62611000D01*
X171384000Y-62245000D02*
X172820000Y-62245000D01*
X174286000Y-61695000D02*
X174186000Y-61595000D01*
X174286000Y-62611000D02*
X174286000Y-61695000D01*
X174286000Y-66203500D02*
X174186000Y-66103500D01*
X174286000Y-67119500D02*
X174286000Y-66203500D01*
X172820000Y-66753500D02*
X173186000Y-67119500D01*
X171384000Y-66753500D02*
X172820000Y-66753500D01*
X174286000Y-70712000D02*
X174186000Y-70612000D01*
X174286000Y-71628000D02*
X174286000Y-70712000D01*
X172820000Y-71262000D02*
X173186000Y-71628000D01*
X171384000Y-71262000D02*
X172820000Y-71262000D01*
X172820000Y-75770500D02*
X173186000Y-76136500D01*
X171384000Y-75770500D02*
X172820000Y-75770500D01*
X174286000Y-75220500D02*
X174186000Y-75120500D01*
X174286000Y-76136500D02*
X174286000Y-75220500D01*
X172820000Y-80279000D02*
X173186000Y-80645000D01*
X171384000Y-80279000D02*
X172820000Y-80279000D01*
X174286000Y-79729000D02*
X174186000Y-79629000D01*
X174286000Y-80645000D02*
X174286000Y-79729000D01*
X157574500Y-56293500D02*
X157574500Y-58086000D01*
X159194500Y-54673500D02*
X157574500Y-56293500D01*
X162052000Y-54673500D02*
X159194500Y-54673500D01*
X163115001Y-49212500D02*
X163115001Y-53610499D01*
X163115001Y-53610499D02*
X162052000Y-54673500D01*
X163580015Y-55499000D02*
X165655001Y-53424014D01*
X165655001Y-50414581D02*
X165655001Y-49212500D01*
X157074500Y-58086000D02*
X157074500Y-59090000D01*
X157074500Y-59090000D02*
X157230000Y-59245500D01*
X159893000Y-55499000D02*
X163580015Y-55499000D01*
X157230000Y-59245500D02*
X158178500Y-59245500D01*
X165655001Y-53424014D02*
X165655001Y-50414581D01*
X158178500Y-59245500D02*
X158432500Y-58991500D01*
X158432500Y-58991500D02*
X158432500Y-56959500D01*
X158432500Y-56959500D02*
X159893000Y-55499000D01*
X173275001Y-49212500D02*
X173275001Y-52594499D01*
X173275001Y-52594499D02*
X171894500Y-53975000D01*
X171894500Y-53975000D02*
X167830500Y-53975000D01*
X167830500Y-53975000D02*
X160718500Y-61087000D01*
X160718500Y-61087000D02*
X160718500Y-64452500D01*
X160385000Y-64786000D02*
X159274500Y-64786000D01*
X160718500Y-64452500D02*
X160385000Y-64786000D01*
X109070099Y-68239599D02*
X107759500Y-66929000D01*
X123221000Y-71949500D02*
X123174200Y-71902700D01*
X110258901Y-69428401D02*
X109709387Y-69428401D01*
X117771830Y-69989700D02*
X111369714Y-69989700D01*
X110889613Y-69509599D02*
X110340099Y-69509599D01*
X110340099Y-69509599D02*
X110258901Y-69428401D01*
X111369714Y-69989700D02*
X110889613Y-69509599D01*
X109070099Y-68789113D02*
X109070099Y-68239599D01*
X109709387Y-69428401D02*
X109070099Y-68789113D01*
X123174200Y-71902700D02*
X119684830Y-71902700D01*
X118521130Y-70739000D02*
X118601315Y-70819185D01*
X116718500Y-70739000D02*
X118521130Y-70739000D01*
X119684830Y-71902700D02*
X118601315Y-70819185D01*
X118601315Y-70819185D02*
X117771830Y-69989700D01*
X110299500Y-68894263D02*
X110299500Y-68199000D01*
X110508444Y-69103208D02*
X110299500Y-68894263D01*
X111057945Y-69103208D02*
X110508444Y-69103208D01*
X119853170Y-71496300D02*
X117940170Y-69583300D01*
X123221000Y-71449500D02*
X123174200Y-71496300D01*
X123174200Y-71496300D02*
X119853170Y-71496300D01*
X117940170Y-69583300D02*
X111538036Y-69583300D01*
X111538036Y-69583300D02*
X111057945Y-69103208D01*
X117921800Y-69583300D02*
X117940170Y-69583300D01*
X116718500Y-68834000D02*
X117172500Y-68834000D01*
X117172500Y-68834000D02*
X117921800Y-69583300D01*
X123174200Y-72902700D02*
X123221000Y-72949500D01*
X119853170Y-72902700D02*
X123174200Y-72902700D01*
X119083170Y-73672700D02*
X119853170Y-72902700D01*
X112402960Y-73685410D02*
X112415670Y-73672700D01*
X107759500Y-69469000D02*
X109070099Y-70779599D01*
X109070099Y-70779599D02*
X109070099Y-74145099D01*
X109070099Y-74145099D02*
X109433401Y-74508401D01*
X109433401Y-74508401D02*
X110975099Y-74508401D01*
X110975099Y-74508401D02*
X111798090Y-73685410D01*
X111798090Y-73685410D02*
X112402960Y-73685410D01*
X117921800Y-73672700D02*
X118313200Y-73672700D01*
X117172500Y-74422000D02*
X117921800Y-73672700D01*
X116718500Y-74422000D02*
X117172500Y-74422000D01*
X112415670Y-73672700D02*
X118313200Y-73672700D01*
X118313200Y-73672700D02*
X119083170Y-73672700D01*
X123174200Y-72496300D02*
X119684830Y-72496300D01*
X123221000Y-72449500D02*
X123174200Y-72496300D01*
X119684830Y-72496300D02*
X118914830Y-73266300D01*
X112234630Y-73279000D02*
X110299500Y-73279000D01*
X112247330Y-73266300D02*
X112234630Y-73279000D01*
X117921800Y-73266300D02*
X118160800Y-73266300D01*
X117172500Y-72517000D02*
X117921800Y-73266300D01*
X116718500Y-72517000D02*
X117172500Y-72517000D01*
X118914830Y-73266300D02*
X118160800Y-73266300D01*
X118160800Y-73266300D02*
X112247330Y-73266300D01*
X124408500Y-75045000D02*
X124333000Y-75120500D01*
X124408500Y-74137000D02*
X124408500Y-75045000D01*
X124333000Y-75120500D02*
X123698000Y-75755500D01*
X123698000Y-75755500D02*
X119761000Y-75755500D01*
X119761000Y-75755500D02*
X118300500Y-77216000D01*
X118300500Y-77216000D02*
X118300500Y-81470500D01*
X118300500Y-81470500D02*
X117983000Y-81788000D01*
X102128500Y-81788000D02*
X98039500Y-77699000D01*
X117983000Y-81788000D02*
X102128500Y-81788000D01*
X124908500Y-75035597D02*
X124993403Y-75120500D01*
X124908500Y-74137000D02*
X124908500Y-75035597D01*
X124993403Y-75479710D02*
X124209613Y-76263500D01*
X124993403Y-75120500D02*
X124993403Y-75479710D01*
X124209613Y-76263500D02*
X120015000Y-76263500D01*
X120015000Y-76263500D02*
X118935500Y-77343000D01*
X118935500Y-77343000D02*
X118935500Y-81597500D01*
X118935500Y-81597500D02*
X117983000Y-82550000D01*
X117983000Y-82550000D02*
X98044000Y-82550000D01*
X98044000Y-82550000D02*
X96139000Y-80645000D01*
X96139000Y-80645000D02*
X96139000Y-77470000D01*
X98039500Y-75569500D02*
X97694750Y-75914250D01*
X98039500Y-67589000D02*
X98039500Y-75569500D01*
X96139000Y-77470000D02*
X97694750Y-75914250D01*
D51*
X104497500Y-79121000D02*
X104469500Y-79149000D01*
X114247000Y-79121000D02*
X104497500Y-79121000D01*
X104469500Y-65437477D02*
X104469500Y-79149000D01*
X104469500Y-63599000D02*
X104469500Y-65437477D01*
D50*
X104666000Y-52692500D02*
X105092500Y-52266000D01*
X102876000Y-52692500D02*
X104666000Y-52692500D01*
D49*
X104538500Y-57473000D02*
X105092500Y-57473000D01*
X104295500Y-57473000D02*
X104538500Y-57473000D01*
X102776000Y-58742500D02*
X103026000Y-58742500D01*
X103026000Y-58742500D02*
X104295500Y-57473000D01*
X101272000Y-58742500D02*
X97276000Y-58742500D01*
X102776000Y-58742500D02*
X101272000Y-58742500D01*
X97276000Y-57488500D02*
X97276000Y-49842500D01*
X97276000Y-58742500D02*
X97276000Y-57488500D01*
X101272000Y-49842500D02*
X97276000Y-49842500D01*
X102776000Y-49842500D02*
X101272000Y-49842500D01*
X155574500Y-56049500D02*
X155871000Y-55753000D01*
X155574500Y-58086000D02*
X155574500Y-56049500D01*
X155871000Y-55753000D02*
X155871000Y-53975000D01*
X155871000Y-53113000D02*
X156019500Y-52964500D01*
X155871000Y-53975000D02*
X155871000Y-53113000D01*
X125408500Y-70262000D02*
X125408500Y-69383631D01*
X125408500Y-69383631D02*
X125546319Y-69245812D01*
X121713500Y-67564000D02*
X121713500Y-67130000D01*
X121713500Y-67130000D02*
X121729500Y-67114000D01*
X192061000Y-68834000D02*
X191821500Y-68594500D01*
X193923500Y-68834000D02*
X192061000Y-68834000D01*
X195341000Y-74991000D02*
X195341000Y-75707000D01*
X195341000Y-75707000D02*
X195389500Y-75755500D01*
X193929000Y-68839500D02*
X193923500Y-68834000D01*
X193929000Y-69913500D02*
X193929000Y-68839500D01*
X131069500Y-80391000D02*
X131445000Y-80391000D01*
X131445000Y-80391000D02*
X131762500Y-80708500D01*
X189457500Y-66230500D02*
X189596500Y-66369500D01*
X187960000Y-66230500D02*
X189457500Y-66230500D01*
X129618500Y-79840000D02*
X130169500Y-80391000D01*
X129618500Y-79182000D02*
X129618500Y-79840000D01*
X193923500Y-66675000D02*
X193923500Y-67754500D01*
X193808500Y-67869500D02*
X193923500Y-67754500D01*
X192546500Y-67869500D02*
X193808500Y-67869500D01*
X183688287Y-49221000D02*
X178602500Y-49221000D01*
X185102500Y-49221000D02*
X183688287Y-49221000D01*
X145574500Y-58086000D02*
X143366500Y-58086000D01*
X142460000Y-57179500D02*
X142460000Y-55943000D01*
X143366500Y-58086000D02*
X142460000Y-57179500D01*
X146074500Y-57082000D02*
X146074500Y-58086000D01*
X146074500Y-56124500D02*
X146074500Y-57082000D01*
X146177000Y-55568000D02*
X146177000Y-56022000D01*
X146177000Y-56022000D02*
X146074500Y-56124500D01*
X145802000Y-54293000D02*
X146177000Y-54668000D01*
X144560000Y-54293000D02*
X145802000Y-54293000D01*
X143874500Y-70786000D02*
X142447000Y-70786000D01*
X142303500Y-70929500D02*
X140848500Y-70929500D01*
X142447000Y-70786000D02*
X142303500Y-70929500D01*
X137868000Y-70929500D02*
X137484500Y-71313000D01*
X139948500Y-70929500D02*
X137868000Y-70929500D01*
X143874500Y-64286000D02*
X131278500Y-64286000D01*
X131278500Y-64286000D02*
X130492500Y-63500000D01*
X130492500Y-63500000D02*
X125158500Y-63500000D01*
X125158500Y-63500000D02*
X123190000Y-65468500D01*
X123190000Y-65468500D02*
X119443500Y-65468500D01*
X119443500Y-65468500D02*
X118554500Y-66357500D01*
X118554500Y-66357500D02*
X118554500Y-67881500D01*
X118554500Y-67881500D02*
X118681500Y-68008500D01*
X124148000Y-80224000D02*
X124299000Y-80073000D01*
X124148000Y-81534000D02*
X124148000Y-80224000D01*
X148074500Y-73486000D02*
X148074500Y-77731500D01*
X148074500Y-77731500D02*
X147510500Y-78295500D01*
X147510500Y-78295500D02*
X137096500Y-78295500D01*
X137096500Y-78295500D02*
X132651500Y-82740500D01*
X132651500Y-82740500D02*
X124460000Y-82740500D01*
X124148000Y-82428500D02*
X124148000Y-81534000D01*
X124460000Y-82740500D02*
X124148000Y-82428500D01*
X125908500Y-74912500D02*
X126873000Y-75877000D01*
X125908500Y-74137000D02*
X125908500Y-74912500D01*
X126873000Y-77949000D02*
X126399000Y-78423000D01*
X126873000Y-76777000D02*
X126873000Y-77949000D01*
X129418500Y-69659500D02*
X141033500Y-69659500D01*
X141160000Y-69786000D02*
X143874500Y-69786000D01*
X141033500Y-69659500D02*
X141160000Y-69786000D01*
X124408500Y-68851500D02*
X124206000Y-68649000D01*
X124408500Y-70262000D02*
X124408500Y-68851500D01*
X150574500Y-70659500D02*
X151320501Y-69913499D01*
X151320501Y-69913499D02*
X151574500Y-69659500D01*
X150574500Y-73486000D02*
X150574500Y-70659500D01*
X126350000Y-65151000D02*
X130048000Y-65151000D01*
X140356790Y-67373500D02*
X140716000Y-67373500D01*
X124206000Y-67749000D02*
X124206000Y-67295000D01*
X124206000Y-67295000D02*
X126350000Y-65151000D01*
X130048000Y-65151000D02*
X132270500Y-67373500D01*
X132270500Y-67373500D02*
X140356790Y-67373500D01*
X123253500Y-67295000D02*
X126032500Y-64516000D01*
X123253500Y-67749000D02*
X123253500Y-67295000D01*
X126032500Y-64516000D02*
X130302000Y-64516000D01*
X130302000Y-64516000D02*
X132207000Y-66421000D01*
X150074500Y-73486000D02*
X150074500Y-70143500D01*
X150074500Y-70143500D02*
X152400000Y-67818000D01*
X152400000Y-67818000D02*
X152400000Y-67754500D01*
X132460999Y-66674999D02*
X132207000Y-66421000D01*
X142557500Y-66421000D02*
X142303501Y-66674999D01*
X142303501Y-66674999D02*
X132460999Y-66674999D01*
X123908500Y-69304000D02*
X123253500Y-68649000D01*
X123908500Y-70262000D02*
X123908500Y-69304000D01*
X124968000Y-68839500D02*
X125158500Y-68649000D01*
X124908500Y-70262000D02*
X124968000Y-70202500D01*
X124968000Y-70202500D02*
X124968000Y-68839500D01*
X146113500Y-73447000D02*
X146074500Y-73486000D01*
X146113500Y-67691000D02*
X146113500Y-73447000D01*
X131971553Y-67900053D02*
X140453117Y-67900053D01*
X126604000Y-65849500D02*
X129921000Y-65849500D01*
X125158500Y-67749000D02*
X125158500Y-67295000D01*
X129921000Y-65849500D02*
X131971553Y-67900053D01*
X141421750Y-67906902D02*
X141428599Y-67900053D01*
X125158500Y-67295000D02*
X126604000Y-65849500D01*
X141428599Y-67900053D02*
X141682598Y-67646054D01*
X140453117Y-67900053D02*
X140459966Y-67906902D01*
X140459966Y-67906902D02*
X141421750Y-67906902D01*
X129984500Y-73342500D02*
X129418500Y-73342500D01*
X145097500Y-77216000D02*
X132461000Y-77216000D01*
X146431000Y-76708000D02*
X145605500Y-76708000D01*
X132461000Y-77216000D02*
X131254500Y-76009500D01*
X131254500Y-76009500D02*
X131254500Y-74612500D01*
X145605500Y-76708000D02*
X145097500Y-77216000D01*
X131254500Y-74612500D02*
X129984500Y-73342500D01*
X150074500Y-68175000D02*
X148589999Y-69659501D01*
X150074500Y-58086000D02*
X150074500Y-68175000D01*
X148589999Y-69659501D02*
X148336000Y-69913500D01*
X128064500Y-73342500D02*
X128518500Y-73342500D01*
X128001500Y-73342500D02*
X128064500Y-73342500D01*
X127096000Y-72949500D02*
X127608500Y-72949500D01*
X127608500Y-72949500D02*
X128001500Y-73342500D01*
X127941500Y-74295000D02*
X128518500Y-74295000D01*
X127096000Y-73449500D02*
X127941500Y-74295000D01*
X147320000Y-70802500D02*
X147320000Y-69786500D01*
X149574500Y-67532000D02*
X149574500Y-58086000D01*
X147320000Y-69786500D02*
X149574500Y-67532000D01*
X145986500Y-77406500D02*
X147320000Y-77406500D01*
X129872500Y-74295000D02*
X130683000Y-75105500D01*
X129418500Y-74295000D02*
X129872500Y-74295000D01*
X130683000Y-75105500D02*
X130683000Y-76517500D01*
X130683000Y-76517500D02*
X131889500Y-77724000D01*
X131889500Y-77724000D02*
X145669000Y-77724000D01*
X145669000Y-77724000D02*
X145986500Y-77406500D01*
X129418500Y-71564500D02*
X133223000Y-71564500D01*
X133223000Y-71564500D02*
X133794500Y-70993000D01*
X153074500Y-61492000D02*
X153074500Y-58086000D01*
X151701500Y-62865000D02*
X153074500Y-61492000D01*
X128064500Y-71564500D02*
X128518500Y-71564500D01*
X127993500Y-71564500D02*
X128064500Y-71564500D01*
X127096000Y-71949500D02*
X127608500Y-71949500D01*
X127608500Y-71949500D02*
X127993500Y-71564500D01*
X128371250Y-70612000D02*
X128518500Y-70612000D01*
X127096000Y-71449500D02*
X127533750Y-71449500D01*
X127533750Y-71449500D02*
X128371250Y-70612000D01*
X129418500Y-70612000D02*
X133096000Y-70612000D01*
X133096000Y-70612000D02*
X133540500Y-70167500D01*
X133540500Y-70167500D02*
X139001500Y-70167500D01*
X139001500Y-70167500D02*
X139065000Y-70231000D01*
X156154500Y-66286000D02*
X159274500Y-66286000D01*
X151892000Y-70548500D02*
X156154500Y-66286000D01*
X127228500Y-70949500D02*
X128518500Y-69659500D01*
X127096000Y-70949500D02*
X127228500Y-70949500D01*
X127063500Y-67246500D02*
X127063500Y-67749000D01*
X141803000Y-69286000D02*
X141541500Y-69024500D01*
X143874500Y-69286000D02*
X141803000Y-69286000D01*
X141541500Y-69024500D02*
X131381500Y-69024500D01*
X131381500Y-69024500D02*
X129286000Y-66929000D01*
X129286000Y-66929000D02*
X127381000Y-66929000D01*
X127381000Y-66929000D02*
X127063500Y-67246500D01*
X126408500Y-70262000D02*
X126408500Y-69743000D01*
X126408500Y-69743000D02*
X127048500Y-69103000D01*
X127048500Y-68664000D02*
X127063500Y-68649000D01*
X127048500Y-69103000D02*
X127048500Y-68664000D01*
X126111000Y-67295000D02*
X126985000Y-66421000D01*
X126111000Y-67749000D02*
X126111000Y-67295000D01*
X126985000Y-66421000D02*
X129667000Y-66421000D01*
X129667000Y-66421000D02*
X131699000Y-68453000D01*
X131699000Y-68453000D02*
X142113000Y-68453000D01*
X154789000Y-64286000D02*
X159274500Y-64286000D01*
X150558500Y-68516500D02*
X154789000Y-64286000D01*
X126111000Y-69465749D02*
X126111000Y-69103000D01*
X125908500Y-69668249D02*
X126111000Y-69465749D01*
X125908500Y-70262000D02*
X125908500Y-69668249D01*
X126111000Y-69103000D02*
X126111000Y-68649000D01*
X122756500Y-73914000D02*
X123221000Y-73449500D01*
X121862000Y-73914000D02*
X122756500Y-73914000D01*
X137404500Y-60848000D02*
X137038500Y-61214000D01*
X138496000Y-60848000D02*
X137404500Y-60848000D01*
X143874500Y-63286000D02*
X140184500Y-63286000D01*
X138496000Y-61597500D02*
X138496000Y-60848000D01*
X140184500Y-63286000D02*
X138496000Y-61597500D01*
X137341000Y-56339500D02*
X137038500Y-56642000D01*
X138496000Y-56339500D02*
X137341000Y-56339500D01*
X143874500Y-62786000D02*
X142034000Y-62786000D01*
X142034000Y-62786000D02*
X141478000Y-62230000D01*
X141478000Y-62230000D02*
X141478000Y-59182000D01*
X141478000Y-59182000D02*
X140716000Y-58420000D01*
X140716000Y-58420000D02*
X138493500Y-58420000D01*
X138003000Y-56832500D02*
X138496000Y-56339500D01*
X137795000Y-56832500D02*
X138003000Y-56832500D01*
X139912500Y-52829500D02*
X140589000Y-52153000D01*
X138958500Y-52829500D02*
X139912500Y-52829500D01*
X140589000Y-52153000D02*
X140589000Y-50546000D01*
X140589000Y-50546000D02*
X141541500Y-49593500D01*
X141541500Y-49593500D02*
X144272000Y-49593500D01*
X144272000Y-49593500D02*
X146431000Y-51752500D01*
X146431000Y-51752500D02*
X148844000Y-51752500D01*
X148844000Y-51752500D02*
X149415500Y-52324000D01*
X149415500Y-52324000D02*
X149415500Y-55880000D01*
X148574500Y-56721000D02*
X148574500Y-58086000D01*
X149415500Y-55880000D02*
X148574500Y-56721000D01*
X125153000Y-53657500D02*
X123604000Y-53657500D01*
X146574500Y-59090000D02*
X146292000Y-59372500D01*
X146574500Y-58086000D02*
X146574500Y-59090000D01*
X146292000Y-59372500D02*
X145224500Y-59372500D01*
X145224500Y-59372500D02*
X144526000Y-58674000D01*
X144526000Y-58674000D02*
X142240000Y-58674000D01*
X142240000Y-58674000D02*
X141160500Y-57594500D01*
X141160500Y-57594500D02*
X127063500Y-57594500D01*
X127063500Y-57594500D02*
X126301500Y-56832500D01*
X126301500Y-56832500D02*
X126301500Y-53975000D01*
X125984000Y-53657500D02*
X125153000Y-53657500D01*
X126301500Y-53975000D02*
X125984000Y-53657500D01*
X123604000Y-52387500D02*
X125153000Y-52387500D01*
X147074500Y-58086000D02*
X147074500Y-56841000D01*
X147074500Y-56841000D02*
X146748500Y-56515000D01*
X126555500Y-47815500D02*
X126555500Y-51752500D01*
X143954500Y-46672500D02*
X127698500Y-46672500D01*
X127698500Y-46672500D02*
X126555500Y-47815500D01*
X145923000Y-48641000D02*
X143954500Y-46672500D01*
X126555500Y-51752500D02*
X125920500Y-52387500D01*
X145923000Y-49911000D02*
X145923000Y-48641000D01*
X125920500Y-52387500D02*
X125153000Y-52387500D01*
X118204000Y-52387500D02*
X116655000Y-52387500D01*
X114300000Y-54927500D02*
X114300000Y-52959000D01*
X114871500Y-52387500D02*
X116655000Y-52387500D01*
X114300000Y-52959000D02*
X114871500Y-52387500D01*
X118204000Y-53657500D02*
X116655000Y-53657500D01*
X116655000Y-53657500D02*
X115125500Y-53657500D01*
X107373000Y-59563000D02*
X106622000Y-59563000D01*
X107373000Y-58813500D02*
X106723000Y-58163500D01*
X107373000Y-59563000D02*
X107373000Y-58813500D01*
X108273000Y-59563000D02*
X109024000Y-59563000D01*
X108273000Y-58813500D02*
X108923000Y-58163500D01*
X108273000Y-59563000D02*
X108273000Y-58813500D01*
X109502500Y-55684000D02*
X108923000Y-56263500D01*
X110363000Y-55684000D02*
X109502500Y-55684000D01*
X108923000Y-56263500D02*
X106723000Y-56263500D01*
X111292500Y-55684000D02*
X111745000Y-56136500D01*
X110363000Y-55684000D02*
X111292500Y-55684000D01*
X171686500Y-56134000D02*
X171384000Y-56436500D01*
X173286000Y-56134000D02*
X171686500Y-56134000D01*
X159274500Y-66786000D02*
X164481000Y-66786000D01*
X164481000Y-66786000D02*
X164846000Y-66421000D01*
X164846000Y-66421000D02*
X164846000Y-58102500D01*
X164846000Y-58102500D02*
X167449500Y-55499000D01*
X171259000Y-56436500D02*
X171384000Y-56436500D01*
X167449500Y-55499000D02*
X170321500Y-55499000D01*
X170321500Y-55499000D02*
X171259000Y-56436500D01*
X171686500Y-60642500D02*
X171384000Y-60945000D01*
X173286000Y-60642500D02*
X171686500Y-60642500D01*
X159274500Y-67286000D02*
X164616000Y-67286000D01*
X164616000Y-67286000D02*
X165290500Y-66611500D01*
X165290500Y-66611500D02*
X165290500Y-61277500D01*
X165290500Y-61277500D02*
X166624000Y-59944000D01*
X171259000Y-60945000D02*
X171384000Y-60945000D01*
X166624000Y-59944000D02*
X170258000Y-59944000D01*
X170258000Y-59944000D02*
X171259000Y-60945000D01*
X171686500Y-65151000D02*
X171384000Y-65453500D01*
X173286000Y-65151000D02*
X171686500Y-65151000D01*
X159274500Y-67786000D02*
X164941500Y-67786000D01*
X164941500Y-67786000D02*
X165925500Y-66802000D01*
X165925500Y-66802000D02*
X165925500Y-65087500D01*
X165925500Y-65087500D02*
X166687500Y-64325500D01*
X171259000Y-65453500D02*
X171384000Y-65453500D01*
X166687500Y-64325500D02*
X170131000Y-64325500D01*
X170131000Y-64325500D02*
X171259000Y-65453500D01*
X171686500Y-69659500D02*
X171384000Y-69962000D01*
X173286000Y-69659500D02*
X171686500Y-69659500D01*
X171384000Y-69508000D02*
X171384000Y-69962000D01*
X159274500Y-68286000D02*
X170162000Y-68286000D01*
X170162000Y-68286000D02*
X171384000Y-69508000D01*
X171686500Y-74168000D02*
X171384000Y-74470500D01*
X173286000Y-74168000D02*
X171686500Y-74168000D01*
X171259000Y-74470500D02*
X171384000Y-74470500D01*
X159274500Y-68786000D02*
X166322000Y-68786000D01*
X166322000Y-68786000D02*
X168084500Y-70548500D01*
X168084500Y-70548500D02*
X168084500Y-72199500D01*
X168084500Y-72199500D02*
X169354500Y-73469500D01*
X169354500Y-73469500D02*
X170258000Y-73469500D01*
X170258000Y-73469500D02*
X171259000Y-74470500D01*
X171686500Y-78676500D02*
X171384000Y-78979000D01*
X173286000Y-78676500D02*
X171686500Y-78676500D01*
X159274500Y-69286000D02*
X165171000Y-69286000D01*
X165171000Y-69286000D02*
X167195500Y-71310500D01*
X167195500Y-71310500D02*
X167195500Y-75882500D01*
X167195500Y-75882500D02*
X168783000Y-77470000D01*
X168783000Y-77470000D02*
X170497500Y-77470000D01*
X171384000Y-78356500D02*
X171384000Y-78979000D01*
X170497500Y-77470000D02*
X171384000Y-78356500D01*
X134723787Y-52829500D02*
X136758500Y-52829500D01*
X133659000Y-55308500D02*
X133659000Y-53894287D01*
X133659000Y-53894287D02*
X134723787Y-52829500D01*
X133659000Y-48808500D02*
X133659000Y-55308500D01*
G36*
X190096811Y-68394987D02*
G01*
X190171500Y-68402343D01*
X191290500Y-68402343D01*
X191290500Y-68845584D01*
X191298184Y-68923594D01*
X191328548Y-69023688D01*
X191377855Y-69115935D01*
X191389000Y-69129515D01*
X191389000Y-73456990D01*
X191377033Y-73517149D01*
X191350043Y-73557543D01*
X191309649Y-73584533D01*
X191249490Y-73596500D01*
X189814010Y-73596500D01*
X189753851Y-73584533D01*
X189713457Y-73557543D01*
X189686467Y-73517149D01*
X189674500Y-73456990D01*
X189674500Y-68465510D01*
X189686467Y-68405351D01*
X189689708Y-68400500D01*
X189847584Y-68400500D01*
X189925594Y-68392817D01*
X189976086Y-68377500D01*
X190039164Y-68377500D01*
X190096811Y-68394987D01*
X190096811Y-68394987D01*
G37*
X190096811Y-68394987D02*
X190171500Y-68402343D01*
X191290500Y-68402343D01*
X191290500Y-68845584D01*
X191298184Y-68923594D01*
X191328548Y-69023688D01*
X191377855Y-69115935D01*
X191389000Y-69129515D01*
X191389000Y-73456990D01*
X191377033Y-73517149D01*
X191350043Y-73557543D01*
X191309649Y-73584533D01*
X191249490Y-73596500D01*
X189814010Y-73596500D01*
X189753851Y-73584533D01*
X189713457Y-73557543D01*
X189686467Y-73517149D01*
X189674500Y-73456990D01*
X189674500Y-68465510D01*
X189686467Y-68405351D01*
X189689708Y-68400500D01*
X189847584Y-68400500D01*
X189925594Y-68392817D01*
X189976086Y-68377500D01*
X190039164Y-68377500D01*
X190096811Y-68394987D01*
G36*
X194929149Y-52272467D02*
G01*
X194969543Y-52299457D01*
X194996533Y-52339851D01*
X195008500Y-52400010D01*
X195008500Y-62217490D01*
X194996533Y-62277649D01*
X194969543Y-62318043D01*
X194929149Y-62345033D01*
X194868990Y-62357000D01*
X191262000Y-62357000D01*
X191237223Y-62359440D01*
X191140021Y-62378775D01*
X191116197Y-62386002D01*
X191094241Y-62397738D01*
X191011838Y-62452798D01*
X190992592Y-62468592D01*
X190976798Y-62487838D01*
X190921738Y-62570241D01*
X190910002Y-62592197D01*
X190902775Y-62616021D01*
X190883440Y-62713223D01*
X190881000Y-62738000D01*
X190881000Y-65773490D01*
X190869033Y-65833649D01*
X190867023Y-65836657D01*
X190171500Y-65836657D01*
X190096811Y-65844013D01*
X190024992Y-65865799D01*
X190012416Y-65872521D01*
X189925594Y-65846183D01*
X189847584Y-65838500D01*
X189780610Y-65838500D01*
X189741095Y-65806071D01*
X189652843Y-65758899D01*
X189557085Y-65729851D01*
X189482447Y-65722500D01*
X189482444Y-65722500D01*
X189457500Y-65720043D01*
X189432556Y-65722500D01*
X188342693Y-65722500D01*
X188260785Y-65667771D01*
X188150500Y-65622089D01*
X188150500Y-64511739D01*
X188188696Y-64491322D01*
X188246711Y-64443711D01*
X188294322Y-64385696D01*
X188329701Y-64319508D01*
X188351487Y-64247689D01*
X188358843Y-64173000D01*
X188358843Y-62573000D01*
X188351487Y-62498311D01*
X188329701Y-62426492D01*
X188294322Y-62360304D01*
X188246711Y-62302289D01*
X188188696Y-62254678D01*
X188150500Y-62234261D01*
X188150500Y-52400010D01*
X188162467Y-52339851D01*
X188189457Y-52299457D01*
X188229851Y-52272467D01*
X188290010Y-52260500D01*
X194868990Y-52260500D01*
X194929149Y-52272467D01*
X194929149Y-52272467D01*
G37*
X194929149Y-52272467D02*
X194969543Y-52299457D01*
X194996533Y-52339851D01*
X195008500Y-52400010D01*
X195008500Y-62217490D01*
X194996533Y-62277649D01*
X194969543Y-62318043D01*
X194929149Y-62345033D01*
X194868990Y-62357000D01*
X191262000Y-62357000D01*
X191237223Y-62359440D01*
X191140021Y-62378775D01*
X191116197Y-62386002D01*
X191094241Y-62397738D01*
X191011838Y-62452798D01*
X190992592Y-62468592D01*
X190976798Y-62487838D01*
X190921738Y-62570241D01*
X190910002Y-62592197D01*
X190902775Y-62616021D01*
X190883440Y-62713223D01*
X190881000Y-62738000D01*
X190881000Y-65773490D01*
X190869033Y-65833649D01*
X190867023Y-65836657D01*
X190171500Y-65836657D01*
X190096811Y-65844013D01*
X190024992Y-65865799D01*
X190012416Y-65872521D01*
X189925594Y-65846183D01*
X189847584Y-65838500D01*
X189780610Y-65838500D01*
X189741095Y-65806071D01*
X189652843Y-65758899D01*
X189557085Y-65729851D01*
X189482447Y-65722500D01*
X189482444Y-65722500D01*
X189457500Y-65720043D01*
X189432556Y-65722500D01*
X188342693Y-65722500D01*
X188260785Y-65667771D01*
X188150500Y-65622089D01*
X188150500Y-64511739D01*
X188188696Y-64491322D01*
X188246711Y-64443711D01*
X188294322Y-64385696D01*
X188329701Y-64319508D01*
X188351487Y-64247689D01*
X188358843Y-64173000D01*
X188358843Y-62573000D01*
X188351487Y-62498311D01*
X188329701Y-62426492D01*
X188294322Y-62360304D01*
X188246711Y-62302289D01*
X188188696Y-62254678D01*
X188150500Y-62234261D01*
X188150500Y-52400010D01*
X188162467Y-52339851D01*
X188189457Y-52299457D01*
X188229851Y-52272467D01*
X188290010Y-52260500D01*
X194868990Y-52260500D01*
X194929149Y-52272467D01*
G36*
X187452000Y-73850500D02*
G01*
X181864000Y-73850500D01*
X181864000Y-68072000D01*
X187452000Y-68072000D01*
X187452000Y-73850500D01*
X187452000Y-73850500D01*
G37*
X187452000Y-73850500D02*
X181864000Y-73850500D01*
X181864000Y-68072000D01*
X187452000Y-68072000D01*
X187452000Y-73850500D01*
M02*
