G04 #@! TF.GenerationSoftware,KiCad,Pcbnew,(5.1.4)-1*
G04 #@! TF.CreationDate,2020-04-10T13:24:09-05:00*
G04 #@! TF.ProjectId,PIC32MZ_ETH_Demo,50494333-324d-45a5-9f45-54485f44656d,rev?*
G04 #@! TF.SameCoordinates,Original*
G04 #@! TF.FileFunction,Soldermask,Bot*
G04 #@! TF.FilePolarity,Negative*
%FSLAX46Y46*%
G04 Gerber Fmt 4.6, Leading zero omitted, Abs format (unit mm)*
G04 Created by KiCad (PCBNEW (5.1.4)-1) date 2020-04-10 13:24:09*
%MOMM*%
%LPD*%
G04 APERTURE LIST*
%ADD10C,0.100000*%
G04 APERTURE END LIST*
D10*
G36*
X138415085Y-79441302D02*
G01*
X138564910Y-79471104D01*
X138847174Y-79588021D01*
X139101205Y-79757759D01*
X139317241Y-79973795D01*
X139486979Y-80227826D01*
X139603896Y-80510090D01*
X139663500Y-80809740D01*
X139663500Y-81115260D01*
X139603896Y-81414910D01*
X139486979Y-81697174D01*
X139317241Y-81951205D01*
X139101205Y-82167241D01*
X138847174Y-82336979D01*
X138564910Y-82453896D01*
X138415085Y-82483698D01*
X138265261Y-82513500D01*
X137959739Y-82513500D01*
X137809915Y-82483698D01*
X137660090Y-82453896D01*
X137377826Y-82336979D01*
X137123795Y-82167241D01*
X136907759Y-81951205D01*
X136738021Y-81697174D01*
X136621104Y-81414910D01*
X136561500Y-81115260D01*
X136561500Y-80809740D01*
X136621104Y-80510090D01*
X136738021Y-80227826D01*
X136907759Y-79973795D01*
X137123795Y-79757759D01*
X137377826Y-79588021D01*
X137660090Y-79471104D01*
X137809915Y-79441302D01*
X137959739Y-79411500D01*
X138265261Y-79411500D01*
X138415085Y-79441302D01*
X138415085Y-79441302D01*
G37*
G36*
X163815085Y-79187302D02*
G01*
X163964910Y-79217104D01*
X164247174Y-79334021D01*
X164501205Y-79503759D01*
X164717241Y-79719795D01*
X164886979Y-79973826D01*
X165003896Y-80256090D01*
X165063500Y-80555740D01*
X165063500Y-80861260D01*
X165003896Y-81160910D01*
X164886979Y-81443174D01*
X164717241Y-81697205D01*
X164501205Y-81913241D01*
X164247174Y-82082979D01*
X163964910Y-82199896D01*
X163815085Y-82229698D01*
X163665261Y-82259500D01*
X163359739Y-82259500D01*
X163209915Y-82229698D01*
X163060090Y-82199896D01*
X162777826Y-82082979D01*
X162523795Y-81913241D01*
X162307759Y-81697205D01*
X162138021Y-81443174D01*
X162021104Y-81160910D01*
X161961500Y-80861260D01*
X161961500Y-80555740D01*
X162021104Y-80256090D01*
X162138021Y-79973826D01*
X162307759Y-79719795D01*
X162523795Y-79503759D01*
X162777826Y-79334021D01*
X163060090Y-79217104D01*
X163209915Y-79187302D01*
X163359739Y-79157500D01*
X163665261Y-79157500D01*
X163815085Y-79187302D01*
X163815085Y-79187302D01*
G37*
G36*
X198894000Y-81927000D02*
G01*
X197092000Y-81927000D01*
X197092000Y-80125000D01*
X198894000Y-80125000D01*
X198894000Y-81927000D01*
X198894000Y-81927000D01*
G37*
G36*
X126050000Y-81694500D02*
G01*
X125548000Y-81694500D01*
X125548000Y-80992500D01*
X126050000Y-80992500D01*
X126050000Y-81694500D01*
X126050000Y-81694500D01*
G37*
G36*
X125150000Y-81694500D02*
G01*
X124648000Y-81694500D01*
X124648000Y-80992500D01*
X125150000Y-80992500D01*
X125150000Y-81694500D01*
X125150000Y-81694500D01*
G37*
G36*
X126250000Y-80501500D02*
G01*
X125548000Y-80501500D01*
X125548000Y-79899500D01*
X126250000Y-79899500D01*
X126250000Y-80501500D01*
X126250000Y-80501500D01*
G37*
G36*
X125150000Y-80501500D02*
G01*
X124448000Y-80501500D01*
X124448000Y-79899500D01*
X125150000Y-79899500D01*
X125150000Y-80501500D01*
X125150000Y-80501500D01*
G37*
G36*
X104863572Y-77849918D02*
G01*
X104943155Y-77882882D01*
X105109439Y-77951759D01*
X105165953Y-77989521D01*
X105330711Y-78099609D01*
X105518891Y-78287789D01*
X105666742Y-78509063D01*
X105768582Y-78754928D01*
X105820500Y-79015937D01*
X105820500Y-79282063D01*
X105768582Y-79543072D01*
X105666742Y-79788937D01*
X105518891Y-80010211D01*
X105330711Y-80198391D01*
X105244357Y-80256091D01*
X105109439Y-80346241D01*
X105109438Y-80346242D01*
X105109437Y-80346242D01*
X104863572Y-80448082D01*
X104602563Y-80500000D01*
X104336437Y-80500000D01*
X104075428Y-80448082D01*
X103829563Y-80346242D01*
X103829562Y-80346242D01*
X103829561Y-80346241D01*
X103694643Y-80256091D01*
X103608289Y-80198391D01*
X103420109Y-80010211D01*
X103272258Y-79788937D01*
X103170418Y-79543072D01*
X103118500Y-79282063D01*
X103118500Y-79015937D01*
X103170418Y-78754928D01*
X103272258Y-78509063D01*
X103420109Y-78287789D01*
X103608289Y-78099609D01*
X103773047Y-77989521D01*
X103829561Y-77951759D01*
X103995846Y-77882882D01*
X104075428Y-77849918D01*
X104336437Y-77798000D01*
X104602563Y-77798000D01*
X104863572Y-77849918D01*
X104863572Y-77849918D01*
G37*
G36*
X97146500Y-80424500D02*
G01*
X96644500Y-80424500D01*
X96644500Y-79722500D01*
X97146500Y-79722500D01*
X97146500Y-80424500D01*
X97146500Y-80424500D01*
G37*
G36*
X98046500Y-80424500D02*
G01*
X97544500Y-80424500D01*
X97544500Y-79722500D01*
X98046500Y-79722500D01*
X98046500Y-80424500D01*
X98046500Y-80424500D01*
G37*
G36*
X170235000Y-79930000D02*
G01*
X169533000Y-79930000D01*
X169533000Y-79328000D01*
X170235000Y-79328000D01*
X170235000Y-79930000D01*
X170235000Y-79930000D01*
G37*
G36*
X171335000Y-79930000D02*
G01*
X170633000Y-79930000D01*
X170633000Y-79328000D01*
X171335000Y-79328000D01*
X171335000Y-79930000D01*
X171335000Y-79930000D01*
G37*
G36*
X126250000Y-79612500D02*
G01*
X125548000Y-79612500D01*
X125548000Y-79010500D01*
X126250000Y-79010500D01*
X126250000Y-79612500D01*
X126250000Y-79612500D01*
G37*
G36*
X125150000Y-79612500D02*
G01*
X124448000Y-79612500D01*
X124448000Y-79010500D01*
X125150000Y-79010500D01*
X125150000Y-79612500D01*
X125150000Y-79612500D01*
G37*
G36*
X101700572Y-75436074D02*
G01*
X101908371Y-75477408D01*
X102213383Y-75603748D01*
X102487887Y-75787166D01*
X102721334Y-76020613D01*
X102904752Y-76295117D01*
X103029600Y-76596527D01*
X103031092Y-76600130D01*
X103074103Y-76816356D01*
X103095500Y-76923928D01*
X103095500Y-77254072D01*
X103031092Y-77577871D01*
X102904752Y-77882883D01*
X102721334Y-78157387D01*
X102487887Y-78390834D01*
X102213383Y-78574252D01*
X101908371Y-78700592D01*
X101793205Y-78723500D01*
X101584573Y-78765000D01*
X101254427Y-78765000D01*
X101045795Y-78723500D01*
X100930629Y-78700592D01*
X100625617Y-78574252D01*
X100351113Y-78390834D01*
X100117666Y-78157387D01*
X99934248Y-77882883D01*
X99807908Y-77577871D01*
X99743500Y-77254072D01*
X99743500Y-76923928D01*
X99764898Y-76816356D01*
X99807908Y-76600130D01*
X99809400Y-76596527D01*
X99934248Y-76295117D01*
X100117666Y-76020613D01*
X100351113Y-75787166D01*
X100625617Y-75603748D01*
X100930629Y-75477408D01*
X101138428Y-75436074D01*
X101254427Y-75413000D01*
X101584573Y-75413000D01*
X101700572Y-75436074D01*
X101700572Y-75436074D01*
G37*
G36*
X125150000Y-78723500D02*
G01*
X124448000Y-78723500D01*
X124448000Y-78121500D01*
X125150000Y-78121500D01*
X125150000Y-78723500D01*
X125150000Y-78723500D01*
G37*
G36*
X126250000Y-78723500D02*
G01*
X125548000Y-78723500D01*
X125548000Y-78121500D01*
X126250000Y-78121500D01*
X126250000Y-78723500D01*
X126250000Y-78723500D01*
G37*
G36*
X98330021Y-76741275D02*
G01*
X98420653Y-76778816D01*
X98511283Y-76816356D01*
X98674413Y-76925356D01*
X98813144Y-77064087D01*
X98922144Y-77227217D01*
X98933268Y-77254073D01*
X98997225Y-77408479D01*
X99035500Y-77600901D01*
X99035500Y-77797099D01*
X98997225Y-77989521D01*
X98959684Y-78080153D01*
X98922144Y-78170783D01*
X98813144Y-78333913D01*
X98674413Y-78472644D01*
X98511283Y-78581644D01*
X98420652Y-78619184D01*
X98330021Y-78656725D01*
X98137599Y-78695000D01*
X97941401Y-78695000D01*
X97748979Y-78656725D01*
X97658347Y-78619184D01*
X97567717Y-78581644D01*
X97404587Y-78472644D01*
X97265856Y-78333913D01*
X97156856Y-78170783D01*
X97119316Y-78080153D01*
X97081775Y-77989521D01*
X97043500Y-77797099D01*
X97043500Y-77600901D01*
X97081775Y-77408479D01*
X97145732Y-77254073D01*
X97156856Y-77227217D01*
X97265856Y-77064087D01*
X97404587Y-76925356D01*
X97567717Y-76816356D01*
X97658347Y-76778816D01*
X97748979Y-76741275D01*
X97941401Y-76703000D01*
X98137599Y-76703000D01*
X98330021Y-76741275D01*
X98330021Y-76741275D01*
G37*
G36*
X125446000Y-77028000D02*
G01*
X124744000Y-77028000D01*
X124744000Y-76526000D01*
X125446000Y-76526000D01*
X125446000Y-77028000D01*
X125446000Y-77028000D01*
G37*
G36*
X127224000Y-77028000D02*
G01*
X126522000Y-77028000D01*
X126522000Y-76526000D01*
X127224000Y-76526000D01*
X127224000Y-77028000D01*
X127224000Y-77028000D01*
G37*
G36*
X124493500Y-77028000D02*
G01*
X123791500Y-77028000D01*
X123791500Y-76526000D01*
X124493500Y-76526000D01*
X124493500Y-77028000D01*
X124493500Y-77028000D01*
G37*
G36*
X110494785Y-74837234D02*
G01*
X110591481Y-74856468D01*
X110773651Y-74931926D01*
X110937600Y-75041473D01*
X111077027Y-75180900D01*
X111186574Y-75344849D01*
X111262032Y-75527019D01*
X111300500Y-75720410D01*
X111300500Y-75917590D01*
X111262032Y-76110981D01*
X111186574Y-76293151D01*
X111077027Y-76457100D01*
X110937600Y-76596527D01*
X110773651Y-76706074D01*
X110591481Y-76781532D01*
X110398091Y-76820000D01*
X110200909Y-76820000D01*
X110007519Y-76781532D01*
X109825349Y-76706074D01*
X109661400Y-76596527D01*
X109521973Y-76457100D01*
X109412426Y-76293151D01*
X109336968Y-76110981D01*
X109298500Y-75917590D01*
X109298500Y-75720410D01*
X109336968Y-75527019D01*
X109412426Y-75344849D01*
X109521973Y-75180900D01*
X109661400Y-75041473D01*
X109825349Y-74931926D01*
X110007519Y-74856468D01*
X110104215Y-74837234D01*
X110200909Y-74818000D01*
X110398091Y-74818000D01*
X110494785Y-74837234D01*
X110494785Y-74837234D01*
G37*
G36*
X96810021Y-74201275D02*
G01*
X96900653Y-74238816D01*
X96991283Y-74276356D01*
X97154413Y-74385356D01*
X97293144Y-74524087D01*
X97402144Y-74687217D01*
X97439684Y-74777847D01*
X97477225Y-74868479D01*
X97515500Y-75060901D01*
X97515500Y-75257099D01*
X97477225Y-75449521D01*
X97462529Y-75485000D01*
X97402144Y-75630783D01*
X97293144Y-75793913D01*
X97154413Y-75932644D01*
X96991283Y-76041644D01*
X96900653Y-76079184D01*
X96810021Y-76116725D01*
X96617599Y-76155000D01*
X96421401Y-76155000D01*
X96228979Y-76116725D01*
X96138347Y-76079184D01*
X96047717Y-76041644D01*
X95884587Y-75932644D01*
X95745856Y-75793913D01*
X95636856Y-75630783D01*
X95576471Y-75485000D01*
X95561775Y-75449521D01*
X95523500Y-75257099D01*
X95523500Y-75060901D01*
X95561775Y-74868479D01*
X95599316Y-74777847D01*
X95636856Y-74687217D01*
X95745856Y-74524087D01*
X95884587Y-74385356D01*
X96047717Y-74276356D01*
X96138347Y-74238816D01*
X96228979Y-74201275D01*
X96421401Y-74163000D01*
X96617599Y-74163000D01*
X96810021Y-74201275D01*
X96810021Y-74201275D01*
G37*
G36*
X124493500Y-76128000D02*
G01*
X123791500Y-76128000D01*
X123791500Y-75626000D01*
X124493500Y-75626000D01*
X124493500Y-76128000D01*
X124493500Y-76128000D01*
G37*
G36*
X125446000Y-76128000D02*
G01*
X124744000Y-76128000D01*
X124744000Y-75626000D01*
X125446000Y-75626000D01*
X125446000Y-76128000D01*
X125446000Y-76128000D01*
G37*
G36*
X127224000Y-76128000D02*
G01*
X126522000Y-76128000D01*
X126522000Y-75626000D01*
X127224000Y-75626000D01*
X127224000Y-76128000D01*
X127224000Y-76128000D01*
G37*
G36*
X108051481Y-73586468D02*
G01*
X108233651Y-73661926D01*
X108397600Y-73771473D01*
X108537027Y-73910900D01*
X108646574Y-74074849D01*
X108722032Y-74257019D01*
X108760500Y-74450410D01*
X108760500Y-74647590D01*
X108722032Y-74840981D01*
X108646574Y-75023151D01*
X108537027Y-75187100D01*
X108397600Y-75326527D01*
X108233651Y-75436074D01*
X108233650Y-75436075D01*
X108233649Y-75436075D01*
X108201185Y-75449522D01*
X108051481Y-75511532D01*
X107973623Y-75527019D01*
X107858091Y-75550000D01*
X107660909Y-75550000D01*
X107545377Y-75527019D01*
X107467519Y-75511532D01*
X107317815Y-75449522D01*
X107285351Y-75436075D01*
X107285350Y-75436075D01*
X107285349Y-75436074D01*
X107121400Y-75326527D01*
X106981973Y-75187100D01*
X106872426Y-75023151D01*
X106796968Y-74840981D01*
X106758500Y-74647590D01*
X106758500Y-74450410D01*
X106796968Y-74257019D01*
X106872426Y-74074849D01*
X106981973Y-73910900D01*
X107121400Y-73771473D01*
X107285349Y-73661926D01*
X107467519Y-73586468D01*
X107660909Y-73548000D01*
X107858091Y-73548000D01*
X108051481Y-73586468D01*
X108051481Y-73586468D01*
G37*
G36*
X129869500Y-75485000D02*
G01*
X129167500Y-75485000D01*
X129167500Y-74883000D01*
X129869500Y-74883000D01*
X129869500Y-75485000D01*
X129869500Y-75485000D01*
G37*
G36*
X128769500Y-75485000D02*
G01*
X128067500Y-75485000D01*
X128067500Y-74883000D01*
X128769500Y-74883000D01*
X128769500Y-75485000D01*
X128769500Y-75485000D01*
G37*
G36*
X171335000Y-75421500D02*
G01*
X170633000Y-75421500D01*
X170633000Y-74819500D01*
X171335000Y-74819500D01*
X171335000Y-75421500D01*
X171335000Y-75421500D01*
G37*
G36*
X170235000Y-75421500D02*
G01*
X169533000Y-75421500D01*
X169533000Y-74819500D01*
X170235000Y-74819500D01*
X170235000Y-75421500D01*
X170235000Y-75421500D01*
G37*
G36*
X194992000Y-74942000D02*
G01*
X194390000Y-74942000D01*
X194390000Y-74240000D01*
X194992000Y-74240000D01*
X194992000Y-74942000D01*
X194992000Y-74942000D01*
G37*
G36*
X110494785Y-72297234D02*
G01*
X110591481Y-72316468D01*
X110773651Y-72391926D01*
X110937600Y-72501473D01*
X111077027Y-72640900D01*
X111186574Y-72804849D01*
X111262032Y-72987019D01*
X111300500Y-73180410D01*
X111300500Y-73377590D01*
X111262032Y-73570981D01*
X111186574Y-73753151D01*
X111077027Y-73917100D01*
X110937600Y-74056527D01*
X110773651Y-74166074D01*
X110591481Y-74241532D01*
X110513623Y-74257019D01*
X110398091Y-74280000D01*
X110200909Y-74280000D01*
X110085377Y-74257019D01*
X110007519Y-74241532D01*
X109825349Y-74166074D01*
X109661400Y-74056527D01*
X109521973Y-73917100D01*
X109412426Y-73753151D01*
X109336968Y-73570981D01*
X109298500Y-73377590D01*
X109298500Y-73180410D01*
X109336968Y-72987019D01*
X109412426Y-72804849D01*
X109521973Y-72640900D01*
X109661400Y-72501473D01*
X109825349Y-72391926D01*
X110007519Y-72316468D01*
X110104215Y-72297234D01*
X110200909Y-72278000D01*
X110398091Y-72278000D01*
X110494785Y-72297234D01*
X110494785Y-72297234D01*
G37*
G36*
X194992000Y-73842000D02*
G01*
X194390000Y-73842000D01*
X194390000Y-73140000D01*
X194992000Y-73140000D01*
X194992000Y-73842000D01*
X194992000Y-73842000D01*
G37*
G36*
X108051481Y-71046468D02*
G01*
X108233651Y-71121926D01*
X108397600Y-71231473D01*
X108537027Y-71370900D01*
X108646574Y-71534849D01*
X108722032Y-71717019D01*
X108760500Y-71910410D01*
X108760500Y-72107590D01*
X108722032Y-72300981D01*
X108646574Y-72483151D01*
X108537027Y-72647100D01*
X108397600Y-72786527D01*
X108233651Y-72896074D01*
X108051481Y-72971532D01*
X107973623Y-72987019D01*
X107858091Y-73010000D01*
X107660909Y-73010000D01*
X107545377Y-72987019D01*
X107467519Y-72971532D01*
X107285349Y-72896074D01*
X107121400Y-72786527D01*
X106981973Y-72647100D01*
X106872426Y-72483151D01*
X106796968Y-72300981D01*
X106758500Y-72107590D01*
X106758500Y-71910410D01*
X106796968Y-71717019D01*
X106872426Y-71534849D01*
X106981973Y-71370900D01*
X107121400Y-71231473D01*
X107285349Y-71121926D01*
X107467519Y-71046468D01*
X107660909Y-71008000D01*
X107858091Y-71008000D01*
X108051481Y-71046468D01*
X108051481Y-71046468D01*
G37*
G36*
X110591481Y-69776468D02*
G01*
X110773651Y-69851926D01*
X110937600Y-69961473D01*
X111077027Y-70100900D01*
X111186574Y-70264849D01*
X111262032Y-70447019D01*
X111300500Y-70640410D01*
X111300500Y-70837590D01*
X111262032Y-71030981D01*
X111186574Y-71213151D01*
X111077027Y-71377100D01*
X110937600Y-71516527D01*
X110773651Y-71626074D01*
X110591481Y-71701532D01*
X110513623Y-71717019D01*
X110398091Y-71740000D01*
X110200909Y-71740000D01*
X110085377Y-71717019D01*
X110007519Y-71701532D01*
X109825349Y-71626074D01*
X109661400Y-71516527D01*
X109521973Y-71377100D01*
X109412426Y-71213151D01*
X109336968Y-71030981D01*
X109298500Y-70837590D01*
X109298500Y-70640410D01*
X109336968Y-70447019D01*
X109412426Y-70264849D01*
X109521973Y-70100900D01*
X109661400Y-69961473D01*
X109825349Y-69851926D01*
X110007519Y-69776468D01*
X110200909Y-69738000D01*
X110398091Y-69738000D01*
X110591481Y-69776468D01*
X110591481Y-69776468D01*
G37*
G36*
X140199500Y-71280500D02*
G01*
X139697500Y-71280500D01*
X139697500Y-70578500D01*
X140199500Y-70578500D01*
X140199500Y-71280500D01*
X140199500Y-71280500D01*
G37*
G36*
X141099500Y-71280500D02*
G01*
X140597500Y-71280500D01*
X140597500Y-70578500D01*
X141099500Y-70578500D01*
X141099500Y-71280500D01*
X141099500Y-71280500D01*
G37*
G36*
X171335000Y-70913000D02*
G01*
X170633000Y-70913000D01*
X170633000Y-70311000D01*
X171335000Y-70311000D01*
X171335000Y-70913000D01*
X171335000Y-70913000D01*
G37*
G36*
X170235000Y-70913000D02*
G01*
X169533000Y-70913000D01*
X169533000Y-70311000D01*
X170235000Y-70311000D01*
X170235000Y-70913000D01*
X170235000Y-70913000D01*
G37*
G36*
X107876405Y-68471643D02*
G01*
X108051481Y-68506468D01*
X108233651Y-68581926D01*
X108397600Y-68691473D01*
X108537027Y-68830900D01*
X108646574Y-68994849D01*
X108722032Y-69177019D01*
X108760500Y-69370410D01*
X108760500Y-69567590D01*
X108722032Y-69760981D01*
X108646574Y-69943151D01*
X108537027Y-70107100D01*
X108397600Y-70246527D01*
X108233651Y-70356074D01*
X108051481Y-70431532D01*
X107973623Y-70447019D01*
X107858091Y-70470000D01*
X107660909Y-70470000D01*
X107545377Y-70447019D01*
X107467519Y-70431532D01*
X107285349Y-70356074D01*
X107121400Y-70246527D01*
X106981973Y-70107100D01*
X106872426Y-69943151D01*
X106796968Y-69760981D01*
X106758500Y-69567590D01*
X106758500Y-69370410D01*
X106796968Y-69177019D01*
X106872426Y-68994849D01*
X106981973Y-68830900D01*
X107121400Y-68691473D01*
X107285349Y-68581926D01*
X107467519Y-68506468D01*
X107642595Y-68471643D01*
X107660909Y-68468000D01*
X107858091Y-68468000D01*
X107876405Y-68471643D01*
X107876405Y-68471643D01*
G37*
G36*
X128769500Y-70010500D02*
G01*
X128267500Y-70010500D01*
X128267500Y-69308500D01*
X128769500Y-69308500D01*
X128769500Y-70010500D01*
X128769500Y-70010500D01*
G37*
G36*
X129669500Y-70010500D02*
G01*
X129167500Y-70010500D01*
X129167500Y-69308500D01*
X129669500Y-69308500D01*
X129669500Y-70010500D01*
X129669500Y-70010500D01*
G37*
G36*
X110494785Y-67217234D02*
G01*
X110591481Y-67236468D01*
X110720295Y-67289825D01*
X110741188Y-67298479D01*
X110773651Y-67311926D01*
X110937600Y-67421473D01*
X111077027Y-67560900D01*
X111186574Y-67724849D01*
X111262032Y-67907019D01*
X111300500Y-68100410D01*
X111300500Y-68297590D01*
X111262032Y-68490981D01*
X111186574Y-68673151D01*
X111077027Y-68837100D01*
X110937600Y-68976527D01*
X110773651Y-69086074D01*
X110591481Y-69161532D01*
X110513623Y-69177019D01*
X110398091Y-69200000D01*
X110200909Y-69200000D01*
X110085377Y-69177019D01*
X110007519Y-69161532D01*
X109825349Y-69086074D01*
X109661400Y-68976527D01*
X109521973Y-68837100D01*
X109412426Y-68673151D01*
X109336968Y-68490981D01*
X109298500Y-68297590D01*
X109298500Y-68100410D01*
X109336968Y-67907019D01*
X109412426Y-67724849D01*
X109521973Y-67560900D01*
X109661400Y-67421473D01*
X109825349Y-67311926D01*
X109857813Y-67298479D01*
X109878705Y-67289825D01*
X110007519Y-67236468D01*
X110104215Y-67217234D01*
X110200909Y-67198000D01*
X110398091Y-67198000D01*
X110494785Y-67217234D01*
X110494785Y-67217234D01*
G37*
G36*
X98330021Y-66631275D02*
G01*
X98420652Y-66668816D01*
X98511283Y-66706356D01*
X98674413Y-66815356D01*
X98813144Y-66954087D01*
X98922144Y-67117217D01*
X98933342Y-67144252D01*
X98997225Y-67298479D01*
X99035500Y-67490901D01*
X99035500Y-67687099D01*
X98997225Y-67879521D01*
X98985834Y-67907020D01*
X98922144Y-68060783D01*
X98813144Y-68223913D01*
X98674413Y-68362644D01*
X98511283Y-68471644D01*
X98420653Y-68509184D01*
X98330021Y-68546725D01*
X98137599Y-68585000D01*
X97941401Y-68585000D01*
X97748979Y-68546725D01*
X97658347Y-68509184D01*
X97567717Y-68471644D01*
X97404587Y-68362644D01*
X97265856Y-68223913D01*
X97156856Y-68060783D01*
X97093166Y-67907020D01*
X97081775Y-67879521D01*
X97043500Y-67687099D01*
X97043500Y-67490901D01*
X97081775Y-67298479D01*
X97145658Y-67144252D01*
X97156856Y-67117217D01*
X97265856Y-66954087D01*
X97404587Y-66815356D01*
X97567717Y-66706356D01*
X97658348Y-66668816D01*
X97748979Y-66631275D01*
X97941401Y-66593000D01*
X98137599Y-66593000D01*
X98330021Y-66631275D01*
X98330021Y-66631275D01*
G37*
G36*
X121064500Y-68265000D02*
G01*
X120362500Y-68265000D01*
X120362500Y-67763000D01*
X121064500Y-67763000D01*
X121064500Y-68265000D01*
X121064500Y-68265000D01*
G37*
G36*
X120048500Y-68265000D02*
G01*
X119346500Y-68265000D01*
X119346500Y-67763000D01*
X120048500Y-67763000D01*
X120048500Y-68265000D01*
X120048500Y-68265000D01*
G37*
G36*
X122080500Y-68265000D02*
G01*
X121378500Y-68265000D01*
X121378500Y-67763000D01*
X122080500Y-67763000D01*
X122080500Y-68265000D01*
X122080500Y-68265000D01*
G37*
G36*
X108760500Y-67930000D02*
G01*
X106758500Y-67930000D01*
X106758500Y-65928000D01*
X108760500Y-65928000D01*
X108760500Y-67930000D01*
X108760500Y-67930000D01*
G37*
G36*
X122080500Y-67365000D02*
G01*
X121378500Y-67365000D01*
X121378500Y-66863000D01*
X122080500Y-66863000D01*
X122080500Y-67365000D01*
X122080500Y-67365000D01*
G37*
G36*
X120048500Y-67365000D02*
G01*
X119346500Y-67365000D01*
X119346500Y-66863000D01*
X120048500Y-66863000D01*
X120048500Y-67365000D01*
X120048500Y-67365000D01*
G37*
G36*
X121064500Y-67365000D02*
G01*
X120362500Y-67365000D01*
X120362500Y-66863000D01*
X121064500Y-66863000D01*
X121064500Y-67365000D01*
X121064500Y-67365000D01*
G37*
G36*
X101719098Y-64009759D02*
G01*
X101908371Y-64047408D01*
X102213383Y-64173748D01*
X102487887Y-64357166D01*
X102721334Y-64590613D01*
X102904752Y-64865117D01*
X103031092Y-65170129D01*
X103031092Y-65170130D01*
X103095500Y-65493927D01*
X103095500Y-65824073D01*
X103070616Y-65949172D01*
X103031092Y-66147871D01*
X102904752Y-66452883D01*
X102721334Y-66727387D01*
X102487887Y-66960834D01*
X102213383Y-67144252D01*
X101908371Y-67270592D01*
X101768179Y-67298478D01*
X101584573Y-67335000D01*
X101254427Y-67335000D01*
X101070821Y-67298478D01*
X100930629Y-67270592D01*
X100625617Y-67144252D01*
X100351113Y-66960834D01*
X100117666Y-66727387D01*
X99934248Y-66452883D01*
X99807908Y-66147871D01*
X99768384Y-65949172D01*
X99743500Y-65824073D01*
X99743500Y-65493927D01*
X99807908Y-65170130D01*
X99807908Y-65170129D01*
X99934248Y-64865117D01*
X100117666Y-64590613D01*
X100351113Y-64357166D01*
X100625617Y-64173748D01*
X100930629Y-64047408D01*
X101119902Y-64009759D01*
X101254427Y-63983000D01*
X101584573Y-63983000D01*
X101719098Y-64009759D01*
X101719098Y-64009759D01*
G37*
G36*
X199883085Y-63693302D02*
G01*
X200032910Y-63723104D01*
X200315174Y-63840021D01*
X200569205Y-64009759D01*
X200785241Y-64225795D01*
X200954979Y-64479826D01*
X201071896Y-64762090D01*
X201131500Y-65061740D01*
X201131500Y-65367260D01*
X201071896Y-65666910D01*
X200954979Y-65949174D01*
X200785241Y-66203205D01*
X200569205Y-66419241D01*
X200315174Y-66588979D01*
X200032910Y-66705896D01*
X199924867Y-66727387D01*
X199733261Y-66765500D01*
X199427739Y-66765500D01*
X199236133Y-66727387D01*
X199128090Y-66705896D01*
X198845826Y-66588979D01*
X198591795Y-66419241D01*
X198375759Y-66203205D01*
X198206021Y-65949174D01*
X198089104Y-65666910D01*
X198029500Y-65367260D01*
X198029500Y-65061740D01*
X198089104Y-64762090D01*
X198206021Y-64479826D01*
X198375759Y-64225795D01*
X198591795Y-64009759D01*
X198845826Y-63840021D01*
X199128090Y-63723104D01*
X199277915Y-63693302D01*
X199427739Y-63663500D01*
X199733261Y-63663500D01*
X199883085Y-63693302D01*
X199883085Y-63693302D01*
G37*
G36*
X171335000Y-66404500D02*
G01*
X170633000Y-66404500D01*
X170633000Y-65802500D01*
X171335000Y-65802500D01*
X171335000Y-66404500D01*
X171335000Y-66404500D01*
G37*
G36*
X170235000Y-66404500D02*
G01*
X169533000Y-66404500D01*
X169533000Y-65802500D01*
X170235000Y-65802500D01*
X170235000Y-66404500D01*
X170235000Y-66404500D01*
G37*
G36*
X96810021Y-64091275D02*
G01*
X96900653Y-64128816D01*
X96991283Y-64166356D01*
X97154413Y-64275356D01*
X97293144Y-64414087D01*
X97402144Y-64577217D01*
X97431625Y-64648391D01*
X97477225Y-64758479D01*
X97515500Y-64950901D01*
X97515500Y-65147099D01*
X97477225Y-65339521D01*
X97439684Y-65430152D01*
X97402144Y-65520783D01*
X97293144Y-65683913D01*
X97154413Y-65822644D01*
X96991283Y-65931644D01*
X96948961Y-65949174D01*
X96810021Y-66006725D01*
X96617599Y-66045000D01*
X96421401Y-66045000D01*
X96228979Y-66006725D01*
X96090039Y-65949174D01*
X96047717Y-65931644D01*
X95884587Y-65822644D01*
X95745856Y-65683913D01*
X95636856Y-65520783D01*
X95599316Y-65430152D01*
X95561775Y-65339521D01*
X95523500Y-65147099D01*
X95523500Y-64950901D01*
X95561775Y-64758479D01*
X95607375Y-64648391D01*
X95636856Y-64577217D01*
X95745856Y-64414087D01*
X95884587Y-64275356D01*
X96047717Y-64166356D01*
X96138347Y-64128816D01*
X96228979Y-64091275D01*
X96421401Y-64053000D01*
X96617599Y-64053000D01*
X96810021Y-64091275D01*
X96810021Y-64091275D01*
G37*
G36*
X190502500Y-64994000D02*
G01*
X190000500Y-64994000D01*
X190000500Y-64292000D01*
X190502500Y-64292000D01*
X190502500Y-64994000D01*
X190502500Y-64994000D01*
G37*
G36*
X189602500Y-64994000D02*
G01*
X189100500Y-64994000D01*
X189100500Y-64292000D01*
X189602500Y-64292000D01*
X189602500Y-64994000D01*
X189602500Y-64994000D01*
G37*
G36*
X188788000Y-64994000D02*
G01*
X188286000Y-64994000D01*
X188286000Y-64292000D01*
X188788000Y-64292000D01*
X188788000Y-64994000D01*
X188788000Y-64994000D01*
G37*
G36*
X187888000Y-64994000D02*
G01*
X187386000Y-64994000D01*
X187386000Y-64292000D01*
X187888000Y-64292000D01*
X187888000Y-64994000D01*
X187888000Y-64994000D01*
G37*
G36*
X104863572Y-62299918D02*
G01*
X105109439Y-62401759D01*
X105198816Y-62461479D01*
X105330711Y-62549609D01*
X105518891Y-62737789D01*
X105666742Y-62959063D01*
X105768582Y-63204928D01*
X105820500Y-63465937D01*
X105820500Y-63732063D01*
X105768582Y-63993072D01*
X105672186Y-64225795D01*
X105666741Y-64238939D01*
X105518890Y-64460212D01*
X105330712Y-64648390D01*
X105109439Y-64796241D01*
X105109438Y-64796242D01*
X105109437Y-64796242D01*
X104863572Y-64898082D01*
X104602563Y-64950000D01*
X104336437Y-64950000D01*
X104075428Y-64898082D01*
X103829563Y-64796242D01*
X103829562Y-64796242D01*
X103829561Y-64796241D01*
X103608288Y-64648390D01*
X103420110Y-64460212D01*
X103272259Y-64238939D01*
X103266815Y-64225795D01*
X103170418Y-63993072D01*
X103118500Y-63732063D01*
X103118500Y-63465937D01*
X103170418Y-63204928D01*
X103272258Y-62959063D01*
X103420109Y-62737789D01*
X103608289Y-62549609D01*
X103740184Y-62461479D01*
X103829561Y-62401759D01*
X104075428Y-62299918D01*
X104336437Y-62248000D01*
X104602563Y-62248000D01*
X104863572Y-62299918D01*
X104863572Y-62299918D01*
G37*
G36*
X97983000Y-62962000D02*
G01*
X97481000Y-62962000D01*
X97481000Y-62260000D01*
X97983000Y-62260000D01*
X97983000Y-62962000D01*
X97983000Y-62962000D01*
G37*
G36*
X97083000Y-62962000D02*
G01*
X96581000Y-62962000D01*
X96581000Y-62260000D01*
X97083000Y-62260000D01*
X97083000Y-62962000D01*
X97083000Y-62962000D01*
G37*
G36*
X121206585Y-59565802D02*
G01*
X121356410Y-59595604D01*
X121638674Y-59712521D01*
X121892705Y-59882259D01*
X122108741Y-60098295D01*
X122278479Y-60352326D01*
X122395396Y-60634590D01*
X122455000Y-60934240D01*
X122455000Y-61239760D01*
X122395396Y-61539410D01*
X122278479Y-61821674D01*
X122108741Y-62075705D01*
X121892705Y-62291741D01*
X121638674Y-62461479D01*
X121356410Y-62578396D01*
X121206585Y-62608198D01*
X121056761Y-62638000D01*
X120751239Y-62638000D01*
X120601415Y-62608198D01*
X120451590Y-62578396D01*
X120169326Y-62461479D01*
X119915295Y-62291741D01*
X119699259Y-62075705D01*
X119529521Y-61821674D01*
X119412604Y-61539410D01*
X119353000Y-61239760D01*
X119353000Y-60934240D01*
X119412604Y-60634590D01*
X119529521Y-60352326D01*
X119699259Y-60098295D01*
X119915295Y-59882259D01*
X120169326Y-59712521D01*
X120451590Y-59595604D01*
X120601415Y-59565802D01*
X120751239Y-59536000D01*
X121056761Y-59536000D01*
X121206585Y-59565802D01*
X121206585Y-59565802D01*
G37*
G36*
X170235000Y-61896000D02*
G01*
X169533000Y-61896000D01*
X169533000Y-61294000D01*
X170235000Y-61294000D01*
X170235000Y-61896000D01*
X170235000Y-61896000D01*
G37*
G36*
X171335000Y-61896000D02*
G01*
X170633000Y-61896000D01*
X170633000Y-61294000D01*
X171335000Y-61294000D01*
X171335000Y-61896000D01*
X171335000Y-61896000D01*
G37*
G36*
X139247000Y-60499000D02*
G01*
X138545000Y-60499000D01*
X138545000Y-59897000D01*
X139247000Y-59897000D01*
X139247000Y-60499000D01*
X139247000Y-60499000D01*
G37*
G36*
X140347000Y-60499000D02*
G01*
X139645000Y-60499000D01*
X139645000Y-59897000D01*
X140347000Y-59897000D01*
X140347000Y-60499000D01*
X140347000Y-60499000D01*
G37*
G36*
X109324500Y-59844000D02*
G01*
X107972500Y-59844000D01*
X107972500Y-58742000D01*
X109324500Y-58742000D01*
X109324500Y-59844000D01*
X109324500Y-59844000D01*
G37*
G36*
X110410000Y-58432000D02*
G01*
X109808000Y-58432000D01*
X109808000Y-57730000D01*
X110410000Y-57730000D01*
X110410000Y-58432000D01*
X110410000Y-58432000D01*
G37*
G36*
X112696000Y-57987500D02*
G01*
X112094000Y-57987500D01*
X112094000Y-57285500D01*
X112696000Y-57285500D01*
X112696000Y-57987500D01*
X112696000Y-57987500D01*
G37*
G36*
X109324500Y-57844000D02*
G01*
X107972500Y-57844000D01*
X107972500Y-56742000D01*
X109324500Y-56742000D01*
X109324500Y-57844000D01*
X109324500Y-57844000D01*
G37*
G36*
X170235000Y-57387500D02*
G01*
X169533000Y-57387500D01*
X169533000Y-56785500D01*
X170235000Y-56785500D01*
X170235000Y-57387500D01*
X170235000Y-57387500D01*
G37*
G36*
X171335000Y-57387500D02*
G01*
X170633000Y-57387500D01*
X170633000Y-56785500D01*
X171335000Y-56785500D01*
X171335000Y-57387500D01*
X171335000Y-57387500D01*
G37*
G36*
X110410000Y-57332000D02*
G01*
X109808000Y-57332000D01*
X109808000Y-56630000D01*
X110410000Y-56630000D01*
X110410000Y-57332000D01*
X110410000Y-57332000D01*
G37*
G36*
X100373740Y-56001126D02*
G01*
X100422136Y-56010753D01*
X100459902Y-56026396D01*
X100513311Y-56048519D01*
X100513312Y-56048520D01*
X100595369Y-56103348D01*
X100665152Y-56173131D01*
X100692752Y-56214438D01*
X100719981Y-56255189D01*
X100757747Y-56346365D01*
X100777000Y-56443155D01*
X100777000Y-56541845D01*
X100757747Y-56638635D01*
X100719981Y-56729811D01*
X100692752Y-56770562D01*
X100665152Y-56811869D01*
X100595369Y-56881652D01*
X100554062Y-56909252D01*
X100513311Y-56936481D01*
X100459902Y-56958604D01*
X100422136Y-56974247D01*
X100373740Y-56983874D01*
X100325345Y-56993500D01*
X100226655Y-56993500D01*
X100178260Y-56983874D01*
X100129864Y-56974247D01*
X100092098Y-56958604D01*
X100038689Y-56936481D01*
X99997938Y-56909252D01*
X99956631Y-56881652D01*
X99886848Y-56811869D01*
X99859248Y-56770562D01*
X99832019Y-56729811D01*
X99794253Y-56638635D01*
X99775000Y-56541845D01*
X99775000Y-56443155D01*
X99794253Y-56346365D01*
X99832019Y-56255189D01*
X99859248Y-56214438D01*
X99886848Y-56173131D01*
X99956631Y-56103348D01*
X100038688Y-56048520D01*
X100038689Y-56048519D01*
X100092098Y-56026396D01*
X100129864Y-56010753D01*
X100178260Y-56001126D01*
X100226655Y-55991500D01*
X100325345Y-55991500D01*
X100373740Y-56001126D01*
X100373740Y-56001126D01*
G37*
G36*
X112696000Y-56887500D02*
G01*
X112094000Y-56887500D01*
X112094000Y-56185500D01*
X112696000Y-56185500D01*
X112696000Y-56887500D01*
X112696000Y-56887500D01*
G37*
G36*
X129465564Y-54297889D02*
G01*
X129656833Y-54377115D01*
X129656835Y-54377116D01*
X129828973Y-54492135D01*
X129975365Y-54638527D01*
X130087860Y-54806887D01*
X130090385Y-54810667D01*
X130169611Y-55001936D01*
X130210000Y-55204984D01*
X130210000Y-55412016D01*
X130169611Y-55615064D01*
X130102949Y-55776000D01*
X130090384Y-55806335D01*
X129975365Y-55978473D01*
X129828973Y-56124865D01*
X129656835Y-56239884D01*
X129656834Y-56239885D01*
X129656833Y-56239885D01*
X129465564Y-56319111D01*
X129262516Y-56359500D01*
X129055484Y-56359500D01*
X128852436Y-56319111D01*
X128661167Y-56239885D01*
X128661166Y-56239885D01*
X128661165Y-56239884D01*
X128489027Y-56124865D01*
X128342635Y-55978473D01*
X128227616Y-55806335D01*
X128215051Y-55776000D01*
X128148389Y-55615064D01*
X128108000Y-55412016D01*
X128108000Y-55204984D01*
X128148389Y-55001936D01*
X128227615Y-54810667D01*
X128230141Y-54806887D01*
X128342635Y-54638527D01*
X128489027Y-54492135D01*
X128661165Y-54377116D01*
X128661167Y-54377115D01*
X128852436Y-54297889D01*
X129055484Y-54257500D01*
X129262516Y-54257500D01*
X129465564Y-54297889D01*
X129465564Y-54297889D01*
G37*
G36*
X133965564Y-54297889D02*
G01*
X134156833Y-54377115D01*
X134156835Y-54377116D01*
X134328973Y-54492135D01*
X134475365Y-54638527D01*
X134587860Y-54806887D01*
X134590385Y-54810667D01*
X134669611Y-55001936D01*
X134710000Y-55204984D01*
X134710000Y-55412016D01*
X134669611Y-55615064D01*
X134602949Y-55776000D01*
X134590384Y-55806335D01*
X134475365Y-55978473D01*
X134328973Y-56124865D01*
X134156835Y-56239884D01*
X134156834Y-56239885D01*
X134156833Y-56239885D01*
X133965564Y-56319111D01*
X133762516Y-56359500D01*
X133555484Y-56359500D01*
X133352436Y-56319111D01*
X133161167Y-56239885D01*
X133161166Y-56239885D01*
X133161165Y-56239884D01*
X132989027Y-56124865D01*
X132842635Y-55978473D01*
X132727616Y-55806335D01*
X132715051Y-55776000D01*
X132648389Y-55615064D01*
X132608000Y-55412016D01*
X132608000Y-55204984D01*
X132648389Y-55001936D01*
X132727615Y-54810667D01*
X132730141Y-54806887D01*
X132842635Y-54638527D01*
X132989027Y-54492135D01*
X133161165Y-54377116D01*
X133161167Y-54377115D01*
X133352436Y-54297889D01*
X133555484Y-54257500D01*
X133762516Y-54257500D01*
X133965564Y-54297889D01*
X133965564Y-54297889D01*
G37*
G36*
X144211000Y-56294500D02*
G01*
X143709000Y-56294500D01*
X143709000Y-55592500D01*
X144211000Y-55592500D01*
X144211000Y-56294500D01*
X144211000Y-56294500D01*
G37*
G36*
X143311000Y-56294500D02*
G01*
X142809000Y-56294500D01*
X142809000Y-55592500D01*
X143311000Y-55592500D01*
X143311000Y-56294500D01*
X143311000Y-56294500D01*
G37*
G36*
X140347000Y-55990500D02*
G01*
X139645000Y-55990500D01*
X139645000Y-55388500D01*
X140347000Y-55388500D01*
X140347000Y-55990500D01*
X140347000Y-55990500D01*
G37*
G36*
X139247000Y-55990500D02*
G01*
X138545000Y-55990500D01*
X138545000Y-55388500D01*
X139247000Y-55388500D01*
X139247000Y-55990500D01*
X139247000Y-55990500D01*
G37*
G36*
X146528000Y-55819000D02*
G01*
X145826000Y-55819000D01*
X145826000Y-55317000D01*
X146528000Y-55317000D01*
X146528000Y-55819000D01*
X146528000Y-55819000D01*
G37*
G36*
X200777500Y-55776000D02*
G01*
X197175500Y-55776000D01*
X197175500Y-52174000D01*
X200777500Y-52174000D01*
X200777500Y-55776000D01*
X200777500Y-55776000D01*
G37*
G36*
X194777500Y-55776000D02*
G01*
X191175500Y-55776000D01*
X191175500Y-52174000D01*
X194777500Y-52174000D01*
X194777500Y-55776000D01*
X194777500Y-55776000D01*
G37*
G36*
X107263500Y-55736500D02*
G01*
X106561500Y-55736500D01*
X106561500Y-55134500D01*
X107263500Y-55134500D01*
X107263500Y-55736500D01*
X107263500Y-55736500D01*
G37*
G36*
X106163500Y-55736500D02*
G01*
X105461500Y-55736500D01*
X105461500Y-55134500D01*
X106163500Y-55134500D01*
X106163500Y-55736500D01*
X106163500Y-55736500D01*
G37*
G36*
X110613500Y-52928189D02*
G01*
X110609053Y-52930566D01*
X110590111Y-52946111D01*
X110574566Y-52965053D01*
X110563015Y-52986664D01*
X110555902Y-53010113D01*
X110553500Y-53034499D01*
X110553500Y-54782501D01*
X110555902Y-54806887D01*
X110563015Y-54830336D01*
X110574566Y-54851947D01*
X110590111Y-54870889D01*
X110609053Y-54886434D01*
X110613500Y-54888811D01*
X110613500Y-55709500D01*
X108011500Y-55709500D01*
X108011500Y-54888811D01*
X108015947Y-54886434D01*
X108034889Y-54870889D01*
X108050434Y-54851947D01*
X108061985Y-54830336D01*
X108069098Y-54806887D01*
X108071500Y-54782501D01*
X108071500Y-53034499D01*
X108069098Y-53010113D01*
X108061985Y-52986664D01*
X108050434Y-52965053D01*
X108034889Y-52946111D01*
X108015947Y-52930566D01*
X108011500Y-52928189D01*
X108011500Y-52107500D01*
X110613500Y-52107500D01*
X110613500Y-52928189D01*
X110613500Y-52928189D01*
G37*
G36*
X124255000Y-55573500D02*
G01*
X123153000Y-55573500D01*
X123153000Y-50471500D01*
X124255000Y-50471500D01*
X124255000Y-55573500D01*
X124255000Y-55573500D01*
G37*
G36*
X118655000Y-55573500D02*
G01*
X117553000Y-55573500D01*
X117553000Y-50471500D01*
X118655000Y-50471500D01*
X118655000Y-55573500D01*
X118655000Y-55573500D01*
G37*
G36*
X181358500Y-55532500D02*
G01*
X180856500Y-55532500D01*
X180856500Y-54830500D01*
X181358500Y-54830500D01*
X181358500Y-55532500D01*
X181358500Y-55532500D01*
G37*
G36*
X180458500Y-55532500D02*
G01*
X179956500Y-55532500D01*
X179956500Y-54830500D01*
X180458500Y-54830500D01*
X180458500Y-55532500D01*
X180458500Y-55532500D01*
G37*
G36*
X125531000Y-55228500D02*
G01*
X124829000Y-55228500D01*
X124829000Y-54626500D01*
X125531000Y-54626500D01*
X125531000Y-55228500D01*
X125531000Y-55228500D01*
G37*
G36*
X126631000Y-55228500D02*
G01*
X125929000Y-55228500D01*
X125929000Y-54626500D01*
X126631000Y-54626500D01*
X126631000Y-55228500D01*
X126631000Y-55228500D01*
G37*
G36*
X116979000Y-55228500D02*
G01*
X116277000Y-55228500D01*
X116277000Y-54626500D01*
X116979000Y-54626500D01*
X116979000Y-55228500D01*
X116979000Y-55228500D01*
G37*
G36*
X115879000Y-55228500D02*
G01*
X115177000Y-55228500D01*
X115177000Y-54626500D01*
X115879000Y-54626500D01*
X115879000Y-55228500D01*
X115879000Y-55228500D01*
G37*
G36*
X146528000Y-54919000D02*
G01*
X145826000Y-54919000D01*
X145826000Y-54417000D01*
X146528000Y-54417000D01*
X146528000Y-54919000D01*
X146528000Y-54919000D01*
G37*
G36*
X185409064Y-52710389D02*
G01*
X185600333Y-52789615D01*
X185600335Y-52789616D01*
X185772473Y-52904635D01*
X185918865Y-53051027D01*
X186029765Y-53217000D01*
X186033885Y-53223167D01*
X186113111Y-53414436D01*
X186153500Y-53617484D01*
X186153500Y-53824516D01*
X186113111Y-54027564D01*
X186033885Y-54218833D01*
X186033884Y-54218835D01*
X185918865Y-54390973D01*
X185772473Y-54537365D01*
X185600335Y-54652384D01*
X185600334Y-54652385D01*
X185600333Y-54652385D01*
X185409064Y-54731611D01*
X185206016Y-54772000D01*
X184998984Y-54772000D01*
X184795936Y-54731611D01*
X184604667Y-54652385D01*
X184604666Y-54652385D01*
X184604665Y-54652384D01*
X184432527Y-54537365D01*
X184286135Y-54390973D01*
X184171116Y-54218835D01*
X184171115Y-54218833D01*
X184091889Y-54027564D01*
X184051500Y-53824516D01*
X184051500Y-53617484D01*
X184091889Y-53414436D01*
X184171115Y-53223167D01*
X184175236Y-53217000D01*
X184286135Y-53051027D01*
X184432527Y-52904635D01*
X184604665Y-52789616D01*
X184604667Y-52789615D01*
X184795936Y-52710389D01*
X184998984Y-52670000D01*
X185206016Y-52670000D01*
X185409064Y-52710389D01*
X185409064Y-52710389D01*
G37*
G36*
X178909064Y-52710389D02*
G01*
X179100333Y-52789615D01*
X179100335Y-52789616D01*
X179272473Y-52904635D01*
X179418865Y-53051027D01*
X179529765Y-53217000D01*
X179533885Y-53223167D01*
X179613111Y-53414436D01*
X179653500Y-53617484D01*
X179653500Y-53824516D01*
X179613111Y-54027564D01*
X179533885Y-54218833D01*
X179533884Y-54218835D01*
X179418865Y-54390973D01*
X179272473Y-54537365D01*
X179100335Y-54652384D01*
X179100334Y-54652385D01*
X179100333Y-54652385D01*
X178909064Y-54731611D01*
X178706016Y-54772000D01*
X178498984Y-54772000D01*
X178295936Y-54731611D01*
X178104667Y-54652385D01*
X178104666Y-54652385D01*
X178104665Y-54652384D01*
X177932527Y-54537365D01*
X177786135Y-54390973D01*
X177671116Y-54218835D01*
X177671115Y-54218833D01*
X177591889Y-54027564D01*
X177551500Y-53824516D01*
X177551500Y-53617484D01*
X177591889Y-53414436D01*
X177671115Y-53223167D01*
X177675236Y-53217000D01*
X177786135Y-53051027D01*
X177932527Y-52904635D01*
X178104665Y-52789616D01*
X178104667Y-52789615D01*
X178295936Y-52710389D01*
X178498984Y-52670000D01*
X178706016Y-52670000D01*
X178909064Y-52710389D01*
X178909064Y-52710389D01*
G37*
G36*
X107063500Y-54770500D02*
G01*
X106561500Y-54770500D01*
X106561500Y-54068500D01*
X107063500Y-54068500D01*
X107063500Y-54770500D01*
X107063500Y-54770500D01*
G37*
G36*
X106163500Y-54770500D02*
G01*
X105661500Y-54770500D01*
X105661500Y-54068500D01*
X106163500Y-54068500D01*
X106163500Y-54770500D01*
X106163500Y-54770500D01*
G37*
G36*
X181358500Y-54453000D02*
G01*
X180856500Y-54453000D01*
X180856500Y-53751000D01*
X181358500Y-53751000D01*
X181358500Y-54453000D01*
X181358500Y-54453000D01*
G37*
G36*
X180458500Y-54453000D02*
G01*
X179956500Y-54453000D01*
X179956500Y-53751000D01*
X180458500Y-53751000D01*
X180458500Y-54453000D01*
X180458500Y-54453000D01*
G37*
G36*
X183590500Y-54403000D02*
G01*
X182888500Y-54403000D01*
X182888500Y-53801000D01*
X183590500Y-53801000D01*
X183590500Y-54403000D01*
X183590500Y-54403000D01*
G37*
G36*
X182490500Y-54403000D02*
G01*
X181788500Y-54403000D01*
X181788500Y-53801000D01*
X182490500Y-53801000D01*
X182490500Y-54403000D01*
X182490500Y-54403000D01*
G37*
G36*
X125404000Y-54008500D02*
G01*
X124902000Y-54008500D01*
X124902000Y-53306500D01*
X125404000Y-53306500D01*
X125404000Y-54008500D01*
X125404000Y-54008500D01*
G37*
G36*
X116006000Y-54008500D02*
G01*
X115504000Y-54008500D01*
X115504000Y-53306500D01*
X116006000Y-53306500D01*
X116006000Y-54008500D01*
X116006000Y-54008500D01*
G37*
G36*
X126304000Y-54008500D02*
G01*
X125802000Y-54008500D01*
X125802000Y-53306500D01*
X126304000Y-53306500D01*
X126304000Y-54008500D01*
X126304000Y-54008500D01*
G37*
G36*
X116906000Y-54008500D02*
G01*
X116404000Y-54008500D01*
X116404000Y-53306500D01*
X116906000Y-53306500D01*
X116906000Y-54008500D01*
X116906000Y-54008500D01*
G37*
G36*
X107063500Y-53754500D02*
G01*
X106561500Y-53754500D01*
X106561500Y-53052500D01*
X107063500Y-53052500D01*
X107063500Y-53754500D01*
X107063500Y-53754500D01*
G37*
G36*
X106163500Y-53754500D02*
G01*
X105661500Y-53754500D01*
X105661500Y-53052500D01*
X106163500Y-53052500D01*
X106163500Y-53754500D01*
X106163500Y-53754500D01*
G37*
G36*
X180881500Y-53279000D02*
G01*
X180179500Y-53279000D01*
X180179500Y-52777000D01*
X180881500Y-52777000D01*
X180881500Y-53279000D01*
X180881500Y-53279000D01*
G37*
G36*
X182775000Y-53217000D02*
G01*
X182223000Y-53217000D01*
X182223000Y-52415000D01*
X182775000Y-52415000D01*
X182775000Y-53217000D01*
X182775000Y-53217000D01*
G37*
G36*
X139289000Y-52961500D02*
G01*
X138587000Y-52961500D01*
X138587000Y-52459500D01*
X139289000Y-52459500D01*
X139289000Y-52961500D01*
X139289000Y-52961500D01*
G37*
G36*
X116006000Y-52738500D02*
G01*
X115504000Y-52738500D01*
X115504000Y-52036500D01*
X116006000Y-52036500D01*
X116006000Y-52738500D01*
X116006000Y-52738500D01*
G37*
G36*
X125404000Y-52738500D02*
G01*
X124902000Y-52738500D01*
X124902000Y-52036500D01*
X125404000Y-52036500D01*
X125404000Y-52738500D01*
X125404000Y-52738500D01*
G37*
G36*
X116906000Y-52738500D02*
G01*
X116404000Y-52738500D01*
X116404000Y-52036500D01*
X116906000Y-52036500D01*
X116906000Y-52738500D01*
X116906000Y-52738500D01*
G37*
G36*
X126304000Y-52738500D02*
G01*
X125802000Y-52738500D01*
X125802000Y-52036500D01*
X126304000Y-52036500D01*
X126304000Y-52738500D01*
X126304000Y-52738500D01*
G37*
G36*
X107263500Y-52688500D02*
G01*
X106561500Y-52688500D01*
X106561500Y-52086500D01*
X107263500Y-52086500D01*
X107263500Y-52688500D01*
X107263500Y-52688500D01*
G37*
G36*
X106163500Y-52688500D02*
G01*
X105461500Y-52688500D01*
X105461500Y-52086500D01*
X106163500Y-52086500D01*
X106163500Y-52688500D01*
X106163500Y-52688500D01*
G37*
G36*
X100373740Y-51601126D02*
G01*
X100422136Y-51610753D01*
X100459902Y-51626396D01*
X100513311Y-51648519D01*
X100513312Y-51648520D01*
X100595369Y-51703348D01*
X100665152Y-51773131D01*
X100665153Y-51773133D01*
X100719981Y-51855189D01*
X100757747Y-51946365D01*
X100777000Y-52043155D01*
X100777000Y-52141845D01*
X100757747Y-52238635D01*
X100719981Y-52329811D01*
X100719980Y-52329812D01*
X100665152Y-52411869D01*
X100595369Y-52481652D01*
X100554062Y-52509252D01*
X100513311Y-52536481D01*
X100459902Y-52558604D01*
X100422136Y-52574247D01*
X100373740Y-52583874D01*
X100325345Y-52593500D01*
X100226655Y-52593500D01*
X100178260Y-52583874D01*
X100129864Y-52574247D01*
X100092098Y-52558604D01*
X100038689Y-52536481D01*
X99997938Y-52509252D01*
X99956631Y-52481652D01*
X99886848Y-52411869D01*
X99832020Y-52329812D01*
X99832019Y-52329811D01*
X99794253Y-52238635D01*
X99775000Y-52141845D01*
X99775000Y-52043155D01*
X99794253Y-51946365D01*
X99832019Y-51855189D01*
X99886847Y-51773133D01*
X99886848Y-51773131D01*
X99956631Y-51703348D01*
X100038688Y-51648520D01*
X100038689Y-51648519D01*
X100092098Y-51626396D01*
X100129864Y-51610753D01*
X100178260Y-51601127D01*
X100226655Y-51591500D01*
X100325345Y-51591500D01*
X100373740Y-51601126D01*
X100373740Y-51601126D01*
G37*
G36*
X180881500Y-52379000D02*
G01*
X180179500Y-52379000D01*
X180179500Y-51877000D01*
X180881500Y-51877000D01*
X180881500Y-52379000D01*
X180881500Y-52379000D01*
G37*
G36*
X139289000Y-52061500D02*
G01*
X138587000Y-52061500D01*
X138587000Y-51559500D01*
X139289000Y-51559500D01*
X139289000Y-52061500D01*
X139289000Y-52061500D01*
G37*
G36*
X137659500Y-51291500D02*
G01*
X136957500Y-51291500D01*
X136957500Y-50689500D01*
X137659500Y-50689500D01*
X137659500Y-51291500D01*
X137659500Y-51291500D01*
G37*
G36*
X138759500Y-51291500D02*
G01*
X138057500Y-51291500D01*
X138057500Y-50689500D01*
X138759500Y-50689500D01*
X138759500Y-51291500D01*
X138759500Y-51291500D01*
G37*
G36*
X182125000Y-51217000D02*
G01*
X181573000Y-51217000D01*
X181573000Y-50415000D01*
X182125000Y-50415000D01*
X182125000Y-51217000D01*
X182125000Y-51217000D01*
G37*
G36*
X183425000Y-51217000D02*
G01*
X182873000Y-51217000D01*
X182873000Y-50415000D01*
X183425000Y-50415000D01*
X183425000Y-51217000D01*
X183425000Y-51217000D01*
G37*
G36*
X197777500Y-51076000D02*
G01*
X194175500Y-51076000D01*
X194175500Y-47474000D01*
X197777500Y-47474000D01*
X197777500Y-51076000D01*
X197777500Y-51076000D01*
G37*
G36*
X110537000Y-50621500D02*
G01*
X109935000Y-50621500D01*
X109935000Y-49919500D01*
X110537000Y-49919500D01*
X110537000Y-50621500D01*
X110537000Y-50621500D01*
G37*
G36*
X109648000Y-50621500D02*
G01*
X109046000Y-50621500D01*
X109046000Y-49919500D01*
X109648000Y-49919500D01*
X109648000Y-50621500D01*
X109648000Y-50621500D01*
G37*
G36*
X107743000Y-50621500D02*
G01*
X107141000Y-50621500D01*
X107141000Y-49919500D01*
X107743000Y-49919500D01*
X107743000Y-50621500D01*
X107743000Y-50621500D01*
G37*
G36*
X108745500Y-50421500D02*
G01*
X108043500Y-50421500D01*
X108043500Y-49919500D01*
X108745500Y-49919500D01*
X108745500Y-50421500D01*
X108745500Y-50421500D01*
G37*
G36*
X178909064Y-48210389D02*
G01*
X179100333Y-48289615D01*
X179100335Y-48289616D01*
X179272473Y-48404635D01*
X179418865Y-48551027D01*
X179524761Y-48709511D01*
X179533885Y-48723167D01*
X179613111Y-48914436D01*
X179653500Y-49117484D01*
X179653500Y-49324516D01*
X179613111Y-49527564D01*
X179535270Y-49715489D01*
X179533884Y-49718835D01*
X179418865Y-49890973D01*
X179272473Y-50037365D01*
X179100335Y-50152384D01*
X179100334Y-50152385D01*
X179100333Y-50152385D01*
X178909064Y-50231611D01*
X178706016Y-50272000D01*
X178498984Y-50272000D01*
X178295936Y-50231611D01*
X178104667Y-50152385D01*
X178104666Y-50152385D01*
X178104665Y-50152384D01*
X177932527Y-50037365D01*
X177786135Y-49890973D01*
X177671116Y-49718835D01*
X177669730Y-49715489D01*
X177591889Y-49527564D01*
X177551500Y-49324516D01*
X177551500Y-49117484D01*
X177591889Y-48914436D01*
X177671115Y-48723167D01*
X177680240Y-48709511D01*
X177786135Y-48551027D01*
X177932527Y-48404635D01*
X178104665Y-48289616D01*
X178104667Y-48289615D01*
X178295936Y-48210389D01*
X178498984Y-48170000D01*
X178706016Y-48170000D01*
X178909064Y-48210389D01*
X178909064Y-48210389D01*
G37*
G36*
X185409064Y-48210389D02*
G01*
X185600333Y-48289615D01*
X185600335Y-48289616D01*
X185772473Y-48404635D01*
X185918865Y-48551027D01*
X186024761Y-48709511D01*
X186033885Y-48723167D01*
X186113111Y-48914436D01*
X186153500Y-49117484D01*
X186153500Y-49324516D01*
X186113111Y-49527564D01*
X186035270Y-49715489D01*
X186033884Y-49718835D01*
X185918865Y-49890973D01*
X185772473Y-50037365D01*
X185600335Y-50152384D01*
X185600334Y-50152385D01*
X185600333Y-50152385D01*
X185409064Y-50231611D01*
X185206016Y-50272000D01*
X184998984Y-50272000D01*
X184795936Y-50231611D01*
X184604667Y-50152385D01*
X184604666Y-50152385D01*
X184604665Y-50152384D01*
X184432527Y-50037365D01*
X184286135Y-49890973D01*
X184171116Y-49718835D01*
X184169730Y-49715489D01*
X184091889Y-49527564D01*
X184051500Y-49324516D01*
X184051500Y-49117484D01*
X184091889Y-48914436D01*
X184171115Y-48723167D01*
X184180240Y-48709511D01*
X184286135Y-48551027D01*
X184432527Y-48404635D01*
X184604665Y-48289616D01*
X184604667Y-48289615D01*
X184795936Y-48210389D01*
X184998984Y-48170000D01*
X185206016Y-48170000D01*
X185409064Y-48210389D01*
X185409064Y-48210389D01*
G37*
G36*
X150734085Y-47056302D02*
G01*
X150883910Y-47086104D01*
X151166174Y-47203021D01*
X151420205Y-47372759D01*
X151636241Y-47588795D01*
X151805979Y-47842826D01*
X151922896Y-48125090D01*
X151922896Y-48125091D01*
X151982500Y-48424739D01*
X151982500Y-48730261D01*
X151964749Y-48819500D01*
X151922896Y-49029910D01*
X151805979Y-49312174D01*
X151636241Y-49566205D01*
X151420205Y-49782241D01*
X151166174Y-49951979D01*
X150883910Y-50068896D01*
X150734085Y-50098698D01*
X150584261Y-50128500D01*
X150278739Y-50128500D01*
X150128915Y-50098698D01*
X149979090Y-50068896D01*
X149696826Y-49951979D01*
X149442795Y-49782241D01*
X149226759Y-49566205D01*
X149057021Y-49312174D01*
X148940104Y-49029910D01*
X148898251Y-48819500D01*
X148880500Y-48730261D01*
X148880500Y-48424739D01*
X148940104Y-48125091D01*
X148940104Y-48125090D01*
X149057021Y-47842826D01*
X149226759Y-47588795D01*
X149442795Y-47372759D01*
X149696826Y-47203021D01*
X149979090Y-47086104D01*
X150128915Y-47056302D01*
X150278739Y-47026500D01*
X150584261Y-47026500D01*
X150734085Y-47056302D01*
X150734085Y-47056302D01*
G37*
G36*
X165765444Y-48318019D02*
G01*
X165831628Y-48324537D01*
X166001467Y-48376057D01*
X166157992Y-48459722D01*
X166193730Y-48489052D01*
X166295187Y-48572314D01*
X166378449Y-48673771D01*
X166407779Y-48709509D01*
X166491444Y-48866034D01*
X166542964Y-49035873D01*
X166560360Y-49212500D01*
X166542964Y-49389127D01*
X166491444Y-49558966D01*
X166407779Y-49715491D01*
X166387760Y-49739884D01*
X166295187Y-49852686D01*
X166193730Y-49935948D01*
X166157992Y-49965278D01*
X166001467Y-50048943D01*
X165831628Y-50100463D01*
X165765444Y-50106981D01*
X165699261Y-50113500D01*
X165610741Y-50113500D01*
X165544558Y-50106981D01*
X165478374Y-50100463D01*
X165308535Y-50048943D01*
X165152010Y-49965278D01*
X165116272Y-49935948D01*
X165014815Y-49852686D01*
X164922242Y-49739884D01*
X164902223Y-49715491D01*
X164818558Y-49558966D01*
X164767038Y-49389127D01*
X164749642Y-49212500D01*
X164767038Y-49035873D01*
X164818558Y-48866034D01*
X164902223Y-48709509D01*
X164931553Y-48673771D01*
X165014815Y-48572314D01*
X165116272Y-48489052D01*
X165152010Y-48459722D01*
X165308535Y-48376057D01*
X165478374Y-48324537D01*
X165544558Y-48318019D01*
X165610741Y-48311500D01*
X165699261Y-48311500D01*
X165765444Y-48318019D01*
X165765444Y-48318019D01*
G37*
G36*
X168305444Y-48318019D02*
G01*
X168371628Y-48324537D01*
X168541467Y-48376057D01*
X168697992Y-48459722D01*
X168733730Y-48489052D01*
X168835187Y-48572314D01*
X168918449Y-48673771D01*
X168947779Y-48709509D01*
X169031444Y-48866034D01*
X169082964Y-49035873D01*
X169100360Y-49212500D01*
X169082964Y-49389127D01*
X169031444Y-49558966D01*
X168947779Y-49715491D01*
X168927760Y-49739884D01*
X168835187Y-49852686D01*
X168733730Y-49935948D01*
X168697992Y-49965278D01*
X168541467Y-50048943D01*
X168371628Y-50100463D01*
X168305444Y-50106981D01*
X168239261Y-50113500D01*
X168150741Y-50113500D01*
X168084558Y-50106981D01*
X168018374Y-50100463D01*
X167848535Y-50048943D01*
X167692010Y-49965278D01*
X167656272Y-49935948D01*
X167554815Y-49852686D01*
X167462242Y-49739884D01*
X167442223Y-49715491D01*
X167358558Y-49558966D01*
X167307038Y-49389127D01*
X167289642Y-49212500D01*
X167307038Y-49035873D01*
X167358558Y-48866034D01*
X167442223Y-48709509D01*
X167471553Y-48673771D01*
X167554815Y-48572314D01*
X167656272Y-48489052D01*
X167692010Y-48459722D01*
X167848535Y-48376057D01*
X168018374Y-48324537D01*
X168084558Y-48318019D01*
X168150741Y-48311500D01*
X168239261Y-48311500D01*
X168305444Y-48318019D01*
X168305444Y-48318019D01*
G37*
G36*
X170845444Y-48318019D02*
G01*
X170911628Y-48324537D01*
X171081467Y-48376057D01*
X171237992Y-48459722D01*
X171273730Y-48489052D01*
X171375187Y-48572314D01*
X171458449Y-48673771D01*
X171487779Y-48709509D01*
X171571444Y-48866034D01*
X171622964Y-49035873D01*
X171640360Y-49212500D01*
X171622964Y-49389127D01*
X171571444Y-49558966D01*
X171487779Y-49715491D01*
X171467760Y-49739884D01*
X171375187Y-49852686D01*
X171273730Y-49935948D01*
X171237992Y-49965278D01*
X171081467Y-50048943D01*
X170911628Y-50100463D01*
X170845444Y-50106981D01*
X170779261Y-50113500D01*
X170690741Y-50113500D01*
X170624558Y-50106981D01*
X170558374Y-50100463D01*
X170388535Y-50048943D01*
X170232010Y-49965278D01*
X170196272Y-49935948D01*
X170094815Y-49852686D01*
X170002242Y-49739884D01*
X169982223Y-49715491D01*
X169898558Y-49558966D01*
X169847038Y-49389127D01*
X169829642Y-49212500D01*
X169847038Y-49035873D01*
X169898558Y-48866034D01*
X169982223Y-48709509D01*
X170011553Y-48673771D01*
X170094815Y-48572314D01*
X170196272Y-48489052D01*
X170232010Y-48459722D01*
X170388535Y-48376057D01*
X170558374Y-48324537D01*
X170624558Y-48318019D01*
X170690741Y-48311500D01*
X170779261Y-48311500D01*
X170845444Y-48318019D01*
X170845444Y-48318019D01*
G37*
G36*
X174176001Y-50113500D02*
G01*
X172374001Y-50113500D01*
X172374001Y-48311500D01*
X174176001Y-48311500D01*
X174176001Y-50113500D01*
X174176001Y-50113500D01*
G37*
G36*
X163225444Y-48318019D02*
G01*
X163291628Y-48324537D01*
X163461467Y-48376057D01*
X163617992Y-48459722D01*
X163653730Y-48489052D01*
X163755187Y-48572314D01*
X163838449Y-48673771D01*
X163867779Y-48709509D01*
X163951444Y-48866034D01*
X164002964Y-49035873D01*
X164020360Y-49212500D01*
X164002964Y-49389127D01*
X163951444Y-49558966D01*
X163867779Y-49715491D01*
X163847760Y-49739884D01*
X163755187Y-49852686D01*
X163653730Y-49935948D01*
X163617992Y-49965278D01*
X163461467Y-50048943D01*
X163291628Y-50100463D01*
X163225444Y-50106981D01*
X163159261Y-50113500D01*
X163070741Y-50113500D01*
X163004558Y-50106981D01*
X162938374Y-50100463D01*
X162768535Y-50048943D01*
X162612010Y-49965278D01*
X162576272Y-49935948D01*
X162474815Y-49852686D01*
X162382242Y-49739884D01*
X162362223Y-49715491D01*
X162278558Y-49558966D01*
X162227038Y-49389127D01*
X162209642Y-49212500D01*
X162227038Y-49035873D01*
X162278558Y-48866034D01*
X162362223Y-48709509D01*
X162391553Y-48673771D01*
X162474815Y-48572314D01*
X162576272Y-48489052D01*
X162612010Y-48459722D01*
X162768535Y-48376057D01*
X162938374Y-48324537D01*
X163004558Y-48318019D01*
X163070741Y-48311500D01*
X163159261Y-48311500D01*
X163225444Y-48318019D01*
X163225444Y-48318019D01*
G37*
G36*
X160685444Y-48318019D02*
G01*
X160751628Y-48324537D01*
X160921467Y-48376057D01*
X161077992Y-48459722D01*
X161113730Y-48489052D01*
X161215187Y-48572314D01*
X161298449Y-48673771D01*
X161327779Y-48709509D01*
X161411444Y-48866034D01*
X161462964Y-49035873D01*
X161480360Y-49212500D01*
X161462964Y-49389127D01*
X161411444Y-49558966D01*
X161327779Y-49715491D01*
X161307760Y-49739884D01*
X161215187Y-49852686D01*
X161113730Y-49935948D01*
X161077992Y-49965278D01*
X160921467Y-50048943D01*
X160751628Y-50100463D01*
X160685444Y-50106981D01*
X160619261Y-50113500D01*
X160530741Y-50113500D01*
X160464558Y-50106981D01*
X160398374Y-50100463D01*
X160228535Y-50048943D01*
X160072010Y-49965278D01*
X160036272Y-49935948D01*
X159934815Y-49852686D01*
X159842242Y-49739884D01*
X159822223Y-49715491D01*
X159738558Y-49558966D01*
X159687038Y-49389127D01*
X159669642Y-49212500D01*
X159687038Y-49035873D01*
X159738558Y-48866034D01*
X159822223Y-48709509D01*
X159851553Y-48673771D01*
X159934815Y-48572314D01*
X160036272Y-48489052D01*
X160072010Y-48459722D01*
X160228535Y-48376057D01*
X160398374Y-48324537D01*
X160464558Y-48318019D01*
X160530741Y-48311500D01*
X160619261Y-48311500D01*
X160685444Y-48318019D01*
X160685444Y-48318019D01*
G37*
G36*
X133965564Y-47797889D02*
G01*
X134156833Y-47877115D01*
X134156835Y-47877116D01*
X134328973Y-47992135D01*
X134475365Y-48138527D01*
X134590385Y-48310667D01*
X134669611Y-48501936D01*
X134710000Y-48704984D01*
X134710000Y-48912016D01*
X134669611Y-49115064D01*
X134590385Y-49306333D01*
X134590384Y-49306335D01*
X134475365Y-49478473D01*
X134328973Y-49624865D01*
X134156835Y-49739884D01*
X134156834Y-49739885D01*
X134156833Y-49739885D01*
X133965564Y-49819111D01*
X133762516Y-49859500D01*
X133555484Y-49859500D01*
X133352436Y-49819111D01*
X133161167Y-49739885D01*
X133161166Y-49739885D01*
X133161165Y-49739884D01*
X132989027Y-49624865D01*
X132842635Y-49478473D01*
X132727616Y-49306335D01*
X132727615Y-49306333D01*
X132648389Y-49115064D01*
X132608000Y-48912016D01*
X132608000Y-48704984D01*
X132648389Y-48501936D01*
X132727615Y-48310667D01*
X132842635Y-48138527D01*
X132989027Y-47992135D01*
X133161165Y-47877116D01*
X133161167Y-47877115D01*
X133352436Y-47797889D01*
X133555484Y-47757500D01*
X133762516Y-47757500D01*
X133965564Y-47797889D01*
X133965564Y-47797889D01*
G37*
G36*
X129465564Y-47797889D02*
G01*
X129656833Y-47877115D01*
X129656835Y-47877116D01*
X129828973Y-47992135D01*
X129975365Y-48138527D01*
X130090385Y-48310667D01*
X130169611Y-48501936D01*
X130210000Y-48704984D01*
X130210000Y-48912016D01*
X130169611Y-49115064D01*
X130090385Y-49306333D01*
X130090384Y-49306335D01*
X129975365Y-49478473D01*
X129828973Y-49624865D01*
X129656835Y-49739884D01*
X129656834Y-49739885D01*
X129656833Y-49739885D01*
X129465564Y-49819111D01*
X129262516Y-49859500D01*
X129055484Y-49859500D01*
X128852436Y-49819111D01*
X128661167Y-49739885D01*
X128661166Y-49739885D01*
X128661165Y-49739884D01*
X128489027Y-49624865D01*
X128342635Y-49478473D01*
X128227616Y-49306335D01*
X128227615Y-49306333D01*
X128148389Y-49115064D01*
X128108000Y-48912016D01*
X128108000Y-48704984D01*
X128148389Y-48501936D01*
X128227615Y-48310667D01*
X128342635Y-48138527D01*
X128489027Y-47992135D01*
X128661165Y-47877116D01*
X128661167Y-47877115D01*
X128852436Y-47797889D01*
X129055484Y-47757500D01*
X129262516Y-47757500D01*
X129465564Y-47797889D01*
X129465564Y-47797889D01*
G37*
G36*
X182300000Y-49817500D02*
G01*
X181798000Y-49817500D01*
X181798000Y-49115500D01*
X182300000Y-49115500D01*
X182300000Y-49817500D01*
X182300000Y-49817500D01*
G37*
G36*
X183200000Y-49817500D02*
G01*
X182698000Y-49817500D01*
X182698000Y-49115500D01*
X183200000Y-49115500D01*
X183200000Y-49817500D01*
X183200000Y-49817500D01*
G37*
G36*
X107743000Y-49521500D02*
G01*
X107141000Y-49521500D01*
X107141000Y-48819500D01*
X107743000Y-48819500D01*
X107743000Y-49521500D01*
X107743000Y-49521500D01*
G37*
G36*
X108745500Y-49521500D02*
G01*
X108043500Y-49521500D01*
X108043500Y-49019500D01*
X108745500Y-49019500D01*
X108745500Y-49521500D01*
X108745500Y-49521500D01*
G37*
G36*
X109648000Y-49521500D02*
G01*
X109046000Y-49521500D01*
X109046000Y-48819500D01*
X109648000Y-48819500D01*
X109648000Y-49521500D01*
X109648000Y-49521500D01*
G37*
G36*
X110537000Y-49521500D02*
G01*
X109935000Y-49521500D01*
X109935000Y-48819500D01*
X110537000Y-48819500D01*
X110537000Y-49521500D01*
X110537000Y-49521500D01*
G37*
G36*
X183200000Y-48738000D02*
G01*
X182698000Y-48738000D01*
X182698000Y-48036000D01*
X183200000Y-48036000D01*
X183200000Y-48738000D01*
X183200000Y-48738000D01*
G37*
G36*
X182300000Y-48738000D02*
G01*
X181798000Y-48738000D01*
X181798000Y-48036000D01*
X182300000Y-48036000D01*
X182300000Y-48738000D01*
X182300000Y-48738000D01*
G37*
M02*
